CrickxRush.sfdir

StartChar: exclam
Encoding: 33 33 13
Width: 335
Flags: W
LayerCount: 2
Fore
SplineSet
307 731 m 1,0,1
 304 635 304 635 287 538 c 2,2,-1
 230 219 l 1,3,4
 209 218 209 218 192.5 217 c 128,-1,5
 176 216 176 216 160.5 215.5 c 128,-1,6
 145 215 145 215 128.5 214 c 128,-1,7
 112 213 112 213 91 213 c 1,8,9
 94 255 94 255 89.5 298 c 128,-1,10
 85 341 85 341 94 381 c 1,11,-1
 92 393 l 1,12,-1
 125 670 l 1,13,-1
 127 670 l 1,14,15
 127 681 127 681 128 693.5 c 128,-1,16
 129 706 129 706 131 717 c 1,17,18
 173 723 173 723 217.5 724.5 c 128,-1,19
 262 726 262 726 307 731 c 1,0,1
239 140 m 1,20,21
 236 108 236 108 234 85.5 c 128,-1,22
 232 63 232 63 230 46 c 2,23,-1
 226 -12 l 1,24,25
 184 -14 184 -14 144.5 -13.5 c 128,-1,26
 105 -13 105 -13 63 -14 c 1,27,-1
 67 84 l 1,28,-1
 69 84 l 1,29,30
 69 95 69 95 70 107.5 c 128,-1,31
 71 120 71 120 73 131 c 1,32,33
 115 137 115 137 154.5 136 c 128,-1,34
 194 135 194 135 239 140 c 1,20,21
184 538 m 1,35,-1
 183 536 l 1,36,-1
 188 532 l 1,37,-1
 189 534 l 1,38,-1
 184 538 l 1,35,-1
230 444 m 1,39,-1
 229 442 l 1,40,-1
 232 440 l 1,41,-1
 233 441 l 1,42,-1
 230 444 l 1,39,-1
EndSplineSet
EndChar

StartChar: quotedbl
Encoding: 34 34 14
Width: 301
Flags: W
LayerCount: 2
Fore
SplineSet
317 682 m 1,0,-1
 313 560 l 1,1,-1
 293 497 l 1,2,-1
 275 434 l 1,3,-1
 251 419 l 1,4,-1
 215 437 l 1,5,-1
 212 557 l 1,6,7
 203 557 203 557 200 559 c 128,-1,8
 197 561 197 561 195 563 c 128,-1,9
 193 565 193 565 189.5 566.5 c 128,-1,10
 186 568 186 568 177 568 c 1,11,-1
 171 645 l 1,12,-1
 173 645 l 1,13,14
 173 671 173 671 176 697 c 1,15,16
 213 704 213 704 247 702.5 c 128,-1,17
 281 701 281 701 319 707 c 1,18,-1
 317 682 l 1,0,-1
120 497 m 1,19,-1
 103 434 l 1,20,-1
 79 419 l 1,21,-1
 50 423 l 1,22,-1
 41 541 l 1,23,24
 32 541 32 541 28.5 545.5 c 128,-1,25
 25 550 25 550 23 555 c 128,-1,26
 21 560 21 560 17.5 564 c 128,-1,27
 14 568 14 568 4 568 c 1,28,-1
 -1 645 l 1,29,-1
 1 645 l 1,30,31
 1 658 1 658 1.5 671 c 128,-1,32
 2 684 2 684 4 697 c 1,33,34
 40 704 40 704 74.5 702.5 c 128,-1,35
 109 701 109 701 147 707 c 1,36,-1
 145 682 l 1,37,-1
 149 579 l 1,38,-1
 120 497 l 1,19,-1
EndSplineSet
EndChar

StartChar: numbersign
Encoding: 35 35 15
Width: 721
Flags: W
LayerCount: 2
Fore
SplineSet
723 408 m 1,0,-1
 600 408 l 1,1,-1
 563 301 l 1,2,-1
 689 301 l 1,3,-1
 640 171 l 1,4,-1
 516 171 l 1,5,-1
 452 -8 l 1,6,-1
 311 -8 l 1,7,-1
 375 171 l 1,8,-1
 264 171 l 1,9,-1
 200 -8 l 1,10,-1
 59 -8 l 1,11,-1
 123 171 l 1,12,-1
 -3 171 l 1,13,-1
 46 301 l 1,14,-1
 170 301 l 1,15,-1
 206 408 l 1,16,-1
 80 408 l 1,17,-1
 128 539 l 1,18,-1
 254 539 l 1,19,-1
 317 718 l 1,20,-1
 458 718 l 1,21,-1
 395 539 l 1,22,-1
 506 539 l 1,23,-1
 569 718 l 1,24,-1
 710 718 l 1,25,-1
 647 539 l 1,26,-1
 772 539 l 1,27,-1
 723 408 l 1,0,-1
345 408 m 1,28,-1
 307 301 l 1,29,-1
 424 301 l 1,30,-1
 462 408 l 1,31,-1
 345 408 l 1,28,-1
EndSplineSet
EndChar

StartChar: percent
Encoding: 37 37 16
Width: 886
Flags: W
LayerCount: 2
Fore
SplineSet
842 200 m 0,0,1
 836 144 836 144 816 92.5 c 128,-1,2
 796 41 796 41 747 10 c 1,3,4
 699 -19 699 -19 645 -23.5 c 128,-1,5
 591 -28 591 -28 546 7 c 0,6,7
 523 25 523 25 519 48.5 c 128,-1,8
 515 72 515 72 520 97 c 128,-1,9
 525 122 525 122 533.5 148 c 128,-1,10
 542 174 542 174 544 198 c 1,11,-1
 543 202 l 1,12,13
 555 238 555 238 566 262.5 c 128,-1,14
 577 287 577 287 589.5 303 c 128,-1,15
 602 319 602 319 616 328 c 128,-1,16
 630 337 630 337 647 343 c 0,17,18
 668 351 668 351 693 352.5 c 128,-1,19
 718 354 718 354 743 349 c 128,-1,20
 768 344 768 344 790 332.5 c 128,-1,21
 812 321 812 321 828 303 c 1,22,23
 833 293 833 293 837 287 c 128,-1,24
 841 281 841 281 843 272 c 128,-1,25
 845 263 845 263 845 246.5 c 128,-1,26
 845 230 845 230 842 200 c 0,0,1
705 690 m 1,27,28
 679 640 679 640 648.5 593 c 128,-1,29
 618 546 618 546 589 497 c 2,30,-1
 286 -23 l 1,31,32
 253 -7 253 -7 226 4.5 c 128,-1,33
 199 16 199 16 166 33 c 1,34,35
 190 75 190 75 215.5 119 c 128,-1,36
 241 163 241 163 269 201 c 1,37,-1
 273 214 l 1,38,-1
 564 688 l 1,39,-1
 566 687 l 1,40,41
 571 699 571 699 578 711 c 128,-1,42
 585 723 585 723 593 734 c 1,43,44
 611 729 611 729 624 723.5 c 128,-1,45
 637 718 637 718 649 712.5 c 128,-1,46
 661 707 661 707 674 701.5 c 128,-1,47
 687 696 687 696 705 690 c 1,27,28
345 608 m 0,48,49
 347 580 347 580 346 552 c 128,-1,50
 345 524 345 524 339 497.5 c 128,-1,51
 333 471 333 471 320 447 c 128,-1,52
 307 423 307 423 285 404 c 0,53,54
 243 367 243 367 197.5 356.5 c 128,-1,55
 152 346 152 346 101 374 c 0,56,57
 75 388 75 388 65.5 409 c 128,-1,58
 56 430 56 430 53.5 454 c 128,-1,59
 51 478 51 478 53 504.5 c 128,-1,60
 55 531 55 531 53 555 c 1,61,-1
 51 558 l 1,62,63
 56 596 56 596 63 622 c 128,-1,64
 70 648 70 648 79.5 665.5 c 128,-1,65
 89 683 89 683 101.5 694.5 c 128,-1,66
 114 706 114 706 129 715 c 0,67,68
 168 738 168 738 213 737.5 c 128,-1,69
 258 737 258 737 296 707 c 1,70,71
 302 698 302 698 310 692.5 c 128,-1,72
 318 687 318 687 325 678.5 c 128,-1,73
 332 670 332 670 337.5 654 c 128,-1,74
 343 638 343 638 345 608 c 0,48,49
713 162 m 1,75,-1
 710 162 l 1,76,-1
 710 161 l 1,77,-1
 713 160 l 1,78,-1
 713 162 l 1,75,-1
715 209 m 1,79,80
 713 215 713 215 704.5 216 c 128,-1,81
 696 217 696 217 689 217 c 1,82,83
 677 215 677 215 668.5 205.5 c 128,-1,84
 660 196 660 196 662 182 c 1,85,86
 657 156 657 156 656 152 c 128,-1,87
 655 148 655 148 655 148.5 c 128,-1,88
 655 149 655 149 654.5 145.5 c 128,-1,89
 654 142 654 142 650 116 c 1,90,91
 664 116 664 116 678.5 121 c 128,-1,92
 693 126 693 126 703 138 c 1,93,94
 708 155 708 155 710.5 161.5 c 128,-1,95
 713 168 713 168 713 169 c 128,-1,96
 713 170 713 170 712.5 168.5 c 128,-1,97
 712 167 712 167 712 168 c 128,-1,98
 712 169 712 169 712.5 175 c 128,-1,99
 713 181 713 181 716 198 c 1,100,-1
 715 209 l 1,79,80
567 205 m 1,101,-1
 567 203 l 1,102,-1
 569 203 l 1,103,-1
 569 204 l 1,104,-1
 567 205 l 1,101,-1
226 548 m 1,105,-1
 223 548 l 1,106,-1
 223 547 l 1,107,-1
 226 546 l 1,108,-1
 226 548 l 1,105,-1
599 167 m 1,109,110
 596 167 596 167 595 166 c 1,111,-1
 598 164 l 1,112,-1
 599 167 l 1,109,110
219 595 m 1,113,114
 215 601 215 601 207 600 c 128,-1,115
 199 599 199 599 193 599 c 1,116,117
 181 594 181 594 174 583 c 128,-1,118
 167 572 167 572 172 559 c 1,119,120
 172 541 172 541 172 535 c 128,-1,121
 172 529 172 529 172 529 c 257,122,123
 172 529 172 529 172 532 c 128,-1,124
 172 535 172 535 172.5 535 c 128,-1,125
 173 535 173 535 173 529 c 128,-1,126
 173 523 173 523 174 506 c 1,127,128
 180 498 180 498 186.5 497 c 128,-1,129
 193 496 193 496 199 499.5 c 128,-1,130
 205 503 205 503 210.5 509.5 c 128,-1,131
 216 516 216 516 219 523 c 1,132,133
 223 549 223 549 224 552.5 c 128,-1,134
 225 556 225 556 224.5 554.5 c 128,-1,135
 224 553 224 553 223 556 c 128,-1,136
 222 559 222 559 222 584 c 1,137,-1
 219 595 l 1,113,114
678 29 m 1,138,-1
 675 29 l 1,139,-1
 675 28 l 1,140,-1
 678 27 l 1,141,-1
 678 29 l 1,138,-1
112 533 m 1,142,143
 110 533 110 533 109.5 532.5 c 128,-1,144
 109 532 109 532 108 532 c 2,145,-1
 112 530 l 1,146,-1
 112 533 l 1,142,143
74 565 m 1,147,-1
 74 563 l 1,148,-1
 76 563 l 1,149,-1
 77 565 l 1,150,-1
 74 565 l 1,147,-1
214 411 m 1,151,-1
 211 411 l 1,152,-1
 212 410 l 1,153,-1
 215 409 l 1,154,-1
 214 411 l 1,151,-1
EndSplineSet
EndChar

StartChar: ampersand
Encoding: 38 38 17
Width: 747
Flags: W
LayerCount: 2
Fore
SplineSet
212 613 m 1,0,-1
 209 616 l 1,1,-1
 210 617 l 1,2,-1
 213 614 l 1,3,-1
 212 613 l 1,0,-1
720 299 m 1,4,5
 705 282 705 282 686 268.5 c 128,-1,6
 667 255 667 255 649 241 c 1,7,8
 655 233 655 233 667.5 231 c 128,-1,9
 680 229 680 229 691.5 226 c 128,-1,10
 703 223 703 223 709.5 216.5 c 128,-1,11
 716 210 716 210 710 194 c 1,12,13
 708 165 708 165 706 135.5 c 128,-1,14
 704 106 704 106 702 77 c 1,15,16
 676 82 676 82 651 92 c 128,-1,17
 626 102 626 102 603 109 c 1,18,-1
 536 141 l 1,19,20
 506 112 506 112 473 84.5 c 128,-1,21
 440 57 440 57 402.5 37.5 c 128,-1,22
 365 18 365 18 323.5 9.5 c 128,-1,23
 282 1 282 1 236 11 c 0,24,25
 188 22 188 22 149.5 50.5 c 128,-1,26
 111 79 111 79 96 127 c 0,27,28
 85 162 85 162 80.5 193.5 c 128,-1,29
 76 225 76 225 83 261 c 1,30,-1
 86 261 l 1,31,32
 81 264 81 264 85 266.5 c 128,-1,33
 89 269 89 269 86 274 c 1,34,-1
 88 274 l 1,35,-1
 88 282 l 1,36,-1
 90 283 l 1,37,38
 93 308 93 308 106 330 c 1,39,40
 126 373 126 373 160 405 c 128,-1,41
 194 437 194 437 237 457 c 1,42,-1
 237 460 l 1,43,-1
 230 457 l 1,44,45
 222 470 222 470 215.5 486.5 c 128,-1,46
 209 503 209 503 205.5 520 c 128,-1,47
 202 537 202 537 202 553.5 c 128,-1,48
 202 570 202 570 207 582 c 1,49,50
 205 588 205 588 206 595 c 128,-1,51
 207 602 207 602 209.5 608.5 c 128,-1,52
 212 615 212 615 213 620 c 128,-1,53
 214 625 214 625 212 628 c 1,54,55
 218 640 218 640 217 647 c 1,56,-1
 220 647 l 1,57,58
 218 649 218 649 218.5 650 c 128,-1,59
 219 651 219 651 219.5 651.5 c 128,-1,60
 220 652 220 652 220.5 652.5 c 128,-1,61
 221 653 221 653 219 655 c 1,62,-1
 222 656 l 1,63,64
 224 685 224 685 241.5 705.5 c 128,-1,65
 259 726 259 726 281 747 c 1,66,67
 321 775 321 775 375 787.5 c 128,-1,68
 429 800 429 800 479 783 c 1,69,70
 497 780 497 780 516 771.5 c 128,-1,71
 535 763 535 763 552 751 c 128,-1,72
 569 739 569 739 582 723.5 c 128,-1,73
 595 708 595 708 602 690 c 0,74,75
 614 659 614 659 617.5 626 c 128,-1,76
 621 593 621 593 615 560.5 c 128,-1,77
 609 528 609 528 593.5 499 c 128,-1,78
 578 470 578 470 551 446 c 0,79,80
 532 429 532 429 509 417.5 c 128,-1,81
 486 406 486 406 465 392 c 1,82,-1
 466 388 l 1,83,-1
 563 318 l 1,84,85
 572 321 572 321 576 321 c 128,-1,86
 580 321 580 321 587 329 c 1,87,88
 622 349 622 349 655 370.5 c 128,-1,89
 688 392 688 392 721 412 c 1,90,-1
 720 299 l 1,4,5
80 213 m 1,91,-1
 77 215 l 1,92,-1
 78 217 l 1,93,-1
 81 215 l 1,94,-1
 80 213 l 1,91,-1
81 197 m 1,95,-1
 78 199 l 1,96,-1
 79 200 l 1,97,-1
 82 198 l 1,98,-1
 81 197 l 1,95,-1
492 572 m 1,99,100
 487 585 487 585 475.5 592.5 c 128,-1,101
 464 600 464 600 451 603 c 0,102,103
 431 607 431 607 418 594 c 128,-1,104
 405 581 405 581 395 568 c 1,105,-1
 398 565 l 1,106,107
 393 556 393 556 393.5 544 c 128,-1,108
 394 532 394 532 398 522 c 1,109,110
 399 511 399 511 404 508.5 c 128,-1,111
 409 506 409 506 416 506.5 c 128,-1,112
 423 507 423 507 430 509 c 128,-1,113
 437 511 437 511 443 511 c 1,114,115
 458 519 458 519 474 534 c 128,-1,116
 490 549 490 549 492 572 c 1,99,100
644 240 m 1,117,-1
 643 238 l 1,118,-1
 646 236 l 1,119,-1
 647 238 l 1,120,-1
 644 240 l 1,117,-1
251 468 m 1,121,-1
 250 466 l 1,122,-1
 253 463 l 1,123,-1
 254 465 l 1,124,-1
 251 468 l 1,121,-1
243 467 m 1,125,-1
 242 465 l 1,126,-1
 245 463 l 1,127,-1
 246 465 l 1,128,-1
 243 467 l 1,125,-1
252 451 m 1,129,-1
 251 450 l 1,130,-1
 254 447 l 1,131,-1
 255 449 l 1,132,-1
 252 451 l 1,129,-1
236 462 m 1,133,-1
 235 461 l 1,134,-1
 238 458 l 1,135,-1
 239 460 l 1,136,-1
 236 462 l 1,133,-1
328 330 m 1,137,-1
 327 328 l 1,138,-1
 330 325 l 1,139,-1
 331 327 l 1,140,-1
 328 330 l 1,137,-1
400 229 m 1,141,142
 380 246 380 246 358.5 262 c 128,-1,143
 337 278 337 278 320 295 c 1,144,145
 306 285 306 285 301.5 265.5 c 128,-1,146
 297 246 297 246 304 229 c 1,147,148
 312 219 312 219 324.5 216.5 c 128,-1,149
 337 214 337 214 350.5 215.5 c 128,-1,150
 364 217 364 217 377 221 c 128,-1,151
 390 225 390 225 400 229 c 1,141,142
370 210 m 1,152,-1
 369 209 l 1,153,-1
 372 206 l 1,154,-1
 373 207 l 1,155,-1
 370 210 l 1,152,-1
88 249 m 1,156,-1
 86 246 l 1,157,-1
 88 249 l 1,156,-1
200 93 m 1,158,-1
 198 92 l 1,159,-1
 201 89 l 1,160,-1
 203 91 l 1,161,-1
 200 93 l 1,158,-1
187 93 m 1,162,-1
 186 92 l 1,163,-1
 189 89 l 1,164,-1
 190 91 l 1,165,-1
 187 93 l 1,162,-1
197 93 m 1,166,167
 195 91 195 91 195 86.5 c 128,-1,168
 195 82 195 82 190 84 c 1,169,170
 188 83 188 83 188 79 c 1,171,-1
 196 80 l 1,172,173
 196 76 196 76 196 76 c 1,174,175
 200 80 200 80 198 86 c 128,-1,176
 196 92 196 92 195 94 c 1,177,-1
 193 94 l 1,178,-1
 197 93 l 1,166,167
EndSplineSet
EndChar

StartChar: quotesingle
Encoding: 39 39 18
Width: 141
Flags: W
LayerCount: 2
Fore
SplineSet
120 497 m 1,0,-1
 103 434 l 1,1,-1
 79 419 l 1,2,-1
 50 423 l 1,3,-1
 41 541 l 1,4,5
 32 541 32 541 28.5 545.5 c 128,-1,6
 25 550 25 550 23 555 c 128,-1,7
 21 560 21 560 17.5 564 c 128,-1,8
 14 568 14 568 4 568 c 1,9,-1
 -1 645 l 1,10,-1
 1 645 l 1,11,12
 1 658 1 658 1.5 671 c 128,-1,13
 2 684 2 684 4 697 c 1,14,15
 40 704 40 704 74.5 702.5 c 128,-1,16
 109 701 109 701 147 707 c 1,17,-1
 145 682 l 1,18,-1
 149 579 l 1,19,-1
 120 497 l 1,0,-1
EndSplineSet
EndChar

StartChar: parenleft
Encoding: 40 40 19
Width: 483
Flags: W
LayerCount: 2
Fore
SplineSet
425 747 m 1,0,1
 424 747 424 747 421 734 c 128,-1,2
 418 721 418 721 414.5 702 c 128,-1,3
 411 683 411 683 407.5 660.5 c 128,-1,4
 404 638 404 638 400.5 619 c 128,-1,5
 397 600 397 600 394.5 587 c 128,-1,6
 392 574 392 574 391 574 c 0,7,8
 382 572 382 572 371 567.5 c 128,-1,9
 360 563 360 563 350.5 555.5 c 128,-1,10
 341 548 341 548 335 539 c 128,-1,11
 329 530 329 530 331 521 c 1,12,13
 326 496 326 496 320.5 462.5 c 128,-1,14
 315 429 315 429 309 390.5 c 128,-1,15
 303 352 303 352 297 311.5 c 128,-1,16
 291 271 291 271 285 232.5 c 128,-1,17
 279 194 279 194 274 160.5 c 128,-1,18
 269 127 269 127 266 103 c 1,19,20
 269 97 269 97 276 94 c 128,-1,21
 283 91 283 91 290.5 88.5 c 128,-1,22
 298 86 298 86 303 83.5 c 128,-1,23
 308 81 308 81 307 78 c 0,24,25
 305 71 305 71 299.5 43.5 c 128,-1,26
 294 16 294 16 287 -15 c 0,27,28
 279 -51 279 -51 270 -95 c 1,29,30
 238 -90 238 -90 210 -84 c 0,31,32
 186 -79 186 -79 160.5 -70.5 c 128,-1,33
 135 -62 135 -62 120 -49 c 0,34,35
 99 -32 99 -32 90.5 -4 c 128,-1,36
 82 24 82 24 82 58 c 128,-1,37
 82 92 82 92 88 130 c 128,-1,38
 94 168 94 168 101.5 204 c 128,-1,39
 109 240 109 240 116.5 271.5 c 128,-1,40
 124 303 124 303 126 326 c 1,41,-1
 124 331 l 1,42,43
 135 365 135 365 140.5 405.5 c 128,-1,44
 146 446 146 446 152.5 487.5 c 128,-1,45
 159 529 159 529 167.5 569.5 c 128,-1,46
 176 610 176 610 193.5 645 c 128,-1,47
 211 680 211 680 238.5 706.5 c 128,-1,48
 266 733 266 733 310 746 c 0,49,50
 335 754 335 754 365.5 752 c 128,-1,51
 396 750 396 750 425 747 c 1,0,1
107 332 m 1,52,-1
 104 333 l 1,53,-1
 104 335 l 1,54,-1
 108 334 l 1,55,-1
 107 332 l 1,52,-1
184 478 m 1,56,57
 181 479 181 479 179 477 c 1,58,-1
 183 474 l 1,59,-1
 184 478 l 1,56,57
EndSplineSet
EndChar

StartChar: parenright
Encoding: 41 41 20
Width: 414
Flags: W
LayerCount: 2
Fore
SplineSet
355 687 m 1,0,1
 377 646 377 646 378 600.5 c 128,-1,2
 379 555 379 555 371 508.5 c 128,-1,3
 363 462 363 462 351 416 c 128,-1,4
 339 370 339 370 335 328 c 0,5,6
 331 289 331 289 321.5 234 c 128,-1,7
 312 179 312 179 295 124 c 128,-1,8
 278 69 278 69 253 22 c 128,-1,9
 228 -25 228 -25 194 -46 c 0,10,11
 179 -55 179 -55 159 -63 c 128,-1,12
 139 -71 139 -71 117 -76.5 c 128,-1,13
 95 -82 95 -82 74 -86 c 128,-1,14
 53 -90 53 -90 37 -92 c 0,15,16
 35 -92 35 -92 38 -79 c 128,-1,17
 41 -66 41 -66 45 -46.5 c 128,-1,18
 49 -27 49 -27 55 -3.5 c 128,-1,19
 61 20 61 20 65 39.5 c 128,-1,20
 69 59 69 59 71.5 72.5 c 128,-1,21
 74 86 74 86 73 86 c 1,22,23
 80 87 80 87 89 89.5 c 128,-1,24
 98 92 98 92 107 95 c 128,-1,25
 116 98 116 98 124 102.5 c 128,-1,26
 132 107 132 107 136 112 c 1,27,28
 147 147 147 147 157.5 205 c 128,-1,29
 168 263 168 263 177.5 326 c 128,-1,30
 187 389 187 389 195 447 c 128,-1,31
 203 505 203 505 209 540 c 1,32,-1
 176 569 l 2,33,34
 175 571 175 571 178 585.5 c 128,-1,35
 181 600 181 600 185.5 620 c 128,-1,36
 190 640 190 640 195.5 663.5 c 128,-1,37
 201 687 201 687 205 706.5 c 128,-1,38
 209 726 209 726 210.5 739.5 c 128,-1,39
 212 753 212 753 210 753 c 1,40,41
 252 749 252 749 290.5 733 c 128,-1,42
 329 717 329 717 355 687 c 1,0,1
EndSplineSet
EndChar

StartChar: plus
Encoding: 43 43 21
Width: 722
Flags: W
LayerCount: 2
Fore
SplineSet
485 232 m 1,0,-1
 485 0 l 1,1,-1
 348 0 l 1,2,-1
 348 232 l 1,3,-1
 124 232 l 1,4,-1
 124 365 l 1,5,-1
 348 365 l 1,6,-1
 348 596 l 1,7,-1
 485 596 l 1,8,-1
 485 365 l 1,9,-1
 709 365 l 1,10,-1
 709 232 l 1,11,-1
 485 232 l 1,0,-1
EndSplineSet
EndChar

StartChar: comma
Encoding: 44 44 22
Width: 316
Flags: W
LayerCount: 2
Fore
SplineSet
235 -48 m 1,0,-1
 201 -113 l 1,1,-1
 149 -120 l 1,2,-1
 112 -116 l 1,3,-1
 136 -1 l 1,4,5
 113 -2 113 -2 89.5 -2 c 128,-1,6
 66 -2 66 -2 42 -2 c 1,7,-1
 46 106 l 1,8,-1
 49 106 l 1,9,10
 49 119 49 119 50 132 c 128,-1,11
 51 145 51 145 53 158 c 1,12,13
 100 165 100 165 143.5 163.5 c 128,-1,14
 187 162 187 162 236 168 c 1,15,-1
 234 143 l 1,16,-1
 252 48 l 1,17,-1
 235 -48 l 1,0,-1
EndSplineSet
EndChar

StartChar: hyphen
Encoding: 45 45 23
AltUni2: 0000ad.ffffffff.0 0000ad.ffffffff.0
Width: 369
Flags: W
LayerCount: 2
Fore
SplineSet
342 336 m 1,0,1
 334 299 334 299 327 262.5 c 128,-1,2
 320 226 320 226 312 188 c 1,3,4
 293 188 293 188 255.5 188.5 c 128,-1,5
 218 189 218 189 177 189.5 c 128,-1,6
 136 190 136 190 98 189.5 c 128,-1,7
 60 189 60 189 41 188 c 1,8,9
 41 186 41 186 44 196 c 128,-1,10
 47 206 47 206 51 223 c 128,-1,11
 55 240 55 240 59.5 260 c 128,-1,12
 64 280 64 280 68 296.5 c 128,-1,13
 72 313 72 313 75.5 324 c 128,-1,14
 79 335 79 335 80 333 c 1,15,16
 81 334 81 334 101 334.5 c 128,-1,17
 121 335 121 335 144 335 c 128,-1,18
 167 335 167 335 187 334.5 c 128,-1,19
 207 334 207 334 209 334 c 0,20,21
 238 333 238 333 275 335 c 128,-1,22
 312 337 312 337 342 336 c 1,0,1
EndSplineSet
EndChar

StartChar: period
Encoding: 46 46 24
Width: 316
Flags: W
LayerCount: 2
Fore
SplineSet
249 156 m 1,0,1
 245 120 245 120 243 96 c 128,-1,2
 241 72 241 72 239 52 c 2,3,-1
 235 -12 l 1,4,5
 188 -14 188 -14 144.5 -13.5 c 128,-1,6
 101 -13 101 -13 55 -14 c 1,7,-1
 59 94 l 1,8,-1
 61 94 l 1,9,10
 61 107 61 107 62 120 c 128,-1,11
 63 133 63 133 66 146 c 1,12,13
 112 153 112 153 156 151.5 c 128,-1,14
 200 150 200 150 249 156 c 1,0,1
EndSplineSet
EndChar

StartChar: slash
Encoding: 47 47 25
Width: 288
Flags: W
LayerCount: 2
Fore
SplineSet
309 738 m 1,0,1
 300 682 300 682 287.5 627.5 c 128,-1,2
 275 573 275 573 262 518 c 2,3,-1
 127 -72 l 1,4,5
 90 -68 90 -68 53 -65.5 c 128,-1,6
 16 -63 16 -63 -21 -58 c 1,7,8
 -12 -10 -12 -10 -2.5 39.5 c 128,-1,9
 7 89 7 89 21 134 c 1,10,-1
 21 148 l 1,11,-1
 142 691 l 1,12,-1
 144 691 l 1,13,14
 147 719 147 719 155 745 c 1,15,16
 192 747 192 747 231 742.5 c 128,-1,17
 270 738 270 738 309 738 c 1,0,1
126 303 m 1,18,-1
 125 301 l 1,19,-1
 129 296 l 1,20,-1
 130 298 l 1,21,-1
 126 303 l 1,18,-1
157 189 m 1,22,-1
 156 187 l 1,23,-1
 159 184 l 1,24,-1
 159 185 l 1,25,-1
 157 189 l 1,22,-1
EndSplineSet
EndChar

StartChar: zero
Encoding: 48 48 26
Width: 655
Flags: W
LayerCount: 2
Fore
SplineSet
598 624 m 1,0,1
 600 597 600 597 596 570 c 128,-1,2
 592 543 592 543 584.5 516 c 128,-1,3
 577 489 577 489 568.5 462.5 c 128,-1,4
 560 436 560 436 553 409 c 2,5,-1
 502 211 l 2,6,7
 496 188 496 188 488 165 c 128,-1,8
 480 142 480 142 468 121.5 c 128,-1,9
 456 101 456 101 438.5 84 c 128,-1,10
 421 67 421 67 397 56 c 0,11,12
 362 41 362 41 324 33.5 c 128,-1,13
 286 26 286 26 248.5 28 c 128,-1,14
 211 30 211 30 175.5 42.5 c 128,-1,15
 140 55 140 55 110 81 c 1,16,17
 102 90 102 90 93 101 c 128,-1,18
 84 112 84 112 77 123.5 c 128,-1,19
 70 135 70 135 67.5 147.5 c 128,-1,20
 65 160 65 160 70 172 c 1,21,22
 64 196 64 196 74 223 c 1,23,24
 92 308 92 308 114.5 387.5 c 128,-1,25
 137 467 137 467 153 554 c 1,26,27
 169 595 169 595 196 630.5 c 128,-1,28
 223 666 223 666 264 689 c 1,29,-1
 263 691 l 1,30,31
 310 720 310 720 360 731 c 128,-1,32
 410 742 410 742 459 733 c 1,33,34
 463 738 463 738 468.5 734.5 c 128,-1,35
 474 731 474 731 479 733 c 1,36,37
 521 719 521 719 553.5 693 c 128,-1,38
 586 667 586 667 598 624 c 1,0,1
455 718 m 1,39,-1
 452 719 l 1,40,-1
 452 717 l 1,41,-1
 455 716 l 1,42,-1
 455 718 l 1,39,-1
261 661 m 1,43,44
 261 659 261 659 266 657 c 128,-1,45
 271 655 271 655 264 658 c 1,46,-1
 261 661 l 1,43,44
407 528 m 1,47,48
 400 530 400 530 390.5 537 c 128,-1,49
 381 544 381 544 370 542 c 0,50,51
 348 539 348 539 337 519.5 c 128,-1,52
 326 500 326 500 321 480 c 0,53,54
 307 424 307 424 295.5 366 c 128,-1,55
 284 308 284 308 266 250 c 1,56,57
 268 244 268 244 272 238 c 128,-1,58
 276 232 276 232 283 230 c 0,59,60
 295 226 295 226 306 231.5 c 128,-1,61
 317 237 317 237 328 242 c 1,62,-1
 384 442 l 1,63,64
 386 463 386 463 394 485.5 c 128,-1,65
 402 508 402 508 407 528 c 1,47,48
166 164 m 1,66,-1
 162 165 l 1,67,-1
 162 163 l 1,68,-1
 166 161 l 1,69,-1
 166 164 l 1,66,-1
EndSplineSet
EndChar

StartChar: one
Encoding: 49 49 27
Width: 495
Flags: W
LayerCount: 2
Fore
SplineSet
384 345 m 1,0,-1
 337 128 l 2,1,2
 330 97 330 97 324.5 65.5 c 128,-1,3
 319 34 319 34 309 5 c 1,4,-1
 125 1 l 1,5,6
 140 107 140 107 162 224 c 128,-1,7
 184 341 184 341 200 455 c 1,8,-1
 184 455 l 1,9,10
 149 444 149 444 113.5 432 c 128,-1,11
 78 420 78 420 43 408 c 1,12,13
 56 447 56 447 62 488.5 c 128,-1,14
 68 530 68 530 78 571 c 1,15,16
 110 597 110 597 143 620 c 128,-1,17
 176 643 176 643 208 669 c 1,18,-1
 210 667 l 1,19,20
 226 681 226 681 244.5 697.5 c 128,-1,21
 263 714 263 714 288 714 c 2,22,-1
 449 714 l 1,23,-1
 384 345 l 1,0,-1
312 10 m 1,24,-1
 309 10 l 1,25,-1
 309 15 l 1,26,-1
 312 15 l 1,27,-1
 312 10 l 1,24,-1
EndSplineSet
EndChar

StartChar: two
Encoding: 50 50 28
Width: 627
Flags: W
LayerCount: 2
Fore
SplineSet
580 501 m 0,0,1
 566 460 566 460 538.5 425.5 c 128,-1,2
 511 391 511 391 479 359 c 128,-1,3
 447 327 447 327 414.5 294.5 c 128,-1,4
 382 262 382 262 359 225 c 0,5,6
 351 214 351 214 350 201 c 128,-1,7
 349 188 349 188 343 177 c 1,8,9
 388 178 388 178 433.5 186.5 c 128,-1,10
 479 195 479 195 524 203 c 1,11,12
 511 159 511 159 504 112.5 c 128,-1,13
 497 66 497 66 488 21 c 1,14,15
 443 22 443 22 402.5 21 c 128,-1,16
 362 20 362 20 319 19 c 2,17,-1
 91 16 l 1,18,-1
 65 14 l 1,19,20
 68 55 68 55 80.5 94 c 128,-1,21
 93 133 93 133 113 167 c 1,22,23
 114 175 114 175 119.5 183 c 128,-1,24
 125 191 125 191 127 200 c 1,25,26
 219 356 219 356 379 469 c 1,27,28
 394 483 394 483 406.5 500.5 c 128,-1,29
 419 518 419 518 412 539 c 0,30,31
 408 550 408 550 398 555 c 128,-1,32
 388 560 388 560 379 565 c 1,33,34
 367 568 367 568 357 565 c 128,-1,35
 347 562 347 562 338 555.5 c 128,-1,36
 329 549 329 549 321 540.5 c 128,-1,37
 313 532 313 532 307 524 c 1,38,39
 300 512 300 512 295.5 500 c 128,-1,40
 291 488 291 488 287 474 c 1,41,42
 252 494 252 494 217.5 512 c 128,-1,43
 183 530 183 530 149 552 c 1,44,45
 152 583 152 583 167 611 c 128,-1,46
 182 639 182 639 203.5 661.5 c 128,-1,47
 225 684 225 684 251 700 c 128,-1,48
 277 716 277 716 303 724 c 0,49,50
 317 728 317 728 327.5 728.5 c 128,-1,51
 338 729 338 729 353 734 c 1,52,53
 398 739 398 739 442.5 731 c 128,-1,54
 487 723 487 723 522 694 c 1,55,-1
 524 696 l 1,56,57
 546 680 546 680 561 657.5 c 128,-1,58
 576 635 576 635 583 608.5 c 128,-1,59
 590 582 590 582 589.5 554.5 c 128,-1,60
 589 527 589 527 580 501 c 0,0,1
488 679 m 1,61,-1
 484 654 l 1,62,-1
 488 679 l 1,61,-1
348 705 m 1,63,-1
 346 705 l 1,64,-1
 346 701 l 1,65,-1
 348 701 l 1,66,-1
 348 705 l 1,63,-1
421 342 m 1,67,-1
 421 338 l 1,68,-1
 422 338 l 1,69,-1
 423 342 l 1,70,-1
 421 342 l 1,67,-1
EndSplineSet
EndChar

StartChar: three
Encoding: 51 51 29
Width: 645
Flags: W
LayerCount: 2
Fore
SplineSet
258 719 m 1,0,-1
 258 723 l 1,1,-1
 261 723 l 1,2,-1
 261 719 l 1,3,-1
 258 719 l 1,0,-1
542 726 m 1,4,5
 537 686 537 686 533 642 c 128,-1,6
 529 598 529 598 526 560 c 1,7,8
 504 543 504 543 483 526 c 128,-1,9
 462 509 462 509 440 495 c 1,10,11
 464 487 464 487 484.5 467.5 c 128,-1,12
 505 448 505 448 507 422 c 1,13,-1
 474 161 l 1,14,15
 469 137 469 137 456 114.5 c 128,-1,16
 443 92 443 92 424.5 73.5 c 128,-1,17
 406 55 406 55 383.5 41.5 c 128,-1,18
 361 28 361 28 336 23 c 0,19,20
 309 17 309 17 277 13 c 128,-1,21
 245 9 245 9 213.5 11 c 128,-1,22
 182 13 182 13 153.5 23.5 c 128,-1,23
 125 34 125 34 104 57 c 0,24,25
 86 76 86 76 81 100 c 128,-1,26
 76 124 76 124 77.5 148.5 c 128,-1,27
 79 173 79 173 83.5 198 c 128,-1,28
 88 223 88 223 91 246 c 1,29,30
 125 251 125 251 163 252.5 c 128,-1,31
 201 254 201 254 237 259 c 1,32,33
 235 242 235 242 233 223 c 128,-1,34
 231 204 231 204 247 193 c 1,35,36
 256 185 256 185 265.5 189.5 c 128,-1,37
 275 194 275 194 286 194 c 1,38,-1
 313 219 l 1,39,40
 314 234 314 234 319 252.5 c 128,-1,41
 324 271 324 271 327 289.5 c 128,-1,42
 330 308 330 308 328 325 c 128,-1,43
 326 342 326 342 314 356 c 1,44,45
 292 367 292 367 268.5 362.5 c 128,-1,46
 245 358 245 358 227 344 c 1,47,-1
 118 429 l 1,48,49
 153 461 153 461 190 491 c 128,-1,50
 227 521 227 521 262 556 c 1,51,52
 229 552 229 552 193.5 548 c 128,-1,53
 158 544 158 544 123 541 c 1,54,-1
 128 590 l 1,55,-1
 130 587 l 1,56,57
 131 589 131 589 132 589 c 128,-1,58
 133 589 133 589 132 591 c 0,59,60
 126 597 126 597 130 607.5 c 128,-1,61
 134 618 134 618 133 629 c 1,62,63
 138 652 138 652 138.5 674 c 128,-1,64
 139 696 139 696 148 716 c 1,65,66
 148 720 148 720 144 718 c 1,67,-1
 362 722 l 2,68,69
 406 723 406 723 450 725.5 c 128,-1,70
 494 728 494 728 542 726 c 1,4,5
529 613 m 1,71,-1
 526 613 l 1,72,-1
 526 609 l 1,73,-1
 529 609 l 1,74,-1
 529 613 l 1,71,-1
440 491 m 1,75,-1
 438 489 l 1,76,-1
 440 491 l 1,75,-1
EndSplineSet
EndChar

StartChar: four
Encoding: 52 52 30
Width: 618
Flags: W
LayerCount: 2
Fore
SplineSet
518 573 m 1,0,-1
 477 291 l 2,1,2
 476 289 476 289 477 287 c 128,-1,3
 478 285 478 285 476 284 c 1,4,-1
 479 280 l 1,5,-1
 538 280 l 1,6,-1
 521 171 l 1,7,-1
 456 172 l 1,8,9
 446 138 446 138 441 102.5 c 128,-1,10
 436 67 436 67 428 32 c 1,11,12
 380 30 380 30 336.5 30 c 128,-1,13
 293 30 293 30 246 25 c 1,14,15
 251 58 251 58 256 90 c 128,-1,16
 261 122 261 122 266 157 c 1,17,-1
 262 161 l 1,18,19
 200 162 200 162 143.5 159 c 128,-1,20
 87 156 87 156 25 154 c 1,21,22
 25 193 25 193 32.5 232 c 128,-1,23
 40 271 40 271 45 310 c 1,24,-1
 245 575 l 2,25,26
 271 609 271 609 294.5 641 c 128,-1,27
 318 673 318 673 342 704 c 1,28,-1
 384 703 l 1,29,-1
 544 714 l 1,30,-1
 518 573 l 1,0,-1
507 679 m 1,31,-1
 505 679 l 1,32,-1
 505 675 l 1,33,-1
 508 675 l 1,34,-1
 507 679 l 1,31,-1
479 541 m 1,35,-1
 478 541 l 1,36,-1
 478 537 l 1,37,-1
 480 537 l 1,38,-1
 479 541 l 1,35,-1
210 300 m 1,39,40
 224 298 224 298 247 300.5 c 128,-1,41
 270 303 270 303 288 303 c 1,42,43
 289 332 289 332 293.5 360.5 c 128,-1,44
 298 389 298 389 300 415 c 1,45,-1
 210 300 l 1,39,40
415 135 m 1,46,-1
 413 135 l 1,47,-1
 414 132 l 1,48,-1
 415 132 l 1,49,-1
 415 135 l 1,46,-1
EndSplineSet
EndChar

StartChar: five
Encoding: 53 53 31
Width: 645
Flags: W
LayerCount: 2
Fore
SplineSet
532 581 m 1,0,1
 481 578 481 578 428.5 574.5 c 128,-1,2
 376 571 376 571 322 571 c 1,3,4
 315 560 315 560 315 547 c 128,-1,5
 315 534 315 534 312 522 c 1,6,-1
 316 518 l 1,7,8
 337 524 337 524 360 527 c 128,-1,9
 383 530 383 530 405.5 528 c 128,-1,10
 428 526 428 526 448.5 518.5 c 128,-1,11
 469 511 469 511 485 496 c 0,12,13
 515 469 515 469 521.5 434 c 128,-1,14
 528 399 528 399 525 361 c 128,-1,15
 522 323 522 323 515.5 284 c 128,-1,16
 509 245 509 245 512 209 c 1,17,18
 505 168 505 168 477 132 c 0,19,20
 453 101 453 101 423.5 80.5 c 128,-1,21
 394 60 394 60 361 47.5 c 128,-1,22
 328 35 328 35 291.5 29.5 c 128,-1,23
 255 24 255 24 217 24 c 1,24,25
 197 26 197 26 177 31.5 c 128,-1,26
 157 37 157 37 140 47.5 c 128,-1,27
 123 58 123 58 110 73 c 128,-1,28
 97 88 97 88 91 108 c 1,29,30
 89 144 89 144 93 176 c 128,-1,31
 97 208 97 208 99 241 c 1,32,33
 137 250 137 250 177.5 255.5 c 128,-1,34
 218 261 218 261 256 268 c 1,35,36
 256 258 256 258 254.5 248.5 c 128,-1,37
 253 239 253 239 253.5 230.5 c 128,-1,38
 254 222 254 222 258 214.5 c 128,-1,39
 262 207 262 207 273 202 c 1,40,41
 283 200 283 200 291.5 202.5 c 128,-1,42
 300 205 300 205 307 211 c 128,-1,43
 314 217 314 217 319.5 224 c 128,-1,44
 325 231 325 231 330 238 c 1,45,46
 335 264 335 264 339 287.5 c 128,-1,47
 343 311 343 311 346 338 c 0,48,49
 347 349 347 349 340.5 358.5 c 128,-1,50
 334 368 334 368 325 373 c 1,51,52
 311 378 311 378 299 374.5 c 128,-1,53
 287 371 287 371 277 363 c 1,54,55
 269 359 269 359 266 352 c 128,-1,56
 263 345 263 345 260 339 c 128,-1,57
 257 333 257 333 252 329 c 128,-1,58
 247 325 247 325 236 328 c 1,59,60
 205 326 205 326 173 322.5 c 128,-1,61
 141 319 141 319 107 314 c 1,62,63
 110 417 110 417 120.5 519.5 c 128,-1,64
 131 622 131 622 136 726 c 1,65,-1
 182 730 l 1,66,-1
 422 740 l 1,67,68
 450 744 450 744 478.5 745 c 128,-1,69
 507 746 507 746 536 748 c 1,70,-1
 540 740 l 1,71,-1
 532 581 l 1,0,1
495 170 m 1,72,-1
 493 170 l 1,73,-1
 493 166 l 1,74,-1
 495 166 l 1,75,-1
 495 170 l 1,72,-1
400 99 m 1,76,-1
 399 99 l 1,77,-1
 399 95 l 1,78,-1
 400 95 l 1,79,-1
 400 99 l 1,76,-1
242 255 m 1,80,-1
 240 255 l 1,81,-1
 240 251 l 1,82,-1
 242 251 l 1,83,-1
 242 255 l 1,80,-1
252 234 m 1,84,-1
 250 234 l 1,85,-1
 250 232 l 1,86,-1
 252 232 l 1,87,-1
 252 234 l 1,84,-1
EndSplineSet
EndChar

StartChar: six
Encoding: 54 54 32
Width: 618
Flags: W
LayerCount: 2
Fore
SplineSet
419 487 m 1,0,1
 421 498 421 498 421.5 510.5 c 128,-1,2
 422 523 422 523 418 535 c 1,3,4
 412 540 412 540 405 546 c 128,-1,5
 398 552 398 552 390 554 c 1,6,7
 374 555 374 555 360.5 549 c 128,-1,8
 347 543 347 543 339 529 c 1,9,10
 328 498 328 498 324 465 c 128,-1,11
 320 432 320 432 316 399 c 1,12,13
 342 405 342 405 371 407 c 128,-1,14
 400 409 400 409 427.5 404.5 c 128,-1,15
 455 400 455 400 480 386.5 c 128,-1,16
 505 373 505 373 523 348 c 1,17,18
 533 330 533 330 534.5 310 c 128,-1,19
 536 290 536 290 532.5 269.5 c 128,-1,20
 529 249 529 249 524 228 c 128,-1,21
 519 207 519 207 517 188 c 1,22,23
 511 164 511 164 498 141 c 128,-1,24
 485 118 485 118 466.5 98.5 c 128,-1,25
 448 79 448 79 425.5 64 c 128,-1,26
 403 49 403 49 380 41 c 0,27,28
 325 22 325 22 263 26 c 128,-1,29
 201 30 201 30 151 56 c 1,30,31
 118 85 118 85 107 126.5 c 128,-1,32
 96 168 96 168 106 210 c 0,33,34
 107 212 107 212 109 219 c 128,-1,35
 111 226 111 226 110 233 c 1,36,37
 119 276 119 276 125 321 c 128,-1,38
 131 366 131 366 137.5 411.5 c 128,-1,39
 144 457 144 457 152 502.5 c 128,-1,40
 160 548 160 548 173 592 c 1,41,42
 193 631 193 631 223 657 c 128,-1,43
 253 683 253 683 289 697.5 c 128,-1,44
 325 712 325 712 366 715.5 c 128,-1,45
 407 719 407 719 449 713 c 0,46,47
 481 708 481 708 510.5 689.5 c 128,-1,48
 540 671 540 671 558 642 c 0,49,50
 568 626 568 626 571 608.5 c 128,-1,51
 574 591 574 591 573.5 572.5 c 128,-1,52
 573 554 573 554 570 535.5 c 128,-1,53
 567 517 567 517 566 499 c 1,54,-1
 419 487 l 1,0,1
317 397 m 1,55,-1
 316 397 l 1,56,-1
 316 402 l 1,57,-1
 317 402 l 1,58,-1
 317 397 l 1,55,-1
316 386 m 1,59,-1
 313 386 l 1,60,-1
 313 378 l 1,61,-1
 316 378 l 1,62,-1
 316 386 l 1,59,-1
384 274 m 1,63,64
 374 292 374 292 359 304 c 1,65,66
 344 307 344 307 329 308 c 128,-1,67
 314 309 314 309 300 301 c 1,68,69
 300 289 300 289 296 277.5 c 128,-1,70
 292 266 292 266 290 254 c 128,-1,71
 288 242 288 242 288.5 230 c 128,-1,72
 289 218 289 218 298 207 c 1,73,74
 309 198 309 198 325.5 197 c 128,-1,75
 342 196 342 196 356 201 c 1,76,77
 394 227 394 227 384 274 c 1,63,64
445 108 m 1,78,-1
 443 108 l 1,79,-1
 443 103 l 1,80,-1
 445 103 l 1,81,-1
 445 108 l 1,78,-1
EndSplineSet
EndChar

StartChar: seven
Encoding: 55 55 33
Width: 626
Flags: W
LayerCount: 2
Fore
SplineSet
532 741 m 1,0,1
 533 705 533 705 533 668.5 c 128,-1,2
 533 632 533 632 529.5 596.5 c 128,-1,3
 526 561 526 561 517.5 526.5 c 128,-1,4
 509 492 509 492 493 461 c 2,5,-1
 395 267 l 2,6,7
 368 213 368 213 354.5 155 c 128,-1,8
 341 97 341 97 332 37 c 1,9,-1
 101 35 l 1,10,11
 103 43 103 43 104.5 50 c 128,-1,12
 106 57 106 57 108 65 c 0,13,14
 130 158 130 158 175 246 c 128,-1,15
 220 334 220 334 275 412 c 1,16,17
 285 431 285 431 294.5 450 c 128,-1,18
 304 469 304 469 312 488.5 c 128,-1,19
 320 508 320 508 324.5 528.5 c 128,-1,20
 329 549 329 549 328 571 c 1,21,-1
 317 575 l 1,22,23
 265 572 265 572 212.5 569 c 128,-1,24
 160 566 160 566 114 568 c 1,25,26
 125 611 125 611 136 652.5 c 128,-1,27
 147 694 147 694 162 736 c 1,28,-1
 161 743 l 1,29,30
 257 745 257 745 347.5 744.5 c 128,-1,31
 438 744 438 744 532 741 c 1,0,1
373 419 m 1,32,-1
 370 418 l 1,33,-1
 371 414 l 1,34,-1
 373 414 l 1,35,-1
 373 419 l 1,32,-1
280 413 m 1,36,-1
 278 413 l 1,37,-1
 277 417 l 1,38,-1
 280 417 l 1,39,-1
 280 413 l 1,36,-1
EndSplineSet
EndChar

StartChar: eight
Encoding: 56 56 34
Width: 633
Flags: W
LayerCount: 2
Fore
SplineSet
586 612 m 0,0,1
 584 565 584 565 577 519 c 128,-1,2
 570 473 570 473 563 426 c 1,3,4
 554 403 554 403 537 386 c 128,-1,5
 520 369 520 369 501 354 c 1,6,7
 508 345 508 345 515.5 336.5 c 128,-1,8
 523 328 523 328 528 316 c 1,9,10
 534 292 534 292 536.5 264.5 c 128,-1,11
 539 237 539 237 536.5 209.5 c 128,-1,12
 534 182 534 182 524 156.5 c 128,-1,13
 514 131 514 131 494 112 c 1,14,15
 468 80 468 80 434.5 58.5 c 128,-1,16
 401 37 401 37 363.5 26.5 c 128,-1,17
 326 16 326 16 286 17 c 128,-1,18
 246 18 246 18 207 30 c 0,19,20
 181 38 181 38 156.5 56 c 128,-1,21
 132 74 132 74 124 102 c 0,22,23
 117 126 117 126 116 151 c 128,-1,24
 115 176 115 176 117 200.5 c 128,-1,25
 119 225 119 225 122.5 249.5 c 128,-1,26
 126 274 126 274 128 297 c 1,27,28
 134 320 134 320 150.5 340.5 c 128,-1,29
 167 361 167 361 187 375 c 1,30,31
 176 392 176 392 164.5 408 c 128,-1,32
 153 424 153 424 151 445 c 0,33,34
 150 465 150 465 149.5 486 c 128,-1,35
 149 507 149 507 151 527.5 c 128,-1,36
 153 548 153 548 158.5 567 c 128,-1,37
 164 586 164 586 175 602 c 0,38,39
 185 617 185 617 198.5 631 c 128,-1,40
 212 645 212 645 227 657 c 128,-1,41
 242 669 242 669 258 677.5 c 128,-1,42
 274 686 274 686 291 689 c 1,43,44
 298 696 298 696 312 699.5 c 128,-1,45
 326 703 326 703 337 708 c 1,46,47
 374 715 374 715 404.5 718 c 128,-1,48
 435 721 435 721 473 710 c 0,49,50
 478 708 478 708 487 705.5 c 128,-1,51
 496 703 496 703 504 700 c 0,52,53
 517 694 517 694 532 686 c 128,-1,54
 547 678 547 678 559 667 c 128,-1,55
 571 656 571 656 579 642 c 128,-1,56
 587 628 587 628 586 612 c 0,0,1
408 511 m 1,57,58
 403 523 403 523 393 527.5 c 128,-1,59
 383 532 383 532 372 530.5 c 128,-1,60
 361 529 361 529 350 524 c 128,-1,61
 339 519 339 519 332 512 c 1,62,63
 319 494 319 494 321 471.5 c 128,-1,64
 323 449 323 449 334 432 c 1,65,66
 340 431 340 431 345.5 433 c 128,-1,67
 351 435 351 435 356 437 c 128,-1,68
 361 439 361 439 366.5 441 c 128,-1,69
 372 443 372 443 379 442 c 1,70,71
 399 448 399 448 403.5 470 c 128,-1,72
 408 492 408 492 408 511 c 1,57,58
365 266 m 2,73,74
 363 279 363 279 357 282 c 128,-1,75
 351 285 351 285 343 283.5 c 128,-1,76
 335 282 335 282 326 278.5 c 128,-1,77
 317 275 317 275 310 275 c 1,78,79
 295 270 295 270 291.5 256.5 c 128,-1,80
 288 243 288 243 283 232 c 0,81,82
 279 221 279 221 282 209 c 128,-1,83
 285 197 285 197 295 189 c 1,84,85
 303 181 303 181 313 179.5 c 128,-1,86
 323 178 323 178 334 181 c 0,87,88
 354 188 354 188 360.5 206.5 c 128,-1,89
 367 225 367 225 369 244 c 1,90,-1
 365 266 l 2,73,74
EndSplineSet
EndChar

StartChar: nine
Encoding: 57 57 35
Width: 633
Flags: W
LayerCount: 2
Fore
SplineSet
492 264 m 2,0,1
 487 237 487 237 478.5 208.5 c 128,-1,2
 470 180 470 180 456.5 154.5 c 128,-1,3
 443 129 443 129 424 108.5 c 128,-1,4
 405 88 405 88 378 78 c 1,5,6
 370 77 370 77 363 70.5 c 128,-1,7
 356 64 356 64 348 67 c 1,8,-1
 350 65 l 1,9,10
 323 57 323 57 292 53 c 128,-1,11
 261 49 261 49 230.5 50.5 c 128,-1,12
 200 52 200 52 171 59.5 c 128,-1,13
 142 67 142 67 119 83 c 1,14,-1
 87 118 l 1,15,16
 79 137 79 137 79 156 c 128,-1,17
 79 175 79 175 82.5 194.5 c 128,-1,18
 86 214 86 214 90 233.5 c 128,-1,19
 94 253 94 253 96 273 c 1,20,21
 128 281 128 281 165 282 c 128,-1,22
 202 283 202 283 240 286 c 1,23,24
 238 279 238 279 236 270.5 c 128,-1,25
 234 262 234 262 233.5 253.5 c 128,-1,26
 233 245 233 245 235.5 237 c 128,-1,27
 238 229 238 229 244 223 c 0,28,29
 252 215 252 215 263.5 214.5 c 128,-1,30
 275 214 275 214 286 216 c 1,31,32
 297 221 297 221 307.5 228 c 128,-1,33
 318 235 318 235 322 246 c 1,34,-1
 341 382 l 1,35,36
 324 377 324 377 304 373.5 c 128,-1,37
 284 370 284 370 263 368.5 c 128,-1,38
 242 367 242 367 221 369.5 c 128,-1,39
 200 372 200 372 182 380 c 0,40,41
 159 391 159 391 143 409 c 128,-1,42
 127 427 127 427 120 450 c 1,43,44
 127 481 127 481 130.5 513 c 128,-1,45
 134 545 134 545 142 576 c 128,-1,46
 150 607 150 607 165.5 634.5 c 128,-1,47
 181 662 181 662 211 683 c 0,48,49
 238 702 238 702 270.5 716 c 128,-1,50
 303 730 303 730 337.5 736 c 128,-1,51
 372 742 372 742 407.5 739 c 128,-1,52
 443 736 443 736 476 723 c 0,53,54
 502 712 502 712 523 690.5 c 128,-1,55
 544 669 544 669 552 642 c 1,56,-1
 557 599 l 1,57,-1
 492 264 l 2,0,1
283 601 m 1,58,-1
 277 605 l 1,59,-1
 283 601 l 1,58,-1
366 548 m 0,60,61
 364 557 364 557 357 563 c 128,-1,62
 350 569 350 569 342 574 c 1,63,64
 325 576 325 576 314 576 c 128,-1,65
 303 576 303 576 292 562 c 256,66,67
 281 548 281 548 277 532 c 128,-1,68
 273 516 273 516 281 499 c 1,69,70
 292 479 292 479 312.5 474 c 128,-1,71
 333 469 333 469 354 471 c 1,72,73
 354 481 354 481 357.5 490 c 128,-1,74
 361 499 361 499 364 508 c 128,-1,75
 367 517 367 517 368 526.5 c 128,-1,76
 369 536 369 536 366 548 c 0,60,61
190 639 m 1,77,-1
 188 639 l 1,78,-1
 188 635 l 1,79,-1
 190 635 l 1,80,-1
 190 639 l 1,77,-1
353 457 m 1,81,-1
 351 457 l 1,82,-1
 351 453 l 1,83,-1
 353 453 l 1,84,-1
 353 457 l 1,81,-1
349 445 m 1,85,-1
 347 436 l 1,86,-1
 349 440 l 1,87,-1
 349 445 l 1,85,-1
347 430 m 1,88,-1
 346 430 l 1,89,-1
 346 426 l 1,90,-1
 347 426 l 1,91,-1
 347 430 l 1,88,-1
346 426 m 1,92,-1
 344 426 l 1,93,-1
 344 422 l 1,94,-1
 346 422 l 1,95,-1
 346 426 l 1,92,-1
344 412 m 1,96,-1
 342 412 l 1,97,-1
 342 408 l 1,98,-1
 344 408 l 1,99,-1
 344 412 l 1,96,-1
342 402 m 1,100,-1
 341 392 l 1,101,-1
 342 402 l 1,100,-1
335 305 m 1,102,-1
 333 305 l 1,103,-1
 333 302 l 1,104,-1
 335 302 l 1,105,-1
 335 305 l 1,102,-1
EndSplineSet
EndChar

StartChar: colon
Encoding: 58 58 36
Width: 316
Flags: W
LayerCount: 2
Fore
SplineSet
279 545 m 1,0,1
 276 510 276 510 273.5 485.5 c 128,-1,2
 271 461 271 461 270 441 c 2,3,-1
 265 377 l 1,4,5
 218 375 218 375 175 375.5 c 128,-1,6
 132 376 132 376 85 375 c 1,7,-1
 90 483 l 1,8,-1
 92 483 l 1,9,10
 92 496 92 496 93 509.5 c 128,-1,11
 94 523 94 523 96 535 c 1,12,13
 143 542 143 542 186.5 540.5 c 128,-1,14
 230 539 230 539 279 545 c 1,0,1
236 168 m 1,15,16
 233 132 233 132 230.5 108 c 128,-1,17
 228 84 228 84 226 64 c 2,18,-1
 222 0 l 1,19,20
 175 -2 175 -2 132 -1.5 c 128,-1,21
 89 -1 89 -1 42 -2 c 1,22,-1
 46 106 l 1,23,-1
 49 106 l 1,24,25
 49 119 49 119 50 132 c 128,-1,26
 51 145 51 145 53 158 c 1,27,28
 100 165 100 165 143.5 163.5 c 128,-1,29
 187 162 187 162 236 168 c 1,15,16
EndSplineSet
EndChar

StartChar: semicolon
Encoding: 59 59 37
AltUni2: 00037e.ffffffff.0 00037e.ffffffff.0
Width: 316
Flags: W
LayerCount: 2
Fore
SplineSet
279 515 m 1,0,1
 276 480 276 480 273.5 455.5 c 128,-1,2
 271 431 271 431 270 411 c 2,3,-1
 265 347 l 1,4,5
 218 345 218 345 175 345.5 c 128,-1,6
 132 346 132 346 85 345 c 1,7,-1
 90 453 l 1,8,-1
 92 453 l 1,9,10
 92 466 92 466 93 479.5 c 128,-1,11
 94 493 94 493 96 505 c 1,12,13
 143 512 143 512 186.5 510.5 c 128,-1,14
 230 509 230 509 279 515 c 1,0,1
235 -48 m 1,15,-1
 201 -113 l 1,16,-1
 149 -120 l 1,17,-1
 112 -116 l 1,18,-1
 136 -1 l 1,19,20
 113 -2 113 -2 89.5 -2 c 128,-1,21
 66 -2 66 -2 42 -2 c 1,22,-1
 46 106 l 1,23,-1
 49 106 l 1,24,25
 49 119 49 119 50 132 c 128,-1,26
 51 145 51 145 53 158 c 1,27,28
 100 165 100 165 143.5 163.5 c 128,-1,29
 187 162 187 162 236 168 c 1,30,-1
 234 143 l 1,31,-1
 252 48 l 1,32,-1
 235 -48 l 1,15,-1
EndSplineSet
EndChar

StartChar: less
Encoding: 60 60 38
Width: 738
Flags: W
LayerCount: 2
Fore
SplineSet
129 230 m 1,0,-1
 129 367 l 1,1,-1
 704 605 l 1,2,-1
 704 458 l 1,3,-1
 313 298 l 1,4,-1
 704 138 l 1,5,-1
 704 -8 l 1,6,-1
 129 230 l 1,0,-1
EndSplineSet
EndChar

StartChar: equal
Encoding: 61 61 39
Width: 731
Flags: W
LayerCount: 2
Fore
SplineSet
124 347 m 1,0,-1
 124 480 l 1,1,-1
 709 480 l 1,2,-1
 709 347 l 1,3,-1
 124 347 l 1,0,-1
124 117 m 1,4,-1
 124 250 l 1,5,-1
 709 250 l 1,6,-1
 709 117 l 1,7,-1
 124 117 l 1,4,-1
EndSplineSet
EndChar

StartChar: greater
Encoding: 62 62 40
Width: 702
Flags: W
LayerCount: 2
Fore
SplineSet
129 -8 m 1,0,-1
 129 138 l 1,1,-1
 520 298 l 1,2,-1
 129 458 l 1,3,-1
 129 605 l 1,4,-1
 704 367 l 1,5,-1
 704 230 l 1,6,-1
 129 -8 l 1,0,-1
EndSplineSet
EndChar

StartChar: question
Encoding: 63 63 41
Width: 535
Flags: W
LayerCount: 2
Fore
SplineSet
497 540 m 1,0,1
 497 519 497 519 488.5 495 c 128,-1,2
 480 471 480 471 465.5 447 c 128,-1,3
 451 423 451 423 432.5 401.5 c 128,-1,4
 414 380 414 380 395 364 c 1,5,6
 369 346 369 346 352.5 335.5 c 128,-1,7
 336 325 336 325 325.5 315.5 c 128,-1,8
 315 306 315 306 308.5 293 c 128,-1,9
 302 280 302 280 296 258 c 1,10,-1
 296 244 l 2,11,12
 296 232 296 232 294 222 c 1,13,14
 295 222 295 222 292 221.5 c 128,-1,15
 289 221 289 221 285.5 221 c 128,-1,16
 282 221 282 221 279.5 221 c 128,-1,17
 277 221 277 221 278 221 c 2,18,-1
 141 216 l 1,19,20
 141 227 141 227 139 226.5 c 128,-1,21
 137 226 137 226 136 226.5 c 128,-1,22
 135 227 135 227 135.5 233.5 c 128,-1,23
 136 240 136 240 140 264 c 0,24,25
 140 268 140 268 144.5 275.5 c 128,-1,26
 149 283 149 283 145 286 c 1,27,28
 153 322 153 322 187 358 c 128,-1,29
 221 394 221 394 279 434 c 0,30,31
 291 443 291 443 298 453 c 128,-1,32
 305 463 305 463 309 474 c 128,-1,33
 313 485 313 485 314 496 c 128,-1,34
 315 507 315 507 317 518 c 1,35,36
 314 520 314 520 313.5 525 c 128,-1,37
 313 530 313 530 312.5 535.5 c 128,-1,38
 312 541 312 541 310.5 546 c 128,-1,39
 309 551 309 551 304 553 c 0,40,41
 293 556 293 556 279.5 555 c 128,-1,42
 266 554 266 554 252 546 c 1,43,44
 231 528 231 528 228 509 c 128,-1,45
 225 490 225 490 221 472 c 1,46,-1
 81 472 l 1,47,-1
 74 476 l 1,48,49
 82 500 82 500 85.5 524.5 c 128,-1,50
 89 549 89 549 95 572.5 c 128,-1,51
 101 596 101 596 113 618.5 c 128,-1,52
 125 641 125 641 149 661 c 1,53,54
 185 685 185 685 223 698 c 128,-1,55
 261 711 261 711 297 715 c 128,-1,56
 333 719 333 719 366 715 c 128,-1,57
 399 711 399 711 426 702 c 0,58,59
 475 685 475 685 489 646 c 128,-1,60
 503 607 503 607 497 540 c 1,0,1
314 163 m 1,61,62
 311 127 311 127 308.5 102 c 128,-1,63
 306 77 306 77 304 57 c 2,64,-1
 300 -8 l 1,65,66
 252 -10 252 -10 208 -9.5 c 128,-1,67
 164 -9 164 -9 116 -10 c 1,68,-1
 121 100 l 1,69,-1
 123 100 l 1,70,71
 123 113 123 113 124 126.5 c 128,-1,72
 125 140 125 140 128 153 c 1,73,74
 175 160 175 160 219.5 158.5 c 128,-1,75
 264 157 264 157 314 163 c 1,61,62
EndSplineSet
EndChar

StartChar: at
Encoding: 64 64 42
Width: 932
Flags: W
LayerCount: 2
Fore
SplineSet
888 405 m 0,0,1
 883 370 883 370 872.5 323.5 c 128,-1,2
 862 277 862 277 849.5 232.5 c 128,-1,3
 837 188 837 188 825.5 154 c 128,-1,4
 814 120 814 120 807 111 c 0,5,6
 787 83 787 83 757.5 67.5 c 128,-1,7
 728 52 728 52 698.5 45 c 128,-1,8
 669 38 669 38 645 37.5 c 128,-1,9
 621 37 621 37 612 39 c 0,10,11
 592 43 592 43 571.5 52 c 128,-1,12
 551 61 551 61 548 72 c 1,13,-1
 537 157 l 1,14,15
 505 155 505 155 473.5 158 c 128,-1,16
 442 161 442 161 414 160 c 1,17,18
 400 138 400 138 389 115.5 c 128,-1,19
 378 93 378 93 367 70 c 1,20,21
 326 68 326 68 284 69.5 c 128,-1,22
 242 71 242 71 200 69 c 1,23,24
 250 165 250 165 298.5 261 c 128,-1,25
 347 357 347 357 403 455 c 1,26,-1
 401 456 l 1,27,28
 421 490 421 490 437.5 524.5 c 128,-1,29
 454 559 454 559 474 591 c 1,30,-1
 472 592 l 1,31,32
 514 594 514 594 553.5 592.5 c 128,-1,33
 593 591 593 591 638 593 c 1,34,35
 651 497 651 497 659.5 407.5 c 128,-1,36
 668 318 668 318 679 222 c 1,37,-1
 687 160 l 1,38,39
 697 165 697 165 709.5 176.5 c 128,-1,40
 722 188 722 188 732.5 210 c 128,-1,41
 743 232 743 232 750.5 266.5 c 128,-1,42
 758 301 758 301 758 353 c 0,43,44
 758 382 758 382 761 413.5 c 128,-1,45
 764 445 764 445 766 475 c 128,-1,46
 768 505 768 505 767 531.5 c 128,-1,47
 766 558 766 558 760 577 c 256,48,49
 754 596 754 596 737 616 c 128,-1,50
 720 636 720 636 693 652.5 c 128,-1,51
 666 669 666 669 630 678.5 c 128,-1,52
 594 688 594 688 549 685 c 256,53,54
 504 682 504 682 466.5 679 c 128,-1,55
 429 676 429 676 397 666.5 c 128,-1,56
 365 657 365 657 338.5 636.5 c 128,-1,57
 312 616 312 616 290 579 c 0,58,59
 274 552 274 552 255 510 c 128,-1,60
 236 468 236 468 218 419 c 128,-1,61
 200 370 200 370 183.5 317.5 c 128,-1,62
 167 265 167 265 156.5 216 c 128,-1,63
 146 167 146 167 142 126 c 128,-1,64
 138 85 138 85 145 60 c 0,65,66
 155 22 155 22 185 -1 c 128,-1,67
 215 -24 215 -24 251 -36 c 128,-1,68
 287 -48 287 -48 322.5 -51.5 c 128,-1,69
 358 -55 358 -55 380 -54 c 0,70,71
 397 -53 397 -53 405.5 -52 c 128,-1,72
 414 -51 414 -51 418 -49 c 1,73,-1
 418 -43 l 1,74,75
 420 -44 420 -44 421 -45 c 0,76,77
 424 -48 424 -48 418 -49 c 1,78,-1
 420 -153 l 1,79,-1
 376 -158 l 1,80,-1
 277 -166 l 1,81,82
 246 -163 246 -163 215 -156 c 0,83,84
 189 -151 189 -151 159 -141 c 128,-1,85
 129 -131 129 -131 105 -115 c 0,86,87
 82 -100 82 -100 68 -78.5 c 128,-1,88
 54 -57 54 -57 46.5 -32 c 128,-1,89
 39 -7 39 -7 36 20.5 c 128,-1,90
 33 48 33 48 32 76 c 0,91,92
 30 115 30 115 35.5 160 c 128,-1,93
 41 205 41 205 50 250 c 128,-1,94
 59 295 59 295 71 338 c 128,-1,95
 83 381 83 381 94.5 417 c 128,-1,96
 106 453 106 453 116 480 c 128,-1,97
 126 507 126 507 132 520 c 0,98,99
 141 539 141 539 156.5 570 c 128,-1,100
 172 601 172 601 191 632 c 128,-1,101
 210 663 210 663 231 688.5 c 128,-1,102
 252 714 252 714 272 724 c 256,103,104
 292 734 292 734 306.5 743 c 128,-1,105
 321 752 321 752 340.5 759.5 c 128,-1,106
 360 767 360 767 390 771.5 c 128,-1,107
 420 776 420 776 470 778 c 1,108,109
 521 779 521 779 571.5 776.5 c 128,-1,110
 622 774 622 774 667.5 765.5 c 128,-1,111
 713 757 713 757 751 740.5 c 128,-1,112
 789 724 789 724 813 699 c 0,113,114
 837 673 837 673 853.5 637 c 128,-1,115
 870 601 870 601 879 561 c 128,-1,116
 888 521 888 521 890 480 c 128,-1,117
 892 439 892 439 888 405 c 0,0,1
541 592 m 1,118,-1
 540 591 l 1,119,-1
 541 589 l 1,120,-1
 541 592 l 1,118,-1
489 591 m 1,121,-1
 487 591 l 1,122,-1
 487 588 l 1,123,-1
 489 588 l 1,124,-1
 489 591 l 1,121,-1
506 360 m 2,125,126
 506 359 506 359 504 357 c 2,127,-1
 506 360 l 2,125,126
407 458 m 1,128,-1
 405 458 l 1,129,-1
 405 455 l 1,130,-1
 407 455 l 1,131,-1
 407 458 l 1,128,-1
525 265 m 1,132,133
 521 288 521 288 520.5 310 c 128,-1,134
 520 332 520 332 514 353 c 1,135,136
 512 354 512 354 512 355 c 2,137,-1
 475 272 l 1,138,-1
 475 266 l 1,139,140
 489 264 489 264 500 264.5 c 128,-1,141
 511 265 511 265 525 265 c 1,132,133
565 115 m 1,142,-1
 563 115 l 1,143,-1
 564 112 l 1,144,-1
 565 113 l 1,145,-1
 565 115 l 1,142,-1
352 161 m 1,146,-1
 351 161 l 1,147,-1
 351 158 l 1,148,-1
 353 158 l 1,149,-1
 352 161 l 1,146,-1
EndSplineSet
EndChar

StartChar: B
Encoding: 66 66 44
Width: 647
Flags: W
LayerCount: 2
Fore
SplineSet
606 149 m 0,0,1
 602 127 602 127 591 106.5 c 128,-1,2
 580 86 580 86 564.5 69 c 128,-1,3
 549 52 549 52 530 38.5 c 128,-1,4
 511 25 511 25 490 18 c 1,5,6
 378 10 378 10 268.5 -2.5 c 128,-1,7
 159 -15 159 -15 50 -23 c 1,8,9
 56 56 56 56 64 130 c 128,-1,10
 72 204 72 204 80.5 276.5 c 128,-1,11
 89 349 89 349 98 423.5 c 128,-1,12
 107 498 107 498 115 578 c 0,13,14
 118 608 118 608 120.5 640 c 128,-1,15
 123 672 123 672 129 695 c 1,16,-1
 131 694 l 1,17,-1
 132 700 l 1,18,19
 137 701 137 701 150 701.5 c 128,-1,20
 163 702 163 702 171 700 c 1,21,-1
 175 704 l 1,22,23
 200 705 200 705 225 707 c 128,-1,24
 250 709 250 709 273 708 c 1,25,-1
 271 710 l 1,26,27
 279 708 279 708 291 710.5 c 128,-1,28
 303 713 303 713 315 713 c 1,29,30
 311 707 311 707 312.5 702 c 128,-1,31
 314 697 314 697 315 692 c 1,32,33
 320 698 320 698 318.5 703 c 128,-1,34
 317 708 317 708 321 715 c 1,35,-1
 349 715 l 1,36,-1
 346 714 l 1,37,38
 348 711 348 711 349 711 c 128,-1,39
 350 711 350 711 351 712.5 c 128,-1,40
 352 714 352 714 353 715.5 c 128,-1,41
 354 717 354 717 356 716 c 1,42,43
 379 718 379 718 403 719.5 c 128,-1,44
 427 721 427 721 449 723 c 1,45,46
 454 721 454 721 461 720.5 c 128,-1,47
 468 720 468 720 474 718 c 1,48,49
 487 711 487 711 504.5 705.5 c 128,-1,50
 522 700 522 700 537 689 c 0,51,52
 579 660 579 660 594 614 c 128,-1,53
 609 568 609 568 595 518 c 0,54,55
 584 479 584 479 558 446 c 128,-1,56
 532 413 532 413 502 386 c 1,57,58
 529 364 529 364 551 337.5 c 128,-1,59
 573 311 573 311 587.5 281 c 128,-1,60
 602 251 602 251 607.5 218 c 128,-1,61
 613 185 613 185 606 149 c 0,0,1
312 709 m 1,62,-1
 311 709 l 1,63,-1
 311 713 l 1,64,-1
 312 713 l 1,65,-1
 312 709 l 1,62,-1
317 686 m 1,66,-1
 315 686 l 1,67,-1
 315 680 l 1,68,-1
 317 679 l 1,69,-1
 317 686 l 1,66,-1
499 384 m 1,70,-1
 493 379 l 1,71,-1
 499 384 l 1,70,-1
364 483 m 1,72,-1
 362 483 l 1,73,-1
 362 479 l 1,74,-1
 364 479 l 1,75,-1
 364 483 l 1,72,-1
143 698 m 1,76,-1
 141 698 l 1,77,-1
 142 702 l 1,78,-1
 143 702 l 1,79,-1
 143 698 l 1,76,-1
373 531 m 1,80,81
 359 545 359 545 339.5 543 c 128,-1,82
 320 541 320 541 302 537 c 1,83,-1
 295 438 l 1,84,85
 307 446 307 446 321.5 455 c 128,-1,86
 336 464 336 464 348 475 c 128,-1,87
 360 486 360 486 367.5 499.5 c 128,-1,88
 375 513 375 513 373 531 c 1,80,81
375 237 m 1,89,90
 368 249 368 249 355.5 254.5 c 128,-1,91
 343 260 343 260 329 261.5 c 128,-1,92
 315 263 315 263 300.5 261 c 128,-1,93
 286 259 286 259 276 258 c 1,94,95
 275 241 275 241 274 220 c 128,-1,96
 273 199 273 199 270 180 c 1,97,98
 281 182 281 182 292.5 181 c 128,-1,99
 304 180 304 180 311 183 c 1,100,101
 314 179 314 179 317.5 183 c 128,-1,102
 321 187 321 187 323 185 c 0,103,104
 328 182 328 182 334 186.5 c 128,-1,105
 340 191 340 191 347 189 c 1,106,-1
 345 191 l 1,107,-1
 353 195 l 1,108,109
 356 198 356 198 361 198 c 1,110,111
 365 207 365 207 371 215 c 128,-1,112
 377 223 377 223 375 237 c 1,89,90
343 190 m 1,113,-1
 343 194 l 1,114,-1
 345 194 l 1,115,-1
 345 190 l 1,116,-1
 343 190 l 1,113,-1
EndSplineSet
EndChar

StartChar: C
Encoding: 67 67 45
Width: 609
Flags: W
LayerCount: 2
Fore
SplineSet
580 617 m 0,0,1
 588 597 588 597 589 577 c 128,-1,2
 590 557 590 557 587.5 537 c 128,-1,3
 585 517 585 517 580.5 497 c 128,-1,4
 576 477 576 477 574 457 c 1,5,-1
 571 453 l 1,6,7
 528 451 528 451 489.5 450 c 128,-1,8
 451 449 451 449 408 448 c 1,9,10
 409 459 409 459 409 471 c 128,-1,11
 409 483 409 483 407 493.5 c 128,-1,12
 405 504 405 504 399.5 512.5 c 128,-1,13
 394 521 394 521 383 527 c 1,14,15
 351 527 351 527 334 499 c 1,16,-1
 336 498 l 1,17,18
 331 495 331 495 331 489 c 128,-1,19
 331 483 331 483 330 478 c 0,20,21
 323 456 323 456 318.5 429 c 128,-1,22
 314 402 314 402 312 380 c 1,23,-1
 309 380 l 1,24,25
 309 363 309 363 305 345.5 c 128,-1,26
 301 328 301 328 296.5 309 c 128,-1,27
 292 290 292 290 289.5 270 c 128,-1,28
 287 250 287 250 291 230 c 1,29,30
 297 217 297 217 310 214.5 c 128,-1,31
 323 212 323 212 336 215 c 1,32,33
 351 222 351 222 358.5 233 c 128,-1,34
 366 244 366 244 370.5 257.5 c 128,-1,35
 375 271 375 271 377.5 285.5 c 128,-1,36
 380 300 380 300 384 313 c 1,37,38
 426 318 426 318 469 320.5 c 128,-1,39
 512 323 512 323 554 324 c 1,40,41
 548 283 548 283 539 241 c 128,-1,42
 530 199 530 199 513 160 c 128,-1,43
 496 121 496 121 468 89 c 128,-1,44
 440 57 440 57 397 38 c 0,45,46
 371 27 371 27 341 21.5 c 128,-1,47
 311 16 311 16 280.5 17 c 128,-1,48
 250 18 250 18 220 26 c 128,-1,49
 190 34 190 34 166 49 c 1,50,51
 133 68 133 68 120 97 c 128,-1,52
 107 126 107 126 105.5 158.5 c 128,-1,53
 104 191 104 191 109.5 225.5 c 128,-1,54
 115 260 115 260 121 290 c 0,55,56
 133 358 133 358 148.5 424 c 128,-1,57
 164 490 164 490 178 560 c 1,58,59
 188 591 188 591 208 617 c 128,-1,60
 228 643 228 643 254.5 662.5 c 128,-1,61
 281 682 281 682 312 694.5 c 128,-1,62
 343 707 343 707 375 711 c 0,63,64
 392 713 392 713 409 714.5 c 128,-1,65
 426 716 426 716 443 714 c 1,66,-1
 448 708 l 1,67,-1
 452 714 l 1,68,69
 494 710 494 710 529 683.5 c 128,-1,70
 564 657 564 657 580 617 c 0,0,1
279 463 m 1,71,-1
 279 461 l 1,72,-1
 285 463 l 1,73,-1
 279 463 l 1,71,-1
EndSplineSet
EndChar

StartChar: E
Encoding: 69 69 47
Width: 566
Flags: W
LayerCount: 2
Fore
SplineSet
536 700 m 1,0,1
 531 660 531 660 523.5 620 c 128,-1,2
 516 580 516 580 508 542 c 1,3,4
 470 540 470 540 433 540.5 c 128,-1,5
 396 541 396 541 358 537 c 1,6,7
 352 509 352 509 348 481.5 c 128,-1,8
 344 454 344 454 337 426 c 1,9,10
 338 423 338 423 341 422.5 c 128,-1,11
 344 422 344 422 348 422.5 c 128,-1,12
 352 423 352 423 355.5 423.5 c 128,-1,13
 359 424 359 424 361 421 c 1,14,15
 365 424 365 424 372 424 c 0,16,17
 401 423 401 423 430 425 c 128,-1,18
 459 427 459 427 489 426 c 1,19,20
 481 389 481 389 474 352.5 c 128,-1,21
 467 316 467 316 459 278 c 1,22,23
 421 277 421 277 383 277.5 c 128,-1,24
 345 278 345 278 307 275 c 1,25,26
 301 247 301 247 297 218 c 128,-1,27
 293 189 293 189 290 163 c 1,28,29
 331 164 331 164 364.5 163 c 128,-1,30
 398 162 398 162 439 164 c 1,31,32
 429 121 429 121 421.5 81 c 128,-1,33
 414 41 414 41 405 -1 c 1,34,35
 324 -4 324 -4 245 -0.5 c 128,-1,36
 166 3 166 3 85 2 c 1,37,-1
 91 49 l 1,38,-1
 194 607 l 1,39,-1
 210 703 l 1,40,-1
 236 705 l 1,41,-1
 515 699 l 1,42,-1
 536 700 l 1,0,1
351 541 m 1,43,-1
 350 539 l 1,44,-1
 353 537 l 1,45,-1
 354 539 l 1,46,-1
 351 541 l 1,43,-1
279 482 m 1,47,-1
 278 480 l 1,48,-1
 281 478 l 1,49,-1
 283 480 l 1,50,-1
 279 482 l 1,47,-1
334 424 m 1,51,-1
 307 422 l 1,52,-1
 334 424 l 1,51,-1
187 289 m 1,53,54
 185 291 185 291 185.5 293 c 128,-1,55
 186 295 186 295 184 296 c 1,56,57
 182 293 182 293 187 289 c 1,53,54
279 165 m 1,58,-1
 278 163 l 1,59,-1
 282 165 l 1,60,-1
 279 165 l 1,58,-1
EndSplineSet
EndChar

StartChar: F
Encoding: 70 70 48
Width: 539
Flags: W
LayerCount: 2
Fore
SplineSet
469 546 m 1,0,1
 429 543 429 543 388.5 540 c 128,-1,2
 348 537 348 537 308 535 c 1,3,4
 304 513 304 513 302 487.5 c 128,-1,5
 300 462 300 462 298 438 c 1,6,7
 329 436 329 436 362.5 440.5 c 128,-1,8
 396 445 396 445 428 447 c 1,9,-1
 430 445 l 1,10,11
 435 447 435 447 443 448.5 c 128,-1,12
 451 450 451 450 459 450 c 1,13,14
 455 408 455 408 452.5 366 c 128,-1,15
 450 324 450 324 447 284 c 1,16,-1
 278 270 l 1,17,-1
 252 50 l 1,18,-1
 245 -11 l 1,19,20
 199 -13 199 -13 154 -17.5 c 128,-1,21
 109 -22 109 -22 64 -27 c 1,22,23
 70 54 70 54 79.5 137 c 128,-1,24
 89 220 89 220 98 305 c 2,25,-1
 118 501 l 2,26,27
 123 552 123 552 126 599 c 128,-1,28
 129 646 129 646 137 699 c 1,29,-1
 376 709 l 1,30,-1
 483 715 l 1,31,-1
 485 710 l 1,32,-1
 469 546 l 1,0,1
453 672 m 1,33,-1
 452 668 l 1,34,-1
 453 668 l 1,35,-1
 455 672 l 1,36,-1
 453 672 l 1,33,-1
254 703 m 1,37,-1
 253 699 l 1,38,-1
 255 699 l 1,39,-1
 256 703 l 1,40,-1
 254 703 l 1,37,-1
263 646 m 1,41,42
 261 647 261 647 258 647.5 c 128,-1,43
 255 648 255 648 254 645 c 1,44,45
 257 643 257 643 259.5 644 c 128,-1,46
 262 645 262 645 263 646 c 1,41,42
222 129 m 1,47,-1
 221 126 l 1,48,-1
 223 125 l 1,49,-1
 224 129 l 1,50,-1
 222 129 l 1,47,-1
231 44 m 1,51,-1
 230 40 l 1,52,-1
 232 39 l 1,53,-1
 233 43 l 1,54,-1
 231 44 l 1,51,-1
242 4 m 1,55,-1
 241 0 l 1,56,-1
 244 0 l 1,57,-1
 245 3 l 1,58,-1
 242 4 l 1,55,-1
211 7 m 1,59,-1
 210 3 l 1,60,-1
 212 2 l 1,61,-1
 213 6 l 1,62,-1
 211 7 l 1,59,-1
EndSplineSet
EndChar

StartChar: G
Encoding: 71 71 49
Width: 516
Flags: W
LayerCount: 2
Fore
SplineSet
487 623 m 1,0,-1
 485 624 l 1,1,-1
 487 628 l 1,2,-1
 489 627 l 1,3,-1
 487 623 l 1,0,-1
497 591 m 1,4,5
 495 562 495 562 497 532.5 c 128,-1,6
 499 503 499 503 493 474 c 1,7,8
 452 472 452 472 412 469.5 c 128,-1,9
 372 467 372 467 332 468 c 1,10,11
 335 487 335 487 332.5 508.5 c 128,-1,12
 330 530 330 530 311 541 c 1,13,14
 301 544 301 544 289.5 544.5 c 128,-1,15
 278 545 278 545 269 537 c 1,16,17
 255 519 255 519 249.5 498.5 c 128,-1,18
 244 478 244 478 242.5 457 c 128,-1,19
 241 436 241 436 241.5 414 c 128,-1,20
 242 392 242 392 239 371 c 1,21,-1
 236 288 l 1,22,23
 234 289 234 289 232 290.5 c 128,-1,24
 230 292 230 292 227 290 c 1,25,26
 234 281 234 281 233.5 268.5 c 128,-1,27
 233 256 233 256 233 244 c 128,-1,28
 233 232 233 232 238 222 c 128,-1,29
 243 212 243 212 260 209 c 1,30,31
 268 209 268 209 274.5 211.5 c 128,-1,32
 281 214 281 214 288 216 c 1,33,34
 287 214 287 214 289 212 c 1,35,36
 304 226 304 226 316.5 246 c 128,-1,37
 329 266 329 266 324 288 c 1,38,39
 315 293 315 293 302.5 291 c 128,-1,40
 290 289 290 289 279 292 c 1,41,-1
 299 384 l 1,42,43
 334 389 334 389 367.5 391.5 c 128,-1,44
 401 394 401 394 435 399 c 1,45,-1
 436 395 l 1,46,47
 448 400 448 400 461.5 399.5 c 128,-1,48
 475 399 475 399 489 403 c 1,49,50
 481 367 481 367 480 330 c 128,-1,51
 479 293 479 293 476 256 c 128,-1,52
 473 219 473 219 463 183 c 128,-1,53
 453 147 453 147 425 113 c 1,54,55
 407 84 407 84 380 63 c 128,-1,56
 353 42 353 42 321 28.5 c 128,-1,57
 289 15 289 15 254.5 10.5 c 128,-1,58
 220 6 220 6 187 11 c 0,59,60
 168 14 168 14 148.5 21.5 c 128,-1,61
 129 29 129 29 112 40.5 c 128,-1,62
 95 52 95 52 82 67.5 c 128,-1,63
 69 83 69 83 62 103 c 1,64,65
 54 121 54 121 53.5 138.5 c 128,-1,66
 53 156 53 156 49 174 c 1,67,-1
 74 519 l 1,68,69
 93 596 93 596 147 649.5 c 128,-1,70
 201 703 201 703 276 723 c 1,71,72
 301 726 301 726 329 726 c 128,-1,73
 357 726 357 726 383.5 719 c 128,-1,74
 410 712 410 712 432.5 697.5 c 128,-1,75
 455 683 455 683 470 657 c 1,76,77
 481 641 481 641 486.5 624.5 c 128,-1,78
 492 608 492 608 497 591 c 1,4,5
428 477 m 1,79,-1
 426 473 l 1,80,-1
 428 473 l 1,81,-1
 430 476 l 1,82,-1
 428 477 l 1,79,-1
335 569 m 1,83,-1
 333 565 l 1,84,-1
 334 564 l 1,85,-1
 336 568 l 1,86,-1
 335 569 l 1,83,-1
334 529 m 1,87,-1
 332 526 l 1,88,-1
 334 525 l 1,89,-1
 335 528 l 1,90,-1
 334 529 l 1,87,-1
229 419 m 1,91,-1
 229 414 l 1,92,-1
 231 417 l 1,93,-1
 229 419 l 1,91,-1
377 72 m 1,94,-1
 375 69 l 1,95,-1
 376 68 l 1,96,-1
 378 71 l 1,97,-1
 377 72 l 1,94,-1
EndSplineSet
EndChar

StartChar: H
Encoding: 72 72 50
Width: 636
Flags: W
LayerCount: 2
Fore
SplineSet
549 403 m 1,0,-1
 477 -17 l 1,1,-1
 313 -16 l 1,2,-1
 313 -13 l 1,3,4
 312 -13 312 -13 311.5 -12.5 c 128,-1,5
 311 -12 311 -12 309 -13 c 1,6,-1
 308 -16 l 1,7,8
 310 -14 310 -14 309 -13 c 128,-1,9
 308 -12 308 -12 307 -10 c 1,10,-1
 305 -9 l 1,11,-1
 303 -15 l 1,12,-1
 308 2 l 1,13,-1
 305 2 l 1,14,15
 309 13 309 13 309 25 c 128,-1,16
 309 37 309 37 315 47 c 1,17,-1
 317 46 l 1,18,-1
 315 56 l 1,19,-1
 343 231 l 1,20,21
 321 234 321 234 297 233.5 c 128,-1,22
 273 233 273 233 250 231 c 1,23,24
 239 172 239 172 229 109 c 128,-1,25
 219 46 219 46 206 -17 c 1,26,27
 167 -15 167 -15 128 -16 c 128,-1,28
 89 -17 89 -17 50 -18 c 1,29,30
 47 -14 47 -14 43.5 -16 c 128,-1,31
 40 -18 40 -18 37 -18 c 1,32,-1
 125 488 l 1,33,-1
 157 698 l 1,34,-1
 334 699 l 1,35,-1
 291 438 l 1,36,37
 287 435 287 435 286.5 432 c 128,-1,38
 286 429 286 429 287 425 c 128,-1,39
 288 421 288 421 288.5 417.5 c 128,-1,40
 289 414 289 414 288 410 c 1,41,42
 307 408 307 408 325.5 408 c 128,-1,43
 344 408 344 408 362 408 c 1,44,45
 370 422 370 422 371.5 437 c 128,-1,46
 373 452 373 452 376 466 c 1,47,48
 378 487 378 487 383 505 c 1,49,-1
 382 509 l 1,50,-1
 385 509 l 1,51,52
 387 523 387 523 387 536 c 128,-1,53
 387 549 387 549 394 563 c 1,54,-1
 391 563 l 1,55,56
 394 564 394 564 394 567 c 128,-1,57
 394 570 394 570 394 573.5 c 128,-1,58
 394 577 394 577 394.5 580.5 c 128,-1,59
 395 584 395 584 398 587 c 1,60,-1
 395 587 l 1,61,-1
 403 612 l 1,62,-1
 401 612 l 1,63,64
 403 627 403 627 408 642.5 c 128,-1,65
 413 658 413 658 411 671 c 1,66,67
 414 679 414 679 415 685 c 128,-1,68
 416 691 416 691 418 699 c 1,69,-1
 598 700 l 1,70,-1
 549 403 l 1,0,-1
320 654 m 1,71,-1
 317 652 l 1,72,-1
 317 650 l 1,73,-1
 321 652 l 1,74,-1
 320 654 l 1,71,-1
238 621 m 1,75,-1
 233 618 l 1,76,-1
 238 617 l 1,77,-1
 238 621 l 1,75,-1
68 138 m 1,78,-1
 66 136 l 1,79,-1
 66 135 l 1,80,-1
 69 136 l 1,81,-1
 68 138 l 1,78,-1
EndSplineSet
EndChar

StartChar: J
Encoding: 74 74 52
Width: 602
Flags: W
LayerCount: 2
Fore
SplineSet
494 241 m 2,0,1
 489 201 489 201 475.5 164 c 128,-1,2
 462 127 462 127 439.5 96.5 c 128,-1,3
 417 66 417 66 385.5 44 c 128,-1,4
 354 22 354 22 315 12 c 0,5,6
 287 5 287 5 256.5 2.5 c 128,-1,7
 226 0 226 0 196 3 c 128,-1,8
 166 6 166 6 137.5 16 c 128,-1,9
 109 26 109 26 87 44 c 1,10,11
 60 72 60 72 50 103.5 c 128,-1,12
 40 135 40 135 40 169 c 128,-1,13
 40 203 40 203 47 239 c 128,-1,14
 54 275 54 275 61 311 c 1,15,16
 101 321 101 321 140.5 331 c 128,-1,17
 180 341 180 341 219 351 c 1,18,19
 217 337 217 337 215 321.5 c 128,-1,20
 213 306 213 306 206 294 c 1,21,-1
 209 293 l 1,22,23
 210 285 210 285 207.5 275.5 c 128,-1,24
 205 266 205 266 203 255 c 128,-1,25
 201 244 201 244 201 233.5 c 128,-1,26
 201 223 201 223 207 214 c 1,27,28
 208 200 208 200 219.5 196 c 128,-1,29
 231 192 231 192 240 185 c 1,30,-1
 246 184 l 1,31,32
 248 186 248 186 254 187.5 c 128,-1,33
 260 189 260 189 264 189 c 0,34,35
 278 192 278 192 285 201 c 128,-1,36
 292 210 292 210 295.5 221.5 c 128,-1,37
 299 233 299 233 300.5 245.5 c 128,-1,38
 302 258 302 258 306 268 c 1,39,-1
 330 473 l 1,40,41
 333 475 333 475 332 482 c 128,-1,42
 331 489 331 489 331 494 c 2,43,-1
 337 549 l 1,44,45
 310 551 310 551 280 547 c 128,-1,46
 250 543 250 543 222 542 c 1,47,48
 225 577 225 577 228.5 617.5 c 128,-1,49
 232 658 232 658 235 696 c 1,50,-1
 445 706 l 1,51,-1
 549 708 l 1,52,-1
 494 241 l 2,0,1
248 548 m 1,53,-1
 245 545 l 1,54,-1
 246 544 l 1,55,-1
 249 547 l 1,56,-1
 248 548 l 1,53,-1
230 546 m 1,57,-1
 227 543 l 1,58,-1
 228 542 l 1,59,-1
 231 545 l 1,60,-1
 230 546 l 1,57,-1
466 244 m 1,61,-1
 463 241 l 1,62,-1
 465 239 l 1,63,-1
 468 242 l 1,64,-1
 466 244 l 1,61,-1
343 179 m 1,65,-1
 339 176 l 1,66,-1
 340 175 l 1,67,-1
 344 178 l 1,68,-1
 343 179 l 1,65,-1
326 131 m 1,69,-1
 322 128 l 1,70,-1
 324 126 l 1,71,-1
 327 129 l 1,72,-1
 326 131 l 1,69,-1
251 184 m 1,73,-1
 248 181 l 1,74,-1
 249 180 l 1,75,-1
 252 182 l 1,76,-1
 251 184 l 1,73,-1
EndSplineSet
EndChar

StartChar: K
Encoding: 75 75 53
Width: 601
Flags: W
LayerCount: 2
Fore
SplineSet
585 569 m 1,0,-1
 582 571 l 1,1,-1
 583 572 l 1,2,-1
 586 571 l 1,3,-1
 585 569 l 1,0,-1
431 384 m 1,4,-1
 428 386 l 1,5,-1
 428 387 l 1,6,-1
 432 385 l 1,7,-1
 431 384 l 1,4,-1
583 577 m 1,8,9
 584 572 584 572 581 567 c 128,-1,10
 578 562 578 562 573.5 556.5 c 128,-1,11
 569 551 569 551 564.5 546 c 128,-1,12
 560 541 560 541 558 537 c 1,13,14
 556 536 556 536 552 531 c 128,-1,15
 548 526 548 526 544 523 c 1,16,17
 529 506 529 506 511 484.5 c 128,-1,18
 493 463 493 463 479 443 c 1,19,20
 474 441 474 441 470 434.5 c 128,-1,21
 466 428 466 428 460 424 c 1,22,23
 439 394 439 394 414 369 c 128,-1,24
 389 344 389 344 369 312 c 1,25,26
 383 289 383 289 398 264.5 c 128,-1,27
 413 240 413 240 426 217 c 1,28,-1
 429 218 l 1,29,30
 442 195 442 195 453 177 c 128,-1,31
 464 159 464 159 475 142 c 128,-1,32
 486 125 486 125 497.5 106.5 c 128,-1,33
 509 88 509 88 524 65 c 1,34,-1
 522 64 l 1,35,36
 524 61 524 61 525.5 59 c 128,-1,37
 527 57 527 57 531 56 c 1,38,-1
 528 54 l 1,39,-1
 532 50 l 1,40,41
 487 46 487 46 438 45 c 128,-1,42
 389 44 389 44 342 39 c 1,43,44
 339 41 339 41 339 44 c 128,-1,45
 339 47 339 47 339 49.5 c 128,-1,46
 339 52 339 52 338 54 c 128,-1,47
 337 56 337 56 332 56 c 1,48,49
 311 91 311 91 292.5 129.5 c 128,-1,50
 274 168 274 168 250 203 c 1,51,-1
 247 203 l 1,52,53
 249 201 249 201 249 199 c 128,-1,54
 249 197 249 197 251 197 c 2,55,-1
 239 195 l 1,56,57
 235 197 235 197 237.5 195 c 128,-1,58
 240 193 240 193 241 195 c 1,59,-1
 239 203 l 1,60,61
 236 203 236 203 235 200 c 128,-1,62
 234 197 234 197 232 195 c 1,63,64
 232 193 232 193 237 191 c 1,65,66
 230 187 230 187 231.5 177 c 128,-1,67
 233 167 233 167 229 162 c 1,68,69
 226 143 226 143 222.5 127 c 128,-1,70
 219 111 219 111 217 96 c 1,71,-1
 214 95 l 1,72,73
 216 86 216 86 213 74.5 c 128,-1,74
 210 63 210 63 207 54 c 1,75,76
 209 49 209 49 207 43.5 c 128,-1,77
 205 38 205 38 204 33 c 1,78,79
 160 30 160 30 116.5 28 c 128,-1,80
 73 26 73 26 28 25 c 1,81,-1
 31 26 l 1,82,83
 31 28 31 28 26 30 c 0,84,85
 24 31 24 31 23.5 29 c 128,-1,86
 23 27 23 27 22 26 c 1,87,-1
 23 23 l 1,88,89
 21 25 21 25 23 35 c 128,-1,90
 25 45 25 45 25 53 c 1,91,92
 27 55 27 55 30.5 56.5 c 128,-1,93
 34 58 34 58 32 62 c 1,94,-1
 27 61 l 1,95,96
 42 143 42 143 58 228.5 c 128,-1,97
 74 314 74 314 89 396 c 2,98,-1
 127 606 l 2,99,100
 132 633 132 633 134.5 658 c 128,-1,101
 137 683 137 683 147 711 c 1,102,103
 193 710 193 710 238.5 711.5 c 128,-1,104
 284 713 284 713 328 711 c 1,105,-1
 327 713 l 1,106,-1
 336 710 l 1,107,-1
 334 709 l 1,108,109
 332 692 332 692 329 675 c 128,-1,110
 326 658 326 658 322 643 c 0,111,112
 314 608 314 608 308.5 570 c 128,-1,113
 303 532 303 532 291 494 c 1,114,115
 292 486 292 486 300 486 c 1,116,-1
 303 492 l 1,117,-1
 444 640 l 1,118,119
 459 653 459 653 469.5 666.5 c 128,-1,120
 480 680 480 680 495 693 c 1,121,122
 513 668 513 668 534.5 641.5 c 128,-1,123
 556 615 556 615 571 588 c 1,124,125
 573 591 573 591 573.5 590.5 c 128,-1,126
 574 590 574 590 575 588 c 128,-1,127
 576 586 576 586 577 584 c 128,-1,128
 578 582 578 582 580 583 c 1,129,130
 578 581 578 581 579 579.5 c 128,-1,131
 580 578 580 578 581 576 c 1,132,-1
 583 577 l 1,8,9
575 565 m 1,133,-1
 576 563 l 1,134,-1
 577 567 l 1,135,-1
 575 565 l 1,133,-1
315 703 m 1,136,-1
 319 701 l 1,137,-1
 320 704 l 1,138,-1
 315 703 l 1,136,-1
180 689 m 1,139,-1
 177 691 l 1,140,-1
 176 689 l 1,141,-1
 180 688 l 1,142,-1
 180 689 l 1,139,-1
185 677 m 1,143,-1
 182 679 l 1,144,-1
 181 678 l 1,145,-1
 185 676 l 1,146,-1
 185 677 l 1,143,-1
212 465 m 1,147,-1
 209 467 l 1,148,-1
 209 465 l 1,149,-1
 212 464 l 1,150,-1
 212 465 l 1,147,-1
110 492 m 1,151,-1
 109 490 l 1,152,-1
 112 488 l 1,153,-1
 113 490 l 1,154,-1
 110 492 l 1,151,-1
504 98 m 1,155,-1
 503 95 l 1,156,-1
 500 97 l 1,157,-1
 501 99 l 1,158,-1
 504 98 l 1,155,-1
393 196 m 1,159,-1
 390 197 l 1,160,-1
 390 196 l 1,161,-1
 393 194 l 1,162,-1
 393 196 l 1,159,-1
388 181 m 1,163,-1
 388 180 l 1,164,-1
 391 178 l 1,165,-1
 392 179 l 1,166,-1
 388 181 l 1,163,-1
513 51 m 1,167,-1
 513 49 l 1,168,-1
 515 48 l 1,169,-1
 516 49 l 1,170,-1
 513 51 l 1,167,-1
455 52 m 1,171,-1
 454 51 l 1,172,-1
 457 49 l 1,173,-1
 458 51 l 1,174,-1
 455 52 l 1,171,-1
388 74 m 1,175,-1
 387 71 l 1,176,-1
 391 70 l 1,177,-1
 392 72 l 1,178,-1
 388 74 l 1,175,-1
245 211 m 1,179,-1
 247 205 l 1,180,-1
 248 204 l 1,181,-1
 245 211 l 1,179,-1
360 46 m 1,182,183
 358 45 358 45 355 47.5 c 128,-1,184
 352 50 352 50 351 44 c 1,185,-1
 355 42 l 1,186,187
 356 43 356 43 358 43 c 128,-1,188
 360 43 360 43 360 46 c 1,182,183
223 167 m 1,189,-1
 222 166 l 1,190,-1
 225 164 l 1,191,-1
 226 165 l 1,192,-1
 223 167 l 1,189,-1
33 69 m 1,193,-1
 32 67 l 1,194,-1
 36 65 l 1,195,-1
 37 67 l 1,196,-1
 33 69 l 1,193,-1
EndSplineSet
EndChar

StartChar: L
Encoding: 76 76 54
Width: 488
Flags: W
LayerCount: 2
Fore
SplineSet
443 215 m 1,0,1
 436 167 436 167 425.5 122 c 128,-1,2
 415 77 415 77 406 30 c 1,3,4
 312 28 312 28 224.5 25 c 128,-1,5
 137 22 137 22 44 20 c 1,6,-1
 54 82 l 1,7,-1
 91 286 l 2,8,9
 97 321 97 321 103 355.5 c 128,-1,10
 109 390 109 390 116 427 c 1,11,-1
 118 427 l 1,12,13
 129 497 129 497 143.5 575.5 c 128,-1,14
 158 654 158 654 172 723 c 1,15,16
 188 722 188 722 203.5 724 c 128,-1,17
 219 726 219 726 233 721 c 1,18,19
 238 725 238 725 247 726 c 128,-1,20
 256 727 256 727 264 725 c 1,21,22
 294 725 294 725 321.5 726 c 128,-1,23
 349 727 349 727 375 725 c 1,24,-1
 286 213 l 1,25,-1
 290 209 l 1,26,27
 325 211 325 211 365 211 c 128,-1,28
 405 211 405 211 443 215 c 1,0,1
249 399 m 1,29,-1
 247 400 l 1,30,-1
 247 395 l 1,31,-1
 249 395 l 1,32,-1
 249 399 l 1,29,-1
132 365 m 1,33,-1
 132 361 l 1,34,-1
 133 361 l 1,35,-1
 134 365 l 1,36,-1
 132 365 l 1,33,-1
82 135 m 1,37,-1
 82 131 l 1,38,-1
 83 131 l 1,39,-1
 84 135 l 1,40,-1
 82 135 l 1,37,-1
EndSplineSet
EndChar

StartChar: O
Encoding: 79 79 57
Width: 567
Flags: W
LayerCount: 2
Fore
SplineSet
505 669 m 1,0,1
 527 628 527 628 528.5 585.5 c 128,-1,2
 530 543 530 543 522.5 500 c 128,-1,3
 515 457 515 457 503.5 413.5 c 128,-1,4
 492 370 492 370 488 328 c 0,5,6
 484 289 484 289 476 251 c 128,-1,7
 468 213 468 213 453 178.5 c 128,-1,8
 438 144 438 144 414 114 c 128,-1,9
 390 84 390 84 356 63 c 0,10,11
 323 42 323 42 286.5 29.5 c 128,-1,12
 250 17 250 17 213.5 15.5 c 128,-1,13
 177 14 177 14 141.5 24 c 128,-1,14
 106 34 106 34 75 59 c 0,15,16
 43 84 43 84 37.5 116.5 c 128,-1,17
 32 149 32 149 38.5 184 c 128,-1,18
 45 219 45 219 57.5 255.5 c 128,-1,19
 70 292 70 292 73 326 c 1,20,-1
 71 331 l 1,21,22
 82 365 82 365 87.5 403.5 c 128,-1,23
 93 442 93 442 98.5 481.5 c 128,-1,24
 104 521 104 521 112 559 c 128,-1,25
 120 597 120 597 136.5 629.5 c 128,-1,26
 153 662 153 662 180.5 687 c 128,-1,27
 208 712 208 712 252 725 c 0,28,29
 282 734 282 734 317 736 c 128,-1,30
 352 738 352 738 386.5 731.5 c 128,-1,31
 421 725 421 725 452 709.5 c 128,-1,32
 483 694 483 694 505 669 c 1,0,1
344 471 m 1,33,-1
 340 472 l 1,34,-1
 340 470 l 1,35,-1
 344 469 l 1,36,-1
 344 471 l 1,33,-1
346 537 m 1,37,38
 343 546 343 546 331.5 547 c 128,-1,39
 320 548 320 548 311 549 c 1,40,41
 294 546 294 546 281.5 532.5 c 128,-1,42
 269 519 269 519 273 500 c 1,43,44
 259 426 259 426 245.5 354.5 c 128,-1,45
 232 283 232 283 221 211 c 1,46,47
 240 211 240 211 260.5 218 c 128,-1,48
 281 225 281 225 294 242 c 1,49,50
 317 312 317 312 326 382 c 128,-1,51
 335 452 335 452 348 522 c 1,52,-1
 346 537 l 1,37,38
184 478 m 1,53,54
 181 479 181 479 179 477 c 1,55,-1
 183 474 l 1,56,-1
 184 478 l 1,53,54
104 335 m 1,57,-1
 104 333 l 1,58,-1
 107 332 l 1,59,-1
 108 334 l 1,60,-1
 104 335 l 1,57,-1
260 89 m 1,61,-1
 256 90 l 1,62,-1
 256 88 l 1,63,-1
 260 87 l 1,64,-1
 260 89 l 1,61,-1
EndSplineSet
EndChar

StartChar: R
Encoding: 82 82 60
Width: 670
Flags: W
LayerCount: 2
Fore
SplineSet
621 19 m 1,0,1
 587 20 587 20 546 16.5 c 128,-1,2
 505 13 505 13 471 18 c 1,3,-1
 469 19 l 1,4,5
 461 14 461 14 446.5 15.5 c 128,-1,6
 432 17 432 17 419 16 c 1,7,-1
 409 25 l 1,8,9
 392 81 392 81 374 136.5 c 128,-1,10
 356 192 356 192 336 246 c 1,11,12
 325 248 325 248 312 244.5 c 128,-1,13
 299 241 299 241 288 236 c 1,14,-1
 252 18 l 1,15,-1
 248 14 l 1,16,17
 197 13 197 13 145 13.5 c 128,-1,18
 93 14 93 14 45 12 c 1,19,20
 57 76 57 76 69.5 144.5 c 128,-1,21
 82 213 82 213 94 277 c 2,22,-1
 151 582 l 2,23,24
 158 617 158 617 164.5 650 c 128,-1,25
 171 683 171 683 178 718 c 1,26,-1
 374 728 l 2,27,28
 403 729 403 729 435 728.5 c 128,-1,29
 467 728 467 728 497 720.5 c 128,-1,30
 527 713 527 713 552.5 695.5 c 128,-1,31
 578 678 578 678 595 646 c 0,32,33
 627 584 627 584 620.5 520.5 c 128,-1,34
 614 457 614 457 580 400 c 1,35,36
 540 345 540 345 489 302 c 1,37,-1
 495 276 l 1,38,-1
 598 68 l 2,39,40
 603 57 603 57 609.5 43.5 c 128,-1,41
 616 30 616 30 621 19 c 1,0,1
402 541 m 1,42,43
 390 553 390 553 375 551 c 128,-1,44
 360 549 360 549 342 547 c 1,45,46
 333 511 333 511 327 472 c 128,-1,47
 321 433 321 433 316 395 c 1,48,49
 332 402 332 402 345.5 411 c 128,-1,50
 359 420 359 420 372 431 c 1,51,52
 381 443 381 443 390 456 c 128,-1,53
 399 469 399 469 404 483 c 128,-1,54
 409 497 409 497 409 511.5 c 128,-1,55
 409 526 409 526 402 541 c 1,42,43
547 120 m 1,56,-1
 548 118 l 1,57,-1
 551 121 l 1,58,-1
 547 120 l 1,56,-1
567 102 m 1,59,-1
 564 102 l 1,60,-1
 565 100 l 1,61,-1
 568 101 l 1,62,-1
 567 102 l 1,59,-1
437 142 m 1,63,-1
 434 142 l 1,64,-1
 434 140 l 1,65,-1
 438 141 l 1,66,-1
 437 142 l 1,63,-1
EndSplineSet
EndChar

StartChar: U
Encoding: 85 85 63
Width: 598
Flags: W
LayerCount: 2
Fore
SplineSet
519 356 m 2,0,1
 510 288 510 288 499.5 219 c 128,-1,2
 489 150 489 150 458 91 c 1,3,4
 429 60 429 60 393.5 39 c 128,-1,5
 358 18 358 18 318 7.5 c 128,-1,6
 278 -3 278 -3 236 -1.5 c 128,-1,7
 194 0 194 0 154 15 c 0,8,9
 134 22 134 22 116 36 c 128,-1,10
 98 50 98 50 84.5 68 c 128,-1,11
 71 86 71 86 63.5 106.5 c 128,-1,12
 56 127 56 127 56 148 c 1,13,14
 51 147 51 147 52.5 152.5 c 128,-1,15
 54 158 54 158 53 163 c 1,16,17
 56 230 56 230 64 290.5 c 128,-1,18
 72 351 72 351 80 418 c 2,19,-1
 105 630 l 1,20,21
 108 643 108 643 109.5 658.5 c 128,-1,22
 111 674 111 674 115 689 c 1,23,-1
 113 691 l 1,24,25
 158 692 158 692 202.5 693.5 c 128,-1,26
 247 695 247 695 291 696 c 1,27,-1
 251 259 l 1,28,29
 253 248 253 248 253.5 237 c 128,-1,30
 254 226 254 226 256.5 215.5 c 128,-1,31
 259 205 259 205 264.5 196.5 c 128,-1,32
 270 188 270 188 282 183 c 1,33,34
 295 182 295 182 305 188.5 c 128,-1,35
 315 195 315 195 321 205 c 1,36,37
 333 265 333 265 340.5 324 c 128,-1,38
 348 383 348 383 354.5 442.5 c 128,-1,39
 361 502 361 502 367 562 c 128,-1,40
 373 622 373 622 382 685 c 2,41,-1
 384 699 l 1,42,43
 426 700 426 700 471 701 c 128,-1,44
 516 702 516 702 564 704 c 1,45,-1
 519 356 l 2,0,1
523 583 m 1,46,-1
 521 583 l 1,47,-1
 521 571 l 1,48,-1
 523 571 l 1,49,-1
 523 583 l 1,46,-1
442 532 m 1,50,-1
 441 532 l 1,51,-1
 441 528 l 1,52,-1
 442 528 l 1,53,-1
 442 532 l 1,50,-1
151 548 m 1,54,-1
 149 548 l 1,55,-1
 149 544 l 1,56,-1
 151 544 l 1,57,-1
 151 548 l 1,54,-1
291 177 m 1,58,-1
 290 177 l 1,59,-1
 290 173 l 1,60,-1
 291 173 l 1,61,-1
 291 177 l 1,58,-1
82 328 m 1,62,-1
 80 328 l 1,63,-1
 80 324 l 1,64,-1
 82 324 l 1,65,-1
 82 328 l 1,62,-1
EndSplineSet
EndChar

StartChar: Z
Encoding: 90 90 68
Width: 625
Flags: W
LayerCount: 2
Fore
SplineSet
585 731 m 1,0,1
 573 677 573 677 562 630.5 c 128,-1,2
 551 584 551 584 539 530 c 1,3,-1
 298 214 l 1,4,5
 312 213 312 213 329 210 c 128,-1,6
 346 207 346 207 355 211 c 1,7,8
 376 209 376 209 401 210 c 128,-1,9
 426 211 426 211 447 211 c 1,10,-1
 447 209 l 1,11,12
 452 207 452 207 458 209 c 128,-1,13
 464 211 464 211 467 209 c 1,14,-1
 426 23 l 1,15,-1
 410 24 l 1,16,-1
 58 31 l 1,17,18
 53 33 53 33 49 31.5 c 128,-1,19
 45 30 45 30 41 31 c 1,20,21
 47 89 47 89 59.5 145.5 c 128,-1,22
 72 202 72 202 83 259 c 1,23,-1
 279 515 l 1,24,-1
 310 558 l 1,25,26
 304 563 304 563 295 561.5 c 128,-1,27
 286 560 286 560 278 561 c 1,28,29
 241 560 241 560 210.5 557 c 128,-1,30
 180 554 180 554 146 556 c 1,31,32
 151 572 151 572 153 588.5 c 128,-1,33
 155 605 155 605 162 620 c 1,34,35
 162 643 162 643 172 668 c 128,-1,36
 182 693 182 693 183 716 c 1,37,38
 187 719 187 719 187.5 724.5 c 128,-1,39
 188 730 188 730 189 735 c 128,-1,40
 190 740 190 740 192.5 743.5 c 128,-1,41
 195 747 195 747 203 745 c 1,42,-1
 253 744 l 1,43,-1
 252 742 l 1,44,-1
 275 743 l 1,45,-1
 477 735 l 1,46,47
 503 739 503 739 529.5 736 c 128,-1,48
 556 733 556 733 584 736 c 1,49,-1
 585 731 l 1,0,1
553 619 m 1,50,-1
 552 619 l 1,51,-1
 552 616 l 1,52,-1
 554 616 l 1,53,-1
 553 619 l 1,50,-1
391 682 m 1,54,-1
 387 677 l 1,55,-1
 391 682 l 1,54,-1
233 742 m 1,56,-1
 232 741 l 1,57,-1
 231 745 l 1,58,-1
 232 746 l 1,59,-1
 233 742 l 1,56,-1
EndSplineSet
EndChar

StartChar: asciicircum
Encoding: 94 94 69
Width: 781
Flags: W
LayerCount: 2
Fore
SplineSet
733 438 m 1,0,-1
 499 592 l 1,1,-1
 266 438 l 1,2,-1
 201 438 l 1,3,-1
 429 714 l 1,4,-1
 570 714 l 1,5,-1
 797 438 l 1,6,-1
 733 438 l 1,0,-1
EndSplineSet
EndChar

StartChar: underscore
Encoding: 95 95 70
Width: 467
Flags: W
LayerCount: 2
Fore
SplineSet
0 -236 m 1,0,-1
 0 -98 l 1,1,-1
 500 -98 l 1,2,-1
 500 -236 l 1,3,-1
 0 -236 l 1,0,-1
EndSplineSet
EndChar

StartChar: grave
Encoding: 96 96 71
Width: 426
Flags: W
LayerCount: 2
Fore
SplineSet
456 647 m 0,0,1
 456 624 456 624 446 608.5 c 128,-1,2
 436 593 436 593 417 593 c 0,3,4
 412 593 412 593 403.5 594 c 128,-1,5
 395 595 395 595 383 598 c 2,6,-1
 199 642 l 2,7,8
 178 647 178 647 171 652.5 c 128,-1,9
 164 658 164 658 164 671 c 0,10,11
 164 703 164 703 177.5 727.5 c 128,-1,12
 191 752 191 752 205 752 c 0,13,14
 214 752 214 752 222 749.5 c 128,-1,15
 230 747 230 747 239 744 c 2,16,-1
 406 684 l 2,17,18
 432 675 432 675 444 668 c 128,-1,19
 456 661 456 661 456 647 c 0,0,1
EndSplineSet
EndChar

StartChar: a
Encoding: 97 97 72
Width: 721
Flags: W
LayerCount: 2
Fore
SplineSet
489 -7 m 1,0,-1
 478 110 l 1,1,2
 436 108 436 108 394 111.5 c 128,-1,3
 352 115 352 115 314 114 c 1,4,5
 294 85 294 85 278 53.5 c 128,-1,6
 262 22 262 22 247 -10 c 1,7,8
 192 -13 192 -13 136 -11 c 128,-1,9
 80 -9 80 -9 23 -11 c 1,10,11
 95 120 95 120 165.5 252.5 c 128,-1,12
 236 385 236 385 316 520 c 1,13,-1
 313 521 l 1,14,15
 341 568 341 568 365 614.5 c 128,-1,16
 389 661 389 661 418 706 c 1,17,-1
 416 708 l 1,18,19
 472 710 472 710 525 708 c 128,-1,20
 578 706 578 706 638 709 c 1,21,22
 649 577 649 577 655.5 454 c 128,-1,23
 662 331 662 331 672 200 c 2,24,-1
 687 -2 l 1,25,-1
 489 -7 l 1,0,-1
508 707 m 1,26,-1
 506 706 l 1,27,-1
 507 703 l 1,28,-1
 508 703 l 1,29,-1
 508 707 l 1,26,-1
436 706 m 1,30,-1
 434 706 l 1,31,-1
 434 702 l 1,32,-1
 436 702 l 1,33,-1
 436 706 l 1,30,-1
323 524 m 1,34,-1
 321 524 l 1,35,-1
 321 520 l 1,36,-1
 323 520 l 1,37,-1
 323 524 l 1,34,-1
468 258 m 1,38,39
 465 289 465 289 465.5 320 c 128,-1,40
 466 351 466 351 458 380 c 1,41,42
 453 382 453 382 456.5 384.5 c 128,-1,43
 460 387 460 387 459 389 c 1,44,-1
 402 268 l 1,45,-1
 402 260 l 1,46,47
 420 258 420 258 434.5 258 c 128,-1,48
 449 258 449 258 468 258 c 1,38,39
540 53 m 1,49,-1
 538 52 l 1,50,-1
 539 48 l 1,51,-1
 540 49 l 1,52,-1
 540 53 l 1,49,-1
248 116 m 1,53,-1
 247 115 l 1,54,-1
 247 111 l 1,55,-1
 249 112 l 1,56,-1
 248 116 l 1,53,-1
EndSplineSet
EndChar

StartChar: b
Encoding: 98 98 73
Width: 677
Flags: W
LayerCount: 2
Fore
SplineSet
651 606 m 0,0,1
 658 573 658 573 651 543 c 128,-1,2
 644 513 644 513 628 485.5 c 128,-1,3
 612 458 612 458 589 434 c 128,-1,4
 566 410 566 410 542 390 c 1,5,6
 549 377 549 377 558 372.5 c 128,-1,7
 567 368 567 368 578 357 c 1,8,-1
 577 354 l 1,9,10
 582 356 582 356 582.5 351 c 128,-1,11
 583 346 583 346 585 345 c 1,12,13
 585 342 585 342 588 342 c 1,14,-1
 589 345 l 1,15,16
 607 320 607 320 620.5 292 c 128,-1,17
 634 264 634 264 639.5 234 c 128,-1,18
 645 204 645 204 641 173.5 c 128,-1,19
 637 143 637 143 621 113 c 1,20,21
 598 84 598 84 569 60.5 c 128,-1,22
 540 37 540 37 498 28 c 1,23,-1
 68 25 l 1,24,-1
 178 621 l 1,25,-1
 199 737 l 1,26,-1
 208 741 l 1,27,-1
 389 742 l 1,28,-1
 395 739 l 1,29,-1
 398 744 l 1,30,31
 420 741 420 741 443 743.5 c 128,-1,32
 466 746 466 746 489 747 c 128,-1,33
 512 748 512 748 535 744 c 128,-1,34
 558 740 558 740 579 724 c 0,35,36
 608 702 608 702 626 674 c 128,-1,37
 644 646 644 646 649 612 c 1,38,39
 648 611 648 611 646 608 c 1,40,41
 647 604 647 604 649 606 c 128,-1,42
 651 608 651 608 651 606 c 0,0,1
342 636 m 1,43,-1
 338 635 l 1,44,-1
 339 633 l 1,45,-1
 343 635 l 1,46,-1
 342 636 l 1,43,-1
431 513 m 1,47,48
 437 527 437 527 432 541 c 128,-1,49
 427 555 427 555 417 565 c 1,50,51
 404 573 404 573 389.5 573 c 128,-1,52
 375 573 375 573 364 568 c 1,53,-1
 349 467 l 1,54,55
 369 474 369 474 393 484 c 128,-1,56
 417 494 417 494 431 513 c 1,47,48
405 237 m 0,57,58
 416 248 416 248 414 262 c 128,-1,59
 412 276 412 276 404 288 c 1,60,61
 396 298 396 298 386.5 301.5 c 128,-1,62
 377 305 377 305 366 305 c 128,-1,63
 355 305 355 305 344 303 c 128,-1,64
 333 301 333 301 323 300 c 1,65,66
 322 283 322 283 315 258.5 c 128,-1,67
 308 234 308 234 311 214 c 1,68,69
 323 218 323 218 335.5 218.5 c 128,-1,70
 348 219 348 219 360 219.5 c 128,-1,71
 372 220 372 220 383.5 223.5 c 128,-1,72
 395 227 395 227 405 237 c 0,57,58
170 441 m 1,73,-1
 166 439 l 1,74,-1
 167 437 l 1,75,-1
 171 439 l 1,76,-1
 170 441 l 1,73,-1
EndSplineSet
EndChar

StartChar: d
Encoding: 100 100 75
Width: 638
Flags: W
LayerCount: 2
Fore
SplineSet
567 575 m 1,0,1
 576 509 576 509 576.5 438.5 c 128,-1,2
 577 368 577 368 563.5 300 c 128,-1,3
 550 232 550 232 519.5 169.5 c 128,-1,4
 489 107 489 107 436 57 c 1,5,6
 415 44 415 44 392.5 33 c 128,-1,7
 370 22 370 22 345 17 c 1,8,-1
 88 -8 l 1,9,10
 86 -10 86 -10 83 -10 c 128,-1,11
 80 -10 80 -10 78 -10 c 1,12,13
 83 66 83 66 92 136.5 c 128,-1,14
 101 207 101 207 108 282 c 2,15,-1
 150 720 l 1,16,17
 149 725 149 725 153 725 c 128,-1,18
 157 725 157 725 159 727 c 1,19,20
 196 729 196 729 228 731 c 128,-1,21
 260 733 260 733 291.5 735 c 128,-1,22
 323 737 323 737 354.5 739 c 128,-1,23
 386 741 386 741 421 743 c 1,24,25
 438 739 438 739 454 737 c 128,-1,26
 470 735 470 735 483 721 c 1,27,28
 481 719 481 719 478 717 c 128,-1,29
 475 715 475 715 475 712 c 1,30,31
 484 712 484 712 486 719 c 1,32,33
 502 708 502 708 512.5 696.5 c 128,-1,34
 523 685 523 685 530.5 672 c 128,-1,35
 538 659 538 659 544 645 c 128,-1,36
 550 631 550 631 557 616 c 1,37,38
 559 609 559 609 561 598.5 c 128,-1,39
 563 588 563 588 566 582 c 1,40,-1
 565 575 l 1,41,-1
 567 575 l 1,0,1
480 713 m 1,42,-1
 477 710 l 1,43,-1
 478 709 l 1,44,-1
 481 712 l 1,45,-1
 480 713 l 1,42,-1
400 522 m 1,46,-1
 397 520 l 1,47,-1
 399 518 l 1,48,-1
 402 521 l 1,49,-1
 400 522 l 1,46,-1
264 554 m 1,50,-1
 261 551 l 1,51,-1
 263 550 l 1,52,-1
 265 553 l 1,53,-1
 264 554 l 1,50,-1
478 288 m 1,54,-1
 475 285 l 1,55,-1
 477 283 l 1,56,-1
 480 286 l 1,57,-1
 478 288 l 1,54,-1
477 261 m 1,58,-1
 474 258 l 1,59,-1
 476 257 l 1,60,-1
 478 260 l 1,61,-1
 477 261 l 1,58,-1
378 524 m 1,62,63
 376 535 376 535 371 544 c 128,-1,64
 366 553 366 553 355 561 c 0,65,66
 347 566 347 566 335 565.5 c 128,-1,67
 323 565 323 565 313 564 c 1,68,-1
 286 198 l 1,69,70
 308 203 308 203 325.5 215.5 c 128,-1,71
 343 228 343 228 351 250 c 0,72,73
 362 281 362 281 367 314.5 c 128,-1,74
 372 348 372 348 374 383 c 128,-1,75
 376 418 376 418 376 453.5 c 128,-1,76
 376 489 376 489 378 524 c 1,62,63
405 107 m 1,77,-1
 402 104 l 1,78,-1
 404 102 l 1,79,-1
 407 105 l 1,80,-1
 405 107 l 1,77,-1
EndSplineSet
EndChar

StartChar: i
Encoding: 105 105 80
Width: 359
Flags: W
LayerCount: 2
Fore
SplineSet
307 731 m 1,0,1
 305 683 305 683 299 634.5 c 128,-1,2
 293 586 293 586 287 538 c 2,3,-1
 223 19 l 1,4,5
 181 17 181 17 138 15 c 128,-1,6
 95 13 95 13 53 12 c 1,7,8
 56 54 56 54 59.5 97.5 c 128,-1,9
 63 141 63 141 72 181 c 1,10,-1
 70 193 l 1,11,-1
 125 670 l 1,12,-1
 127 670 l 1,13,14
 127 681 127 681 128 693.5 c 128,-1,15
 129 706 129 706 131 717 c 1,16,17
 173 723 173 723 217.5 724.5 c 128,-1,18
 262 726 262 726 307 731 c 1,0,1
162 338 m 1,19,-1
 161 336 l 1,20,-1
 166 332 l 1,21,-1
 167 334 l 1,22,-1
 162 338 l 1,19,-1
208 244 m 1,23,-1
 207 242 l 1,24,-1
 210 240 l 1,25,-1
 211 241 l 1,26,-1
 208 244 l 1,23,-1
EndSplineSet
EndChar

StartChar: k
Encoding: 107 107 82
Width: 611
Flags: W
LayerCount: 2
Fore
SplineSet
585 681 m 1,0,1
 577 603 577 603 562.5 528.5 c 128,-1,2
 548 454 548 454 528 375 c 1,3,4
 528 370 528 370 524 363 c 128,-1,5
 520 356 520 356 518 348 c 1,6,7
 502 325 502 325 484.5 305.5 c 128,-1,8
 467 286 467 286 444 271 c 1,9,10
 433 266 433 266 424.5 258 c 128,-1,11
 416 250 416 250 403 248 c 1,12,13
 423 192 423 192 448 138.5 c 128,-1,14
 473 85 473 85 491 29 c 1,15,16
 448 31 448 31 407 30.5 c 128,-1,17
 366 30 366 30 323 32 c 1,18,19
 305 70 305 70 298 111 c 128,-1,20
 291 152 291 152 275 190 c 1,21,22
 270 187 270 187 263 183 c 0,23,24
 257 180 257 180 247.5 176 c 128,-1,25
 238 172 238 172 225 167 c 1,26,27
 220 137 220 137 212 108 c 128,-1,28
 204 79 204 79 201 46 c 0,29,30
 200 45 200 45 200 43 c 0,31,32
 199 40 199 40 200 36 c 1,33,34
 160 38 160 38 115.5 37 c 128,-1,35
 71 36 71 36 30 36 c 1,36,37
 45 120 45 120 63 199.5 c 128,-1,38
 81 279 81 279 101 365 c 0,39,40
 111 408 111 408 119 450.5 c 128,-1,41
 127 493 127 493 135.5 535 c 128,-1,42
 144 577 144 577 153 618.5 c 128,-1,43
 162 660 162 660 175 702 c 1,44,45
 215 697 215 697 246.5 696.5 c 128,-1,46
 278 696 278 696 319 696 c 2,47,-1
 340 696 l 1,48,49
 312 599 312 599 295 499.5 c 128,-1,50
 278 400 278 400 255 298 c 1,51,52
 255 293 255 293 260.5 293.5 c 128,-1,53
 266 294 266 294 269 295 c 0,54,55
 293 298 293 298 311.5 313 c 128,-1,56
 330 328 330 328 339 342 c 0,57,58
 355 364 355 364 364.5 390.5 c 128,-1,59
 374 417 374 417 380 443 c 1,60,61
 389 466 389 466 393.5 488.5 c 128,-1,62
 398 511 398 511 403 537 c 0,63,64
 411 577 411 577 417.5 612 c 128,-1,65
 424 647 424 647 430 691 c 1,66,-1
 507 691 l 2,67,68
 515 691 515 691 524 689.5 c 128,-1,69
 533 688 533 688 541 688 c 0,70,71
 546 688 546 688 552 687 c 0,72,73
 562 685 562 685 585 681 c 1,0,1
EndSplineSet
EndChar

StartChar: m
Encoding: 109 109 84
Width: 683
Flags: W
LayerCount: 2
Fore
SplineSet
629 397 m 1,0,-1
 605 221 l 1,1,-1
 574 21 l 1,2,3
 526 17 526 17 477.5 18 c 128,-1,4
 429 19 429 19 384 17 c 1,5,-1
 383 15 l 1,6,-1
 384 17 l 1,7,8
 381 19 381 19 378 16 c 1,9,-1
 378 25 l 1,10,-1
 380 25 l 1,11,12
 388 107 388 107 401 180 c 128,-1,13
 414 253 414 253 422 335 c 1,14,15
 394 318 394 318 375.5 293.5 c 128,-1,16
 357 269 357 269 333 249 c 1,17,18
 320 263 320 263 309.5 281 c 128,-1,19
 299 299 299 299 285 313 c 1,20,-1
 282 310 l 1,21,-1
 242 11 l 1,22,23
 215 9 215 9 189.5 10 c 128,-1,24
 164 11 164 11 138 11 c 1,25,-1
 138 7 l 1,26,27
 133 6 133 6 126 8 c 128,-1,28
 119 10 119 10 114 10 c 1,29,-1
 114 6 l 1,30,31
 99 7 99 7 78.5 6.5 c 128,-1,32
 58 6 58 6 48 10 c 1,33,-1
 43 6 l 1,34,-1
 74 234 l 1,35,-1
 81 277 l 1,36,37
 82 276 82 276 87 278 c 1,38,-1
 84 286 l 1,39,-1
 153 714 l 1,40,41
 157 716 157 716 156.5 717 c 128,-1,42
 156 718 156 718 155 718.5 c 128,-1,43
 154 719 154 719 153.5 720.5 c 128,-1,44
 153 722 153 722 156 724 c 1,45,46
 197 729 197 729 238 729.5 c 128,-1,47
 279 730 279 730 321 730 c 1,48,49
 340 688 340 688 358 645.5 c 128,-1,50
 376 603 376 603 394 561 c 1,51,-1
 399 566 l 1,52,53
 424 609 424 609 448 650.5 c 128,-1,54
 472 692 472 692 495 736 c 1,55,56
 543 735 543 735 589.5 738 c 128,-1,57
 636 741 636 741 683 743 c 1,58,-1
 629 397 l 1,0,-1
329 250 m 1,59,-1
 328 252 l 1,60,-1
 331 254 l 1,61,-1
 332 253 l 1,62,-1
 329 250 l 1,59,-1
486 451 m 1,63,-1
 483 449 l 1,64,-1
 484 447 l 1,65,-1
 487 450 l 1,66,-1
 486 451 l 1,63,-1
579 335 m 1,67,-1
 578 332 l 1,68,-1
 581 335 l 1,69,-1
 579 335 l 1,67,-1
EndSplineSet
EndChar

StartChar: n
Encoding: 110 110 85
Width: 675
Flags: W
LayerCount: 2
Fore
SplineSet
653 721 m 1,0,1
 642 661 642 661 629 600 c 128,-1,2
 616 539 616 539 599 482 c 1,3,-1
 601 480 l 1,4,-1
 592 431 l 1,5,6
 591 433 591 433 590 432 c 128,-1,7
 589 431 589 431 588 431 c 1,8,9
 590 423 590 423 588 414 c 128,-1,10
 586 405 586 405 584 397 c 2,11,-1
 560 291 l 1,12,-1
 502 33 l 1,13,14
 500 30 500 30 500 23.5 c 128,-1,15
 500 17 500 17 497 12 c 1,16,17
 490 12 490 12 482 12 c 128,-1,18
 474 12 474 12 469 16 c 1,19,20
 461 13 461 13 452 13.5 c 128,-1,21
 443 14 443 14 433 15 c 0,22,23
 425 15 425 15 413.5 16 c 128,-1,24
 402 17 402 17 393 19 c 1,25,26
 386 17 386 17 379.5 17 c 128,-1,27
 373 17 373 17 364 17 c 0,28,29
 350 16 350 16 334.5 18 c 128,-1,30
 319 20 319 20 307 20 c 1,31,-1
 357 231 l 1,32,33
 352 258 352 258 338 281 c 128,-1,34
 324 304 324 304 311 331 c 1,35,36
 290 254 290 254 276 178 c 128,-1,37
 262 102 262 102 239 23 c 1,38,39
 208 24 208 24 181.5 23.5 c 128,-1,40
 155 23 155 23 124 25 c 1,41,-1
 123 28 l 1,42,43
 107 24 107 24 89 24.5 c 128,-1,44
 71 25 71 25 53 25 c 1,45,-1
 52 27 l 1,46,-1
 47 24 l 1,47,-1
 118 363 l 1,48,-1
 162 584 l 2,49,50
 170 624 170 624 178 664.5 c 128,-1,51
 186 705 186 705 197 746 c 1,52,53
 235 741 235 741 273 742.5 c 128,-1,54
 311 744 311 744 350 737 c 1,55,-1
 423 571 l 1,56,57
 437 609 437 609 445 649.5 c 128,-1,58
 453 690 453 690 463 731 c 1,59,60
 511 729 511 729 558 726 c 128,-1,61
 605 723 605 723 653 721 c 1,0,1
563 391 m 1,62,-1
 562 388 l 1,63,-1
 565 387 l 1,64,-1
 566 390 l 1,65,-1
 563 391 l 1,62,-1
330 565 m 1,66,-1
 329 562 l 1,67,-1
 330 561 l 1,68,-1
 331 565 l 1,69,-1
 330 565 l 1,66,-1
248 269 m 1,70,-1
 247 266 l 1,71,72
 249 266 249 266 251 268 c 1,73,-1
 248 269 l 1,70,-1
EndSplineSet
EndChar

StartChar: p
Encoding: 112 112 87
Width: 591
Flags: W
LayerCount: 2
Fore
SplineSet
570 578 m 0,0,1
 576 539 576 539 568.5 503 c 128,-1,2
 561 467 561 467 543 435 c 128,-1,3
 525 403 525 403 498.5 376.5 c 128,-1,4
 472 350 472 350 440 331 c 0,5,6
 398 306 398 306 352.5 289 c 128,-1,7
 307 272 307 272 259 256 c 1,8,9
 247 201 247 201 237 145.5 c 128,-1,10
 227 90 227 90 216 33 c 1,11,-1
 36 33 l 1,12,13
 41 61 41 61 47.5 91 c 128,-1,14
 54 121 54 121 62 148 c 1,15,-1
 64 174 l 1,16,-1
 116 408 l 2,17,18
 131 474 131 474 143.5 539.5 c 128,-1,19
 156 605 156 605 172 666 c 1,20,21
 173 679 173 679 177 694 c 128,-1,22
 181 709 181 709 184 715 c 1,23,-1
 182 719 l 1,24,-1
 430 712 l 1,25,26
 455 708 455 708 478.5 696 c 128,-1,27
 502 684 502 684 521 666 c 128,-1,28
 540 648 540 648 553 625.5 c 128,-1,29
 566 603 566 603 570 578 c 0,0,1
294 559 m 1,30,-1
 293 558 l 1,31,-1
 296 556 l 1,32,-1
 298 557 l 1,33,-1
 294 559 l 1,30,-1
412 521 m 1,34,35
 408 529 408 529 402 536.5 c 128,-1,36
 396 544 396 544 387 548 c 1,37,38
 375 557 375 557 357.5 556.5 c 128,-1,39
 340 556 340 556 329 550 c 1,40,41
 320 513 320 513 310.5 477 c 128,-1,42
 301 441 301 441 294 403 c 1,43,44
 313 410 313 410 333 420.5 c 128,-1,45
 353 431 353 431 370.5 445.5 c 128,-1,46
 388 460 388 460 399.5 479 c 128,-1,47
 411 498 411 498 412 521 c 1,34,35
158 600 m 1,48,-1
 156 598 l 1,49,-1
 159 595 l 1,50,-1
 161 597 l 1,51,-1
 158 600 l 1,48,-1
EndSplineSet
EndChar

StartChar: q
Encoding: 113 113 88
Width: 611
Flags: W
LayerCount: 2
Fore
SplineSet
612 77 m 1,0,1
 573 69 573 69 528 60.5 c 128,-1,2
 483 52 483 52 439 40 c 1,3,4
 430 56 430 56 417.5 67 c 128,-1,5
 405 78 405 78 394 93 c 1,6,7
 369 70 369 70 338.5 53.5 c 128,-1,8
 308 37 308 37 275.5 30 c 128,-1,9
 243 23 243 23 209 26 c 128,-1,10
 175 29 175 29 144 45 c 0,11,12
 106 64 106 64 83.5 99.5 c 128,-1,13
 61 135 61 135 57 177 c 1,14,-1
 91 431 l 1,15,16
 92 466 92 466 98.5 506 c 128,-1,17
 105 546 105 546 120 583.5 c 128,-1,18
 135 621 135 621 159.5 651 c 128,-1,19
 184 681 184 681 222 695 c 1,20,-1
 229 696 l 1,21,-1
 228 699 l 1,22,23
 280 730 280 730 337.5 725 c 128,-1,24
 395 720 395 720 449 688 c 0,25,26
 475 672 475 672 490.5 642 c 128,-1,27
 506 612 506 612 510 581 c 0,28,29
 521 489 521 489 510.5 396 c 128,-1,30
 500 303 500 303 490 210 c 1,31,32
 464 215 464 215 436.5 222.5 c 128,-1,33
 409 230 409 230 380 232 c 1,34,35
 408 227 408 227 437.5 217.5 c 128,-1,36
 467 208 467 208 496 199 c 1,37,38
 527 170 527 170 556.5 140.5 c 128,-1,39
 586 111 586 111 612 77 c 1,0,1
279 664 m 1,40,-1
 278 661 l 1,41,-1
 279 660 l 1,42,-1
 280 663 l 1,43,-1
 279 664 l 1,40,-1
228 565 m 1,44,-1
 227 561 l 1,45,-1
 229 560 l 1,46,-1
 231 564 l 1,47,-1
 228 565 l 1,44,-1
408 314 m 1,48,-1
 407 311 l 1,49,-1
 408 310 l 1,50,-1
 410 314 l 1,51,-1
 408 314 l 1,48,-1
369 232 m 1,52,53
 361 234 361 234 350.5 234.5 c 128,-1,54
 340 235 340 235 338 244 c 1,55,56
 343 313 343 313 350.5 379 c 128,-1,57
 358 445 358 445 356 514 c 1,58,59
 353 528 353 528 339 535 c 128,-1,60
 325 542 325 542 314 541 c 1,61,-1
 316 538 l 1,62,63
 300 537 300 537 293.5 520.5 c 128,-1,64
 287 504 287 504 282 491 c 1,65,66
 274 428 274 428 268 364.5 c 128,-1,67
 262 301 262 301 257 237 c 1,68,-1
 259 233 l 1,69,-1
 302 236 l 1,70,71
 307 234 307 234 312 235.5 c 128,-1,72
 317 237 317 237 320 235 c 1,73,74
 333 237 333 237 346.5 235.5 c 128,-1,75
 360 234 360 234 369 232 c 1,52,53
380 237 m 1,76,-1
 378 233 l 1,77,-1
 380 232 l 1,78,-1
 381 236 l 1,79,-1
 380 237 l 1,76,-1
EndSplineSet
EndChar

StartChar: s
Encoding: 115 115 90
Width: 573
Flags: W
LayerCount: 2
Fore
SplineSet
538 585 m 1,0,1
 539 567 539 567 538.5 548 c 128,-1,2
 538 529 538 529 533 512 c 1,3,-1
 536 511 l 1,4,-1
 532 491 l 1,5,6
 497 489 497 489 462 489.5 c 128,-1,7
 427 490 427 490 393 488 c 1,8,9
 391 498 391 498 388.5 514 c 128,-1,10
 386 530 386 530 373 539 c 0,11,12
 357 551 357 551 342.5 546 c 128,-1,13
 328 541 328 541 311 538 c 1,14,-1
 310 533 l 1,15,16
 307 534 307 534 303 532 c 1,17,18
 301 524 301 524 294 509.5 c 128,-1,19
 287 495 287 495 291 481 c 1,20,21
 304 458 304 458 324.5 442.5 c 128,-1,22
 345 427 345 427 368.5 414.5 c 128,-1,23
 392 402 392 402 416 389 c 128,-1,24
 440 376 440 376 458 358 c 1,25,26
 484 326 484 326 496 281 c 128,-1,27
 508 236 508 236 491 194 c 1,28,29
 483 134 483 134 446 91.5 c 128,-1,30
 409 49 409 49 352 32 c 0,31,32
 322 23 322 23 287.5 19 c 128,-1,33
 253 15 253 15 218.5 19 c 128,-1,34
 184 23 184 23 151.5 36 c 128,-1,35
 119 49 119 49 92 73 c 1,36,37
 76 93 76 93 74 115.5 c 128,-1,38
 72 138 72 138 76 161.5 c 128,-1,39
 80 185 80 185 86 209.5 c 128,-1,40
 92 234 92 234 94 258 c 1,41,-1
 103 262 l 1,42,-1
 243 262 l 1,43,44
 241 253 241 253 238.5 243.5 c 128,-1,45
 236 234 236 234 234.5 225 c 128,-1,46
 233 216 233 216 234.5 206.5 c 128,-1,47
 236 197 236 197 243 188 c 1,48,49
 254 180 254 180 267 179 c 128,-1,50
 280 178 280 178 292 181 c 0,51,52
 304 185 304 185 308 198 c 128,-1,53
 312 211 312 211 320 216 c 1,54,55
 326 238 326 238 323 261 c 128,-1,56
 320 284 320 284 303 301 c 0,57,58
 282 321 282 321 257 336.5 c 128,-1,59
 232 352 232 352 207.5 368 c 128,-1,60
 183 384 183 384 162 404 c 128,-1,61
 141 424 141 424 128 453 c 1,62,63
 133 456 133 456 130 458 c 128,-1,64
 127 460 127 460 129 464 c 0,65,66
 135 488 135 488 139 513 c 128,-1,67
 143 538 143 538 149 562 c 128,-1,68
 155 586 155 586 166 608 c 128,-1,69
 177 630 177 630 198 647 c 0,70,71
 249 689 249 689 313 706 c 128,-1,72
 377 723 377 723 438 701 c 0,73,74
 476 687 476 687 503 657 c 128,-1,75
 530 627 530 627 538 585 c 1,0,1
306 196 m 1,76,-1
 305 198 l 1,77,-1
 309 200 l 1,78,-1
 310 198 l 1,79,-1
 306 196 l 1,76,-1
77 128 m 1,80,-1
 73 126 l 1,81,-1
 74 125 l 1,82,-1
 77 126 l 1,83,-1
 77 128 l 1,80,-1
EndSplineSet
EndChar

StartChar: t
Encoding: 116 116 91
Width: 587
Flags: W
LayerCount: 2
Fore
SplineSet
546 737 m 1,0,1
 541 693 541 693 535.5 655.5 c 128,-1,2
 530 618 530 618 522 575 c 1,3,4
 497 569 497 569 468.5 571 c 128,-1,5
 440 573 440 573 411 569 c 1,6,7
 391 438 391 438 372.5 313 c 128,-1,8
 354 188 354 188 329 55 c 1,9,-1
 327 29 l 1,10,-1
 133 22 l 1,11,-1
 131 29 l 1,12,-1
 183 395 l 2,13,14
 189 436 189 436 195 476.5 c 128,-1,15
 201 517 201 517 208 559 c 1,16,17
 173 560 173 560 137 558 c 128,-1,18
 101 556 101 556 65 556 c 1,19,20
 74 599 74 599 81 642 c 128,-1,21
 88 685 88 685 96 728 c 1,22,23
 190 728 190 728 288 734 c 128,-1,24
 386 740 386 740 480 738 c 2,25,-1
 546 737 l 1,0,1
520 590 m 1,26,-1
 516 589 l 1,27,-1
 517 587 l 1,28,-1
 521 588 l 1,29,-1
 520 590 l 1,26,-1
512 575 m 1,30,-1
 514 575 l 1,31,32
 516 579 516 579 515 580 c 1,33,-1
 512 575 l 1,30,-1
332 571 m 1,34,-1
 330 564 l 1,35,-1
 332 571 l 1,34,-1
252 495 m 1,36,-1
 254 495 l 1,37,38
 254 496 254 496 254.5 497 c 128,-1,39
 255 498 255 498 255 500 c 1,40,-1
 252 495 l 1,36,-1
EndSplineSet
EndChar

StartChar: v
Encoding: 118 118 93
Width: 661
Flags: W
LayerCount: 2
Fore
SplineSet
346 -1 m 1,0,1
 287 -4 287 -4 225 -8.5 c 128,-1,2
 163 -13 163 -13 103 -14 c 1,3,-1
 75 508 l 1,4,-1
 65 691 l 1,5,6
 116 696 116 696 165 697 c 128,-1,7
 214 698 214 698 264 699 c 1,8,9
 267 674 267 674 267 650.5 c 128,-1,10
 267 627 267 627 269 601 c 2,11,-1
 279 382 l 1,12,-1
 281 327 l 1,13,-1
 286 325 l 1,14,-1
 374 486 l 1,15,-1
 487 706 l 1,16,17
 488 713 488 713 495 711.5 c 128,-1,18
 502 710 502 710 507 713 c 1,19,20
 554 716 554 716 601.5 718.5 c 128,-1,21
 649 721 649 721 697 720 c 1,22,-1
 346 -1 l 1,0,1
246 656 m 1,23,-1
 245 655 l 1,24,-1
 246 652 l 1,25,-1
 247 652 l 1,26,-1
 246 656 l 1,23,-1
222 633 m 1,27,-1
 221 632 l 1,28,-1
 222 628 l 1,29,-1
 223 629 l 1,30,-1
 222 633 l 1,27,-1
97 413 m 1,31,-1
 92 409 l 1,32,33
 93 406 93 406 98 409 c 1,34,-1
 97 413 l 1,31,-1
85 411 m 1,35,-1
 83 410 l 1,36,-1
 84 406 l 1,37,-1
 86 407 l 1,38,-1
 85 411 l 1,35,-1
EndSplineSet
EndChar

StartChar: w
Encoding: 119 119 94
Width: 784
Flags: W
LayerCount: 2
Fore
SplineSet
759 541 m 1,0,-1
 504 13 l 1,1,2
 505 -4 505 -4 498 -9.5 c 128,-1,3
 491 -15 491 -15 480.5 -15 c 128,-1,4
 470 -15 470 -15 458.5 -13.5 c 128,-1,5
 447 -12 447 -12 439 -15 c 1,6,7
 422 -17 422 -17 401 -17.5 c 128,-1,8
 380 -18 380 -18 360 -19 c 1,9,10
 357 19 357 19 356.5 57 c 128,-1,11
 356 95 356 95 348 132 c 1,12,13
 339 126 339 126 335 113 c 128,-1,14
 331 100 331 100 323 91 c 1,15,-1
 254 -26 l 1,16,17
 216 -29 216 -29 180 -31.5 c 128,-1,18
 144 -34 144 -34 107 -35 c 1,19,20
 98 43 98 43 93 120.5 c 128,-1,21
 88 198 88 198 82 276 c 2,22,-1
 61 541 l 2,23,24
 58 575 58 575 55.5 609 c 128,-1,25
 53 643 53 643 47 676 c 1,26,-1
 52 680 l 1,27,-1
 242 685 l 1,28,29
 244 628 244 628 248.5 571.5 c 128,-1,30
 253 515 253 515 261 461 c 1,31,32
 290 509 290 509 311.5 552.5 c 128,-1,33
 333 596 333 596 359 646 c 0,34,35
 362 650 362 650 365.5 658.5 c 128,-1,36
 369 667 369 667 373 674 c 0,37,38
 375 678 375 678 377.5 682.5 c 128,-1,39
 380 687 380 687 383 692 c 1,40,41
 417 694 417 694 449 694.5 c 128,-1,42
 481 695 481 695 513 698 c 1,43,-1
 521 483 l 1,44,-1
 523 480 l 1,45,46
 554 540 554 540 582.5 592 c 128,-1,47
 611 644 611 644 639 703 c 1,48,49
 690 703 690 703 739.5 706.5 c 128,-1,50
 789 710 789 710 840 712 c 1,51,-1
 759 541 l 1,0,-1
752 547 m 1,52,-1
 750 543 l 1,53,-1
 752 547 l 1,52,-1
712 493 m 1,54,-1
 711 493 l 1,55,-1
 710 489 l 1,56,-1
 712 489 l 1,57,-1
 712 493 l 1,54,-1
420 691 m 1,58,-1
 418 691 l 1,59,-1
 419 695 l 1,60,-1
 420 695 l 1,61,-1
 420 691 l 1,58,-1
401 453 m 1,62,-1
 400 450 l 1,63,-1
 402 449 l 1,64,-1
 403 453 l 1,65,-1
 401 453 l 1,62,-1
199 647 m 1,66,-1
 197 648 l 1,67,-1
 196 644 l 1,68,-1
 199 643 l 1,69,-1
 199 647 l 1,66,-1
426 233 m 1,70,-1
 425 234 l 1,71,-1
 424 230 l 1,72,-1
 426 229 l 1,73,-1
 426 233 l 1,70,-1
350 273 m 1,74,-1
 350 270 l 1,75,-1
 351 269 l 1,76,-1
 352 273 l 1,77,-1
 350 273 l 1,74,-1
495 62 m 1,78,-1
 494 58 l 1,79,-1
 496 57 l 1,80,-1
 497 61 l 1,81,-1
 495 62 l 1,78,-1
349 148 m 1,82,-1
 349 144 l 1,83,-1
 350 143 l 1,84,-1
 351 147 l 1,85,-1
 349 148 l 1,82,-1
EndSplineSet
EndChar

StartChar: x
Encoding: 120 120 95
Width: 727
Flags: W
LayerCount: 2
Fore
SplineSet
151 692 m 1,0,-1
 148 695 l 1,1,-1
 150 696 l 1,2,-1
 153 694 l 1,3,-1
 151 692 l 1,0,-1
751 730 m 1,4,5
 697 651 697 651 639.5 573 c 128,-1,6
 582 495 582 495 525 414 c 0,7,8
 510 393 510 393 494.5 371.5 c 128,-1,9
 479 350 479 350 462 329 c 1,10,-1
 478 267 l 1,11,-1
 560 6 l 1,12,-1
 560 3 l 1,13,-1
 541 4 l 1,14,-1
 542 1 l 1,15,-1
 372 -12 l 1,16,17
 358 19 358 19 349 51 c 128,-1,18
 340 83 340 83 326 114 c 1,19,20
 302 83 302 83 282.5 48 c 128,-1,21
 263 13 263 13 243 -21 c 1,22,-1
 19 -35 l 1,23,-1
 19 -30 l 1,24,25
 17 -29 17 -29 13 -33 c 1,26,27
 42 17 42 17 79 66.5 c 128,-1,28
 116 116 116 116 146 165 c 0,29,30
 172 207 172 207 204.5 255 c 128,-1,31
 237 303 237 303 264 341 c 1,32,33
 247 399 247 399 228 451 c 128,-1,34
 209 503 209 503 191 562 c 0,35,36
 183 587 183 587 173.5 615.5 c 128,-1,37
 164 644 164 644 155 668 c 1,38,-1
 158 667 l 1,39,40
 159 671 159 671 155 673 c 1,41,-1
 158 673 l 1,42,43
 157 678 157 678 154 679 c 128,-1,44
 151 680 151 680 153 685 c 1,45,-1
 150 685 l 1,46,-1
 150 693 l 1,47,-1
 153 694 l 1,48,-1
 152 699 l 1,49,-1
 150 699 l 1,50,-1
 171 699 l 1,51,-1
 171 701 l 1,52,-1
 185 702 l 1,53,-1
 185 699 l 1,54,55
 226 703 226 703 261 705.5 c 128,-1,56
 296 708 296 708 335 709 c 1,57,58
 348 665 348 665 363 624 c 128,-1,59
 378 583 378 583 393 541 c 1,60,61
 425 580 425 580 452.5 622.5 c 128,-1,62
 480 665 480 665 514 701 c 1,63,64
 512 706 512 706 517.5 709.5 c 128,-1,65
 523 713 523 713 524 719 c 1,66,-1
 562 720 l 1,67,-1
 562 717 l 1,68,69
 609 725 609 725 657.5 725 c 128,-1,70
 706 725 706 725 751 730 c 1,4,5
156 683 m 1,71,-1
 155 681 l 1,72,-1
 152 684 l 1,73,-1
 153 685 l 1,74,-1
 156 683 l 1,71,-1
440 117 m 1,75,-1
 441 114 l 1,76,-1
 443 116 l 1,77,-1
 440 117 l 1,75,-1
410 49 m 1,78,-1
 408 47 l 1,79,-1
 411 44 l 1,80,-1
 413 46 l 1,81,-1
 410 49 l 1,78,-1
EndSplineSet
EndChar

StartChar: y
Encoding: 121 121 96
Width: 659
Flags: W
LayerCount: 2
Fore
SplineSet
650 724 m 1,0,1
 592 623 592 623 534 524 c 128,-1,2
 476 425 476 425 413 327 c 1,3,-1
 396 66 l 1,4,-1
 392 17 l 1,5,6
 339 12 339 12 286 10 c 128,-1,7
 233 8 233 8 179 7 c 1,8,-1
 223 401 l 1,9,-1
 71 677 l 1,10,-1
 54 709 l 1,11,12
 105 717 105 717 157.5 716 c 128,-1,13
 210 715 210 715 263 717 c 1,14,15
 280 680 280 680 295 639.5 c 128,-1,16
 310 599 310 599 330 563 c 1,17,18
 353 601 353 601 377 640 c 128,-1,19
 401 679 401 679 423 720 c 1,20,21
 428 715 428 715 433 719.5 c 128,-1,22
 438 724 438 724 445 720 c 1,23,-1
 650 724 l 1,0,1
329 558 m 1,24,-1
 328 555 l 1,25,-1
 329 555 l 1,26,-1
 331 558 l 1,27,-1
 329 558 l 1,24,-1
198 657 m 1,28,-1
 199 654 l 1,29,-1
 202 652 l 1,30,-1
 198 657 l 1,28,-1
240 535 m 1,31,-1
 238 531 l 1,32,-1
 239 530 l 1,33,-1
 241 534 l 1,34,-1
 240 535 l 1,31,-1
386 316 m 1,35,-1
 385 312 l 1,36,-1
 386 312 l 1,37,-1
 388 315 l 1,38,-1
 386 316 l 1,35,-1
272 317 m 1,39,-1
 270 313 l 1,40,-1
 271 313 l 1,41,-1
 273 316 l 1,42,-1
 272 317 l 1,39,-1
EndSplineSet
EndChar

StartChar: bar
Encoding: 124 124 98
Width: 370
Flags: W
LayerCount: 2
Fore
SplineSet
182 -236 m 1,0,-1
 182 764 l 1,1,-1
 319 764 l 1,2,-1
 319 -236 l 1,3,-1
 182 -236 l 1,0,-1
EndSplineSet
EndChar

StartChar: asciitilde
Encoding: 126 126 99
Width: 779
Flags: W
LayerCount: 2
Fore
SplineSet
747 265 m 1,0,1
 699 233 699 233 655 216.5 c 128,-1,2
 611 200 611 200 566 200 c 0,3,4
 530 200 530 200 498 208.5 c 128,-1,5
 466 217 466 217 436 228 c 0,6,7
 398 241 398 241 359 251.5 c 128,-1,8
 320 262 320 262 274 262 c 0,9,10
 230 262 230 262 185 242.5 c 128,-1,11
 140 223 140 223 87 185 c 1,12,-1
 87 331 l 1,13,14
 141 365 141 365 188.5 383 c 128,-1,15
 236 401 236 401 286 401 c 0,16,17
 320 401 320 401 353.5 393.5 c 128,-1,18
 387 386 387 386 422 375 c 0,19,20
 459 363 459 363 494 350.5 c 128,-1,21
 529 338 529 338 568 338 c 0,22,23
 612 338 612 338 655.5 356.5 c 128,-1,24
 699 375 699 375 747 411 c 1,25,-1
 747 265 l 1,26,-1
 747 265 l 1,0,1
EndSplineSet
EndChar

StartChar: brokenbar
Encoding: 166 166 10
Width: 364
Flags: W
LayerCount: 2
Fore
SplineSet
182 329 m 1,0,-1
 182 699 l 1,1,-1
 319 699 l 1,2,-1
 319 329 l 1,3,-1
 182 329 l 1,0,-1
182 -171 m 1,4,-1
 182 199 l 1,5,-1
 319 199 l 1,6,-1
 319 -171 l 1,7,-1
 182 -171 l 1,4,-1
EndSplineSet
EndChar

StartChar: dieresis
Encoding: 168 168 131
Width: 456
Flags: W
LayerCount: 2
Fore
SplineSet
489 669 m 0,0,1
 489 634 489 634 468 613 c 128,-1,2
 447 592 447 592 416 592 c 0,3,4
 390 592 390 592 374.5 608.5 c 128,-1,5
 359 625 359 625 359 651 c 0,6,7
 359 682 359 682 380.5 706 c 128,-1,8
 402 730 402 730 433 730 c 0,9,10
 459 730 459 730 474 713.5 c 128,-1,11
 489 697 489 697 489 669 c 0,0,1
280 670 m 0,12,13
 280 635 280 635 259 613.5 c 128,-1,14
 238 592 238 592 204 592 c 0,15,16
 181 592 181 592 165.5 608.5 c 128,-1,17
 150 625 150 625 150 651 c 0,18,19
 150 683 150 683 171.5 706.5 c 128,-1,20
 193 730 193 730 224 730 c 0,21,22
 250 730 250 730 265 714 c 128,-1,23
 280 698 280 698 280 670 c 0,12,13
EndSplineSet
EndChar

StartChar: logicalnot
Encoding: 172 172 133
Width: 756
Flags: W
LayerCount: 2
Fore
SplineSet
576 179 m 1,0,-1
 576 294 l 1,1,-1
 124 294 l 1,2,-1
 124 424 l 1,3,-1
 709 424 l 1,4,-1
 709 179 l 1,5,-1
 576 179 l 1,0,-1
EndSplineSet
EndChar

StartChar: macron
Encoding: 175 175 175
AltUni2: 0002c9.ffffffff.0 0002c9.ffffffff.0
Width: 431
Flags: W
LayerCount: 2
Fore
SplineSet
462 687 m 0,0,1
 462 665 462 665 459 651.5 c 128,-1,2
 456 638 456 638 450.5 630.5 c 128,-1,3
 445 623 445 623 436.5 620.5 c 128,-1,4
 428 618 428 618 416 618 c 2,5,-1
 215 618 l 2,6,7
 196 618 196 618 188.5 621 c 128,-1,8
 181 624 181 624 181 638 c 0,9,10
 181 680 181 680 192.5 693.5 c 128,-1,11
 204 707 204 707 227 707 c 2,12,-1
 420 707 l 2,13,14
 443 707 443 707 452.5 704.5 c 128,-1,15
 462 702 462 702 462 687 c 0,0,1
EndSplineSet
EndChar

StartChar: degree
Encoding: 176 176 127
Width: 301
Flags: W
LayerCount: 2
Fore
SplineSet
322 561 m 0,0,1
 322 529 322 529 309.5 500.5 c 128,-1,2
 297 472 297 472 276 450.5 c 128,-1,3
 255 429 255 429 226 416.5 c 128,-1,4
 197 404 197 404 164 404 c 256,5,6
 131 404 131 404 102.5 416 c 128,-1,7
 74 428 74 428 53 449.5 c 128,-1,8
 32 471 32 471 19.5 499.5 c 128,-1,9
 7 528 7 528 7 561 c 256,10,11
 7 594 7 594 19.5 623 c 128,-1,12
 32 652 32 652 53.5 673 c 128,-1,13
 75 694 75 694 104 706.5 c 128,-1,14
 133 719 133 719 165 719 c 0,15,16
 198 719 198 719 226.5 706.5 c 128,-1,17
 255 694 255 694 276 673 c 128,-1,18
 297 652 297 652 309.5 623 c 128,-1,19
 322 594 322 594 322 561 c 0,0,1
239 562 m 256,20,21
 239 592 239 592 217 614 c 128,-1,22
 195 636 195 636 164 636 c 0,23,24
 134 636 134 636 112.5 614.5 c 128,-1,25
 91 593 91 593 91 562 c 256,26,27
 91 531 91 531 112 509 c 128,-1,28
 133 487 133 487 165 487 c 0,29,30
 196 487 196 487 217.5 509.5 c 128,-1,31
 239 532 239 532 239 562 c 256,20,21
EndSplineSet
EndChar

StartChar: plusminus
Encoding: 177 177 132
Width: 728
Flags: W
LayerCount: 2
Fore
SplineSet
485 332 m 1,0,-1
 485 181 l 1,1,-1
 348 181 l 1,2,-1
 348 332 l 1,3,-1
 124 332 l 1,4,-1
 124 465 l 1,5,-1
 348 465 l 1,6,-1
 348 616 l 1,7,-1
 485 616 l 1,8,-1
 485 465 l 1,9,-1
 709 465 l 1,10,-1
 709 332 l 1,11,-1
 485 332 l 1,0,-1
124 -20 m 1,12,-1
 124 113 l 1,13,-1
 709 113 l 1,14,-1
 709 -20 l 1,15,-1
 124 -20 l 1,12,-1
EndSplineSet
EndChar

StartChar: acute
Encoding: 180 180 130
Width: 463
Flags: W
LayerCount: 2
Fore
SplineSet
496 671 m 0,0,1
 496 658 496 658 489 652.5 c 128,-1,2
 482 647 482 647 461 642 c 2,3,-1
 277 598 l 2,4,5
 265 595 265 595 256.5 594 c 128,-1,6
 248 593 248 593 243 593 c 0,7,8
 224 593 224 593 214 608.5 c 128,-1,9
 204 624 204 624 204 647 c 0,10,11
 204 661 204 661 216 668 c 128,-1,12
 228 675 228 675 254 684 c 2,13,-1
 421 744 l 2,14,15
 430 747 430 747 438 749.5 c 128,-1,16
 446 752 446 752 455 752 c 0,17,18
 469 752 469 752 482.5 727.5 c 128,-1,19
 496 703 496 703 496 671 c 0,0,1
EndSplineSet
EndChar

StartChar: periodcentered
Encoding: 183 183 153
AltUni2: 002219.ffffffff.0 002219.ffffffff.0
Width: 295
Flags: W
LayerCount: 2
Fore
SplineSet
271 309 m 256,0,1
 271 284 271 284 262 262 c 128,-1,2
 253 240 253 240 237 224 c 128,-1,3
 221 208 221 208 199 199 c 128,-1,4
 177 190 177 190 152 190 c 256,5,6
 127 190 127 190 105 199 c 128,-1,7
 83 208 83 208 67 224 c 128,-1,8
 51 240 51 240 42 262 c 128,-1,9
 33 284 33 284 33 309 c 256,10,11
 33 334 33 334 42 356 c 128,-1,12
 51 378 51 378 67 394 c 128,-1,13
 83 410 83 410 105 419 c 128,-1,14
 127 428 127 428 152 428 c 256,15,16
 177 428 177 428 199 419 c 128,-1,17
 221 410 221 410 237 394 c 128,-1,18
 253 378 253 378 262 356 c 128,-1,19
 271 334 271 334 271 309 c 256,0,1
EndSplineSet
EndChar

StartChar: cedilla
Encoding: 184 184 179
Width: 353
Flags: W
LayerCount: 2
Fore
SplineSet
349 -123 m 0,0,1
 349 -169 349 -169 313.5 -197 c 128,-1,2
 278 -225 278 -225 213 -225 c 0,3,4
 146 -225 146 -225 106.5 -208.5 c 128,-1,5
 67 -192 67 -192 67 -170 c 0,6,7
 67 -156 67 -156 76 -146.5 c 128,-1,8
 85 -137 85 -137 99 -137 c 0,9,10
 108 -137 108 -137 118.5 -140.5 c 128,-1,11
 129 -144 129 -144 141.5 -148 c 128,-1,12
 154 -152 154 -152 168.5 -155.5 c 128,-1,13
 183 -159 183 -159 200 -159 c 0,14,15
 248 -159 248 -159 248 -128 c 0,16,17
 248 -109 248 -109 229.5 -104.5 c 128,-1,18
 211 -100 211 -100 171 -100 c 0,19,20
 159 -100 159 -100 154.5 -95.5 c 128,-1,21
 150 -91 150 -91 150 -75 c 0,22,23
 150 -70 150 -70 153 -51 c 128,-1,24
 156 -32 156 -32 161 0 c 1,25,-1
 219 0 l 1,26,27
 216 -27 216 -27 216 -47 c 1,28,29
 235 -43 235 -43 255 -43 c 0,30,31
 300 -43 300 -43 324.5 -65 c 128,-1,32
 349 -87 349 -87 349 -123 c 0,0,1
EndSplineSet
EndChar

StartChar: Ccedilla
Encoding: 199 199 101
Width: 571
Flags: W
LayerCount: 2
Fore
SplineSet
547 611 m 0,0,1
 548 580 548 580 542.5 546.5 c 128,-1,2
 537 513 537 513 532 485 c 1,3,4
 498 483 498 483 459 485.5 c 128,-1,5
 420 488 420 488 384 485 c 1,6,7
 385 500 385 500 388 516.5 c 128,-1,8
 391 533 391 533 391 549 c 128,-1,9
 391 565 391 565 386 578.5 c 128,-1,10
 381 592 381 592 368 602 c 1,11,12
 364 608 364 608 356 609 c 128,-1,13
 348 610 348 610 342 610 c 1,14,15
 312 600 312 600 301 573.5 c 128,-1,16
 290 547 290 547 281 519 c 1,17,18
 267 447 267 447 255 377.5 c 128,-1,19
 243 308 243 308 235 231 c 1,20,21
 235 220 235 220 240 209 c 128,-1,22
 245 198 245 198 253 192 c 1,23,24
 264 187 264 187 276.5 185 c 128,-1,25
 289 183 289 183 299 191 c 1,26,27
 315 201 315 201 324 216.5 c 128,-1,28
 333 232 333 232 338.5 250 c 128,-1,29
 344 268 344 268 347 287 c 128,-1,30
 350 306 350 306 354 324 c 1,31,32
 391 327 391 327 428 322.5 c 128,-1,33
 465 318 465 318 502 320 c 1,34,35
 497 271 497 271 482.5 225.5 c 128,-1,36
 468 180 468 180 442.5 142.5 c 128,-1,37
 417 105 417 105 381 76 c 128,-1,38
 345 47 345 47 297 31 c 0,39,40
 289 29 289 29 278 27 c 128,-1,41
 267 25 267 25 272 11 c 0,42,43
 276 -3 276 -3 273.5 -18 c 128,-1,44
 271 -33 271 -33 265 -46 c 128,-1,45
 259 -59 259 -59 250.5 -69.5 c 128,-1,46
 242 -80 242 -80 232 -86 c 2,47,-1
 209 -99 l 1,48,-1
 207 -97 l 1,49,-1
 202 -100 l 2,50,51
 204 -98 204 -98 202.5 -96.5 c 128,-1,52
 201 -95 201 -95 200 -93 c 1,53,-1
 202 -92 l 1,54,55
 194 -78 194 -78 191 -62 c 128,-1,56
 188 -46 188 -46 173 -37 c 1,57,58
 160 -31 160 -31 148 -33.5 c 128,-1,59
 136 -36 136 -36 124 -38 c 1,60,61
 119 -21 119 -21 123 -1.5 c 128,-1,62
 127 18 127 18 131 37 c 1,63,-1
 136 40 l 1,64,65
 107 54 107 54 84 77.5 c 128,-1,66
 61 101 61 101 48 130 c 1,67,68
 40 159 40 159 42.5 189 c 128,-1,69
 45 219 45 219 45 248 c 1,70,-1
 76 452 l 2,71,72
 81 486 81 486 86 521.5 c 128,-1,73
 91 557 91 557 101.5 590 c 128,-1,74
 112 623 112 623 129.5 652 c 128,-1,75
 147 681 147 681 178 702 c 256,76,77
 209 723 209 723 243.5 739 c 128,-1,78
 278 755 278 755 313 762 c 128,-1,79
 348 769 348 769 383 765.5 c 128,-1,80
 418 762 418 762 451 744 c 0,81,82
 469 734 469 734 486 720.5 c 128,-1,83
 503 707 503 707 516.5 689.5 c 128,-1,84
 530 672 530 672 538.5 652.5 c 128,-1,85
 547 633 547 633 547 611 c 0,0,1
212 -100 m 1,86,-1
 210 -100 l 1,87,-1
 211 -96 l 1,88,-1
 213 -96 l 1,89,-1
 212 -100 l 1,86,-1
479 711 m 1,90,-1
 477 715 l 1,91,-1
 479 711 l 1,90,-1
415 637 m 1,92,-1
 414 633 l 1,93,-1
 415 633 l 1,94,-1
 416 637 l 1,95,-1
 415 637 l 1,92,-1
272 544 m 1,96,97
 272 546 272 546 269.5 546 c 128,-1,98
 267 546 267 546 265 547 c 0,99,100
 263 547 263 547 262.5 545 c 128,-1,101
 262 543 262 543 262 542 c 1,102,103
 264 542 264 542 264 541 c 128,-1,104
 264 540 264 540 266 539 c 1,105,-1
 272 544 l 1,96,97
207 -91 m 1,106,-1
 202 -94 l 1,107,-1
 203 -96 l 1,108,-1
 202 -94 l 1,109,-1
 207 -91 l 1,106,-1
EndSplineSet
EndChar

StartChar: Eacute
Encoding: 201 201 102
Width: 531
Flags: W
LayerCount: 2
Fore
SplineSet
495 696 m 1,0,1
 488 655 488 655 482 615 c 128,-1,2
 476 575 476 575 469 533 c 1,3,4
 436 531 436 531 404.5 533 c 128,-1,5
 373 535 373 535 340 533 c 1,6,-1
 336 528 l 1,7,-1
 317 412 l 1,8,9
 352 411 352 411 382 410.5 c 128,-1,10
 412 410 412 410 447 409 c 1,11,12
 442 374 442 374 436.5 339.5 c 128,-1,13
 431 305 431 305 426 270 c 1,14,15
 394 267 394 267 358 268.5 c 128,-1,16
 322 270 322 270 287 268 c 1,17,18
 283 261 283 261 282.5 249.5 c 128,-1,19
 282 238 282 238 280 231 c 1,20,-1
 272 162 l 1,21,22
 308 157 308 157 338.5 159 c 128,-1,23
 369 161 369 161 407 162 c 1,24,25
 403 124 403 124 396 88 c 128,-1,26
 389 52 389 52 385 14 c 1,27,28
 300 11 300 11 218.5 14 c 128,-1,29
 137 17 137 17 52 12 c 1,30,31
 62 71 62 71 73 125 c 128,-1,32
 84 179 84 179 92 239 c 1,33,-1
 93 239 l 1,34,35
 101 285 101 285 109 329.5 c 128,-1,36
 117 374 117 374 125 422 c 1,37,38
 127 423 127 423 127.5 429.5 c 128,-1,39
 128 436 128 436 132 440 c 1,40,41
 139 498 139 498 151.5 564 c 128,-1,42
 164 630 164 630 174 695 c 1,43,-1
 248 699 l 1,44,45
 252 713 252 713 256 726 c 128,-1,46
 260 739 260 739 262 754 c 1,47,-1
 418 757 l 1,48,49
 413 743 413 743 409 728 c 128,-1,50
 405 713 405 713 403 696 c 1,51,52
 430 696 430 696 451 693.5 c 128,-1,53
 472 691 472 691 495 696 c 1,0,1
130 451 m 1,54,-1
 130 453 l 1,55,-1
 134 453 l 1,56,-1
 134 451 l 1,57,-1
 130 451 l 1,54,-1
128 443 m 1,58,-1
 128 445 l 1,59,-1
 132 445 l 1,60,-1
 132 443 l 1,61,-1
 128 443 l 1,58,-1
301 606 m 1,62,-1
 309 587 l 1,63,-1
 314 588 l 1,64,-1
 301 606 l 1,62,-1
254 444 m 1,65,-1
 252 442 l 1,66,-1
 254 440 l 1,67,-1
 254 444 l 1,65,-1
147 408 m 1,68,-1
 143 408 l 1,69,-1
 143 406 l 1,70,-1
 147 407 l 1,71,-1
 147 408 l 1,68,-1
151 403 m 1,72,-1
 147 402 l 1,73,-1
 147 401 l 1,74,-1
 151 401 l 1,75,-1
 151 403 l 1,72,-1
128 386 m 1,76,-1
 124 386 l 1,77,-1
 124 384 l 1,78,-1
 128 384 l 1,79,-1
 128 386 l 1,76,-1
272 88 m 1,80,-1
 268 87 l 1,81,-1
 268 86 l 1,82,-1
 272 86 l 1,83,-1
 272 88 l 1,80,-1
EndSplineSet
EndChar

StartChar: multiply
Encoding: 215 215 12
Width: 768
Flags: W
LayerCount: 2
Fore
SplineSet
636 -4 m 1,0,-1
 427 205 l 1,1,-1
 218 -4 l 1,2,-1
 125 89 l 1,3,-1
 334 298 l 1,4,-1
 125 507 l 1,5,-1
 218 601 l 1,6,-1
 427 392 l 1,7,-1
 636 601 l 1,8,-1
 730 507 l 1,9,-1
 521 298 l 1,10,-1
 730 89 l 1,11,-1
 636 -4 l 1,0,-1
EndSplineSet
EndChar

StartChar: dotlessi
Encoding: 305 305 172
Width: 398
Flags: W
LayerCount: 2
Fore
SplineSet
346 125 m 0,0,1
 346 107 346 107 333.5 87.5 c 128,-1,2
 321 68 321 68 296 50 c 0,3,4
 256 21 256 21 213.5 6.5 c 128,-1,5
 171 -8 171 -8 133 -8 c 0,6,7
 40 -8 40 -8 40 63 c 0,8,9
 40 81 40 81 43 103 c 128,-1,10
 46 125 46 125 51 151 c 2,11,-1
 85 317 l 2,12,13
 89 335 89 335 91 346.5 c 128,-1,14
 93 358 93 358 93 365 c 0,15,16
 93 374 93 374 91 377.5 c 128,-1,17
 89 381 89 381 85 382.5 c 128,-1,18
 81 384 81 384 74.5 384.5 c 128,-1,19
 68 385 68 385 59 387 c 0,20,21
 33 393 33 393 33 418 c 0,22,23
 33 459 33 459 100 492 c 0,24,25
 144 513 144 513 194 525 c 128,-1,26
 244 537 244 537 284 537 c 0,27,28
 310 537 310 537 325.5 523 c 128,-1,29
 341 509 341 509 341 483 c 0,30,31
 341 460 341 460 324 372 c 2,32,-1
 307 286 l 2,33,34
 297 238 297 238 293 209.5 c 128,-1,35
 289 181 289 181 289 171 c 0,36,37
 289 155 289 155 296 155 c 0,38,39
 304 155 304 155 310 156 c 128,-1,40
 316 157 316 157 321 157 c 0,41,42
 346 157 346 157 346 125 c 0,0,1
EndSplineSet
EndChar

StartChar: circumflex
Encoding: 710 710 173
Width: 404
Flags: W
LayerCount: 2
Fore
SplineSet
433 592 m 0,0,1
 433 583 433 583 422.5 580.5 c 128,-1,2
 412 578 412 578 391 578 c 2,3,-1
 380 578 l 2,4,5
 365 578 365 578 355.5 579.5 c 128,-1,6
 346 581 346 581 341 588 c 0,7,8
 335 596 335 596 323 616 c 128,-1,9
 311 636 311 636 294 671 c 1,10,11
 273 645 273 645 256 625 c 128,-1,12
 239 605 239 605 224 592 c 0,13,14
 212 582 212 582 201 579.5 c 128,-1,15
 190 577 190 577 177 577 c 2,16,-1
 153 577 l 2,17,18
 135 577 135 577 125.5 581.5 c 128,-1,19
 116 586 116 586 116 591 c 256,20,21
 116 596 116 596 122.5 604 c 128,-1,22
 129 612 129 612 140 624 c 2,23,-1
 242 731 l 2,24,25
 251 741 251 741 262.5 743 c 128,-1,26
 274 745 274 745 291 745 c 2,27,-1
 300 745 l 2,28,29
 317 745 317 745 327.5 744 c 128,-1,30
 338 743 338 743 344 740 c 128,-1,31
 350 737 350 737 353.5 732.5 c 128,-1,32
 357 728 357 728 361 721 c 2,33,-1
 425 610 l 2,34,35
 427 605 427 605 430 601.5 c 128,-1,36
 433 598 433 598 433 592 c 0,0,1
EndSplineSet
EndChar

StartChar: caron
Encoding: 711 711 182
Width: 469
Flags: W
LayerCount: 2
Fore
SplineSet
502 744 m 0,0,1
 502 739 502 739 495.5 731 c 128,-1,2
 489 723 489 723 478 711 c 2,3,-1
 376 603 l 2,4,5
 367 593 367 593 355.5 591 c 128,-1,6
 344 589 344 589 327 589 c 2,7,-1
 318 589 l 2,8,9
 301 589 301 589 290.5 590 c 128,-1,10
 280 591 280 591 274 594 c 128,-1,11
 268 597 268 597 264.5 601.5 c 128,-1,12
 261 606 261 606 257 613 c 2,13,-1
 193 724 l 2,14,15
 191 729 191 729 188 733 c 128,-1,16
 185 737 185 737 185 743 c 0,17,18
 185 752 185 752 195.5 754.5 c 128,-1,19
 206 757 206 757 227 757 c 2,20,-1
 238 757 l 2,21,22
 253 757 253 757 262.5 755.5 c 128,-1,23
 272 754 272 754 277 747 c 0,24,25
 283 739 283 739 295.5 718.5 c 128,-1,26
 308 698 308 698 325 663 c 1,27,28
 346 689 346 689 363 709 c 128,-1,29
 380 729 380 729 395 742 c 0,30,31
 407 752 407 752 418 754.5 c 128,-1,32
 429 757 429 757 442 757 c 2,33,-1
 466 757 l 2,34,35
 502 757 502 757 502 744 c 0,0,1
EndSplineSet
EndChar

StartChar: breve
Encoding: 728 728 176
Width: 430
Flags: W
LayerCount: 2
Fore
SplineSet
461 733 m 0,0,1
 461 728 461 728 452.5 708 c 128,-1,2
 444 688 444 688 423 662 c 0,3,4
 390 620 390 620 350.5 598 c 128,-1,5
 311 576 311 576 275 576 c 0,6,7
 221 576 221 576 191 614 c 128,-1,8
 161 652 161 652 161 710 c 0,9,10
 161 747 161 747 183 747 c 0,11,12
 199 747 199 747 202.5 737.5 c 128,-1,13
 206 728 206 728 214 713 c 0,14,15
 231 678 231 678 288 678 c 0,16,17
 337 678 337 678 389 712 c 0,18,19
 412 727 412 727 425.5 737 c 128,-1,20
 439 747 439 747 448 747 c 0,21,22
 461 747 461 747 461 733 c 0,0,1
EndSplineSet
EndChar

StartChar: dotaccent
Encoding: 729 729 177
Width: 361
Flags: W
LayerCount: 2
Fore
SplineSet
387 671 m 0,0,1
 387 635 387 635 365 612 c 128,-1,2
 343 589 343 589 311 589 c 0,3,4
 284 589 284 589 268 606 c 128,-1,5
 252 623 252 623 252 651 c 0,6,7
 252 667 252 667 258 682.5 c 128,-1,8
 264 698 264 698 274.5 709 c 128,-1,9
 285 720 285 720 299 727 c 128,-1,10
 313 734 313 734 329 734 c 0,11,12
 355 734 355 734 371 717 c 128,-1,13
 387 700 387 700 387 671 c 0,0,1
EndSplineSet
EndChar

StartChar: ring
Encoding: 730 730 178
Width: 429
Flags: W
LayerCount: 2
Fore
SplineSet
460 713 m 256,0,1
 460 684 460 684 449 658.5 c 128,-1,2
 438 633 438 633 419.5 614 c 128,-1,3
 401 595 401 595 375.5 584.5 c 128,-1,4
 350 574 350 574 320 574 c 0,5,6
 291 574 291 574 265.5 584.5 c 128,-1,7
 240 595 240 595 221.5 614 c 128,-1,8
 203 633 203 633 192.5 658.5 c 128,-1,9
 182 684 182 684 182 713 c 256,10,11
 182 742 182 742 192.5 767.5 c 128,-1,12
 203 793 203 793 222 811.5 c 128,-1,13
 241 830 241 830 266 841 c 128,-1,14
 291 852 291 852 320 852 c 256,15,16
 349 852 349 852 374.5 841 c 128,-1,17
 400 830 400 830 419 811.5 c 128,-1,18
 438 793 438 793 449 767.5 c 128,-1,19
 460 742 460 742 460 713 c 256,0,1
377 713 m 256,20,21
 377 736 377 736 360.5 752.5 c 128,-1,22
 344 769 344 769 321 769 c 256,23,24
 298 769 298 769 281.5 752.5 c 128,-1,25
 265 736 265 736 265 713 c 256,26,27
 265 690 265 690 281 673.5 c 128,-1,28
 297 657 297 657 321 657 c 0,29,30
 344 657 344 657 360.5 673.5 c 128,-1,31
 377 690 377 690 377 713 c 256,20,21
EndSplineSet
EndChar

StartChar: ogonek
Encoding: 731 731 181
Width: 375
Flags: W
LayerCount: 2
Fore
SplineSet
309 -145 m 0,0,1
 309 -157 309 -157 299.5 -171 c 128,-1,2
 290 -185 290 -185 274 -198 c 128,-1,3
 258 -211 258 -211 236.5 -219.5 c 128,-1,4
 215 -228 215 -228 191 -228 c 0,5,6
 153 -228 153 -228 131 -208 c 128,-1,7
 109 -188 109 -188 109 -152 c 0,8,9
 109 -108 109 -108 141 -68.5 c 128,-1,10
 173 -29 173 -29 237 15 c 1,11,-1
 277 15 l 1,12,13
 195 -54 195 -54 195 -113 c 0,14,15
 195 -154 195 -154 230 -154 c 0,16,17
 241 -154 241 -154 249.5 -150.5 c 128,-1,18
 258 -147 258 -147 265.5 -142.5 c 128,-1,19
 273 -138 273 -138 279 -134 c 128,-1,20
 285 -130 285 -130 292 -130 c 0,21,22
 298 -130 298 -130 303.5 -134.5 c 128,-1,23
 309 -139 309 -139 309 -145 c 0,0,1
EndSplineSet
EndChar

StartChar: tilde
Encoding: 732 732 174
Width: 476
Flags: W
LayerCount: 2
Fore
SplineSet
510 730 m 0,0,1
 510 709 510 709 500.5 686.5 c 128,-1,2
 491 664 491 664 474.5 645 c 128,-1,3
 458 626 458 626 436 614 c 128,-1,4
 414 602 414 602 389 602 c 0,5,6
 367 602 367 602 345.5 608 c 128,-1,7
 324 614 324 614 304 621.5 c 128,-1,8
 284 629 284 629 264.5 635.5 c 128,-1,9
 245 642 245 642 227 642 c 0,10,11
 207 642 207 642 196.5 631.5 c 128,-1,12
 186 621 186 621 178 602 c 0,13,14
 175 594 175 594 171.5 590.5 c 128,-1,15
 168 587 168 587 157 587 c 0,16,17
 145 587 145 587 137 592.5 c 128,-1,18
 129 598 129 598 129 606 c 256,19,20
 129 614 129 614 135 633.5 c 128,-1,21
 141 653 141 653 157 678 c 0,22,23
 196 739 196 739 243 739 c 0,24,25
 260 739 260 739 279 732.5 c 128,-1,26
 298 726 298 726 319 718.5 c 128,-1,27
 340 711 340 711 362 704.5 c 128,-1,28
 384 698 384 698 408 698 c 0,29,30
 433 698 433 698 443 707.5 c 128,-1,31
 453 717 453 717 461 735 c 0,32,33
 464 743 464 743 468 746.5 c 128,-1,34
 472 750 472 750 481 750 c 0,35,36
 497 750 497 750 503.5 746.5 c 128,-1,37
 510 743 510 743 510 730 c 0,0,1
EndSplineSet
EndChar

StartChar: hungarumlaut
Encoding: 733 733 180
Width: 512
Flags: W
LayerCount: 2
Fore
SplineSet
549 751 m 0,0,1
 549 742 549 742 533 726 c 2,2,-1
 426 617 l 2,3,4
 413 604 413 604 404 598.5 c 128,-1,5
 395 593 395 593 391 593 c 0,6,7
 385 593 385 593 378 597 c 128,-1,8
 371 601 371 601 364.5 607 c 128,-1,9
 358 613 358 613 353.5 619.5 c 128,-1,10
 349 626 349 626 349 630 c 0,11,12
 349 638 349 638 354.5 646 c 128,-1,13
 360 654 360 654 370 667 c 2,14,-1
 459 781 l 2,15,16
 467 792 467 792 473 797.5 c 128,-1,17
 479 803 479 803 488 803 c 0,18,19
 496 803 496 803 506.5 796.5 c 128,-1,20
 517 790 517 790 526.5 781 c 128,-1,21
 536 772 536 772 542.5 763.5 c 128,-1,22
 549 755 549 755 549 751 c 0,0,1
394 755 m 0,23,24
 394 747 394 747 379 731 c 2,25,-1
 275 618 l 2,26,27
 252 594 252 594 240 594 c 0,28,29
 235 594 235 594 227.5 598 c 128,-1,30
 220 602 220 602 213.5 607.5 c 128,-1,31
 207 613 207 613 202.5 619 c 128,-1,32
 198 625 198 625 198 630 c 0,33,34
 198 641 198 641 218 667 c 2,35,-1
 302 783 l 2,36,37
 310 794 310 794 316.5 800 c 128,-1,38
 323 806 323 806 331 806 c 256,39,40
 339 806 339 806 350 799.5 c 128,-1,41
 361 793 361 793 370.5 785 c 128,-1,42
 380 777 380 777 387 768 c 128,-1,43
 394 759 394 759 394 755 c 0,23,24
EndSplineSet
EndChar

StartChar: endash
Encoding: 8211 8211 139
Width: 536
Flags: W
LayerCount: 2
Fore
SplineSet
491 336 m 1,0,1
 483 299 483 299 476 262.5 c 128,-1,2
 469 226 469 226 461 188 c 1,3,4
 448 188 448 188 416 188 c 128,-1,5
 384 188 384 188 341.5 188.5 c 128,-1,6
 299 189 299 189 251.5 189 c 128,-1,7
 204 189 204 189 161.5 189.5 c 128,-1,8
 119 190 119 190 86.5 189.5 c 128,-1,9
 54 189 54 189 41 188 c 1,10,11
 41 186 41 186 44 196 c 128,-1,12
 47 206 47 206 51 223 c 128,-1,13
 55 240 55 240 59.5 260 c 128,-1,14
 64 280 64 280 68 296.5 c 128,-1,15
 72 313 72 313 75.5 324 c 128,-1,16
 79 335 79 335 80 333 c 1,17,18
 81 334 81 334 101 334.5 c 128,-1,19
 121 335 121 335 144 335 c 128,-1,20
 167 335 167 335 187 334.5 c 128,-1,21
 207 334 207 334 209 334 c 0,22,23
 224 334 224 334 264 334 c 128,-1,24
 304 334 304 334 349.5 335 c 128,-1,25
 395 336 395 336 435.5 336 c 128,-1,26
 476 336 476 336 491 336 c 1,0,1
EndSplineSet
EndChar

StartChar: emdash
Encoding: 8212 8212 140
Width: 1030
Flags: W
LayerCount: 2
Fore
SplineSet
988 328 m 1,0,1
 980 291 980 291 973 254.5 c 128,-1,2
 966 218 966 218 958 180 c 1,3,4
 949 180 949 180 906.5 180.5 c 128,-1,5
 864 181 864 181 801 181.5 c 128,-1,6
 738 182 738 182 659.5 183 c 128,-1,7
 581 184 581 184 500 185 c 128,-1,8
 419 186 419 186 340.5 187 c 128,-1,9
 262 188 262 188 198.5 188.5 c 128,-1,10
 135 189 135 189 93 189 c 128,-1,11
 51 189 51 189 41 188 c 1,12,13
 41 186 41 186 44 196 c 128,-1,14
 47 206 47 206 51 223 c 128,-1,15
 55 240 55 240 59.5 260 c 128,-1,16
 64 280 64 280 68 296.5 c 128,-1,17
 72 313 72 313 75.5 324 c 128,-1,18
 79 335 79 335 80 333 c 1,19,20
 81 334 81 334 108 334 c 128,-1,21
 135 334 135 334 179 333.5 c 128,-1,22
 223 333 223 333 278.5 332 c 128,-1,23
 334 331 334 331 392.5 330.5 c 128,-1,24
 451 330 451 330 507 329 c 128,-1,25
 563 328 563 328 607 327.5 c 128,-1,26
 651 327 651 327 678 326.5 c 128,-1,27
 705 326 705 326 706 326 c 0,28,29
 721 326 721 326 761 326 c 128,-1,30
 801 326 801 326 846.5 327 c 128,-1,31
 892 328 892 328 932.5 328 c 128,-1,32
 973 328 973 328 988 328 c 1,0,1
EndSplineSet
EndChar

StartChar: quoteleft
Encoding: 8216 8216 143
Width: 270
Flags: W
LayerCount: 2
Fore
SplineSet
235 505 m 1,0,-1
 232 505 l 1,1,2
 232 492 232 492 231 478.5 c 128,-1,3
 230 465 230 465 228 453 c 1,4,5
 181 446 181 446 137.5 447 c 128,-1,6
 94 448 94 448 45 443 c 1,7,-1
 47 468 l 1,8,-1
 29 563 l 1,9,-1
 46 659 l 1,10,-1
 80 724 l 1,11,-1
 132 731 l 1,12,-1
 169 727 l 1,13,-1
 145 612 l 1,14,15
 168 612 168 612 191.5 612 c 128,-1,16
 215 612 215 612 239 613 c 1,17,-1
 235 505 l 1,0,-1
EndSplineSet
EndChar

StartChar: quoteright
Encoding: 8217 8217 144
Width: 272
Flags: W
LayerCount: 2
Fore
SplineSet
227 500 m 1,0,-1
 193 435 l 1,1,-1
 141 428 l 1,2,-1
 104 432 l 1,3,-1
 128 547 l 1,4,5
 105 546 105 546 82 546 c 128,-1,6
 59 546 59 546 34 546 c 1,7,-1
 38 654 l 1,8,-1
 41 654 l 1,9,10
 41 667 41 667 42 680 c 128,-1,11
 43 693 43 693 45 706 c 1,12,13
 92 713 92 713 135.5 711.5 c 128,-1,14
 179 710 179 710 228 716 c 1,15,-1
 226 691 l 1,16,-1
 244 596 l 1,17,-1
 227 500 l 1,0,-1
EndSplineSet
EndChar

StartChar: quotesinglbase
Encoding: 8218 8218 154
Width: 283
Flags: W
LayerCount: 2
Fore
SplineSet
225 92 m 0,0,1
 225 -12 225 -12 143 -109 c 0,2,3
 116 -140 116 -140 93 -155.5 c 128,-1,4
 70 -171 70 -171 55 -171 c 0,5,6
 48 -171 48 -171 39 -166.5 c 128,-1,7
 30 -162 30 -162 22 -154.5 c 128,-1,8
 14 -147 14 -147 8.5 -137.5 c 128,-1,9
 3 -128 3 -128 3 -119 c 0,10,11
 3 -114 3 -114 6 -111.5 c 128,-1,12
 9 -109 9 -109 13 -104 c 2,13,-1
 34 -81 l 2,14,15
 57 -57 57 -57 67 -35.5 c 128,-1,16
 77 -14 77 -14 77 -6 c 0,17,18
 77 5 77 5 71 9.5 c 128,-1,19
 65 14 65 14 56 20 c 0,20,21
 27 39 27 39 13.5 61 c 128,-1,22
 0 83 0 83 0 116 c 0,23,24
 0 139 0 139 8.5 159 c 128,-1,25
 17 179 17 179 32.5 194 c 128,-1,26
 48 209 48 209 69 217.5 c 128,-1,27
 90 226 90 226 114 226 c 0,28,29
 164 226 164 226 194.5 190.5 c 128,-1,30
 225 155 225 155 225 92 c 0,0,1
EndSplineSet
EndChar

StartChar: quotedblleft
Encoding: 8220 8220 141
Width: 526
Flags: W
LayerCount: 2
Fore
SplineSet
488 505 m 1,0,-1
 486 505 l 1,1,2
 486 492 486 492 485 478.5 c 128,-1,3
 484 465 484 465 481 453 c 1,4,5
 434 446 434 446 390.5 447 c 128,-1,6
 347 448 347 448 298 443 c 1,7,-1
 300 468 l 1,8,-1
 282 563 l 1,9,-1
 299 659 l 1,10,-1
 333 724 l 1,11,-1
 385 731 l 1,12,-1
 422 727 l 1,13,-1
 398 612 l 1,14,15
 421 612 421 612 444.5 612 c 128,-1,16
 468 612 468 612 492 613 c 1,17,-1
 488 505 l 1,0,-1
234 505 m 1,18,19
 234 492 234 492 233 478.5 c 128,-1,20
 232 465 232 465 229 453 c 1,21,22
 182 446 182 446 138.5 447 c 128,-1,23
 95 448 95 448 46 443 c 1,24,-1
 48 468 l 1,25,-1
 47 569 l 1,26,-1
 60 656 l 1,27,-1
 81 724 l 1,28,-1
 129 719 l 1,29,-1
 166 715 l 1,30,-1
 146 612 l 1,31,32
 169 612 169 612 187.5 605 c 128,-1,33
 206 598 206 598 230 599 c 1,34,-1
 236 505 l 1,35,-1
 234 505 l 1,18,19
EndSplineSet
EndChar

StartChar: quotedblright
Encoding: 8221 8221 142
Width: 543
Flags: W
LayerCount: 2
Fore
SplineSet
478 691 m 1,0,-1
 479 590 l 1,1,-1
 466 503 l 1,2,-1
 445 435 l 1,3,-1
 397 440 l 1,4,-1
 360 444 l 1,5,-1
 380 547 l 1,6,7
 357 546 357 546 338.5 553.5 c 128,-1,8
 320 561 320 561 296 560 c 1,9,-1
 290 654 l 1,10,-1
 293 654 l 1,11,12
 293 667 293 667 294 680 c 128,-1,13
 295 693 295 693 297 706 c 1,14,15
 344 713 344 713 387.5 711.5 c 128,-1,16
 431 710 431 710 480 716 c 1,17,-1
 478 691 l 1,0,-1
227 500 m 1,18,-1
 193 435 l 1,19,-1
 141 428 l 1,20,-1
 104 432 l 1,21,-1
 128 547 l 1,22,23
 105 546 105 546 82 546 c 128,-1,24
 59 546 59 546 34 546 c 1,25,-1
 38 654 l 1,26,-1
 41 654 l 1,27,28
 41 667 41 667 42 680 c 128,-1,29
 43 693 43 693 45 706 c 1,30,31
 92 713 92 713 135.5 711.5 c 128,-1,32
 179 710 179 710 228 716 c 1,33,-1
 226 691 l 1,34,-1
 244 596 l 1,35,-1
 227 500 l 1,18,-1
EndSplineSet
EndChar

StartChar: quotedblbase
Encoding: 8222 8222 155
Width: 556
Flags: W
LayerCount: 2
Fore
SplineSet
498 92 m 0,0,1
 498 -14 498 -14 416 -109 c 0,2,3
 389 -140 389 -140 366 -155.5 c 128,-1,4
 343 -171 343 -171 328 -171 c 0,5,6
 321 -171 321 -171 312 -166.5 c 128,-1,7
 303 -162 303 -162 295 -154.5 c 128,-1,8
 287 -147 287 -147 281.5 -137.5 c 128,-1,9
 276 -128 276 -128 276 -119 c 0,10,11
 276 -114 276 -114 279 -111.5 c 128,-1,12
 282 -109 282 -109 286 -104 c 2,13,-1
 307 -81 l 2,14,15
 330 -57 330 -57 340 -35.5 c 128,-1,16
 350 -14 350 -14 350 -6 c 0,17,18
 350 5 350 5 344 9.5 c 128,-1,19
 338 14 338 14 329 20 c 0,20,21
 300 39 300 39 286.5 61 c 128,-1,22
 273 83 273 83 273 116 c 0,23,24
 273 139 273 139 281.5 159 c 128,-1,25
 290 179 290 179 305.5 194 c 128,-1,26
 321 209 321 209 342 217.5 c 128,-1,27
 363 226 363 226 387 226 c 0,28,29
 437 226 437 226 467.5 190.5 c 128,-1,30
 498 155 498 155 498 92 c 0,0,1
225 92 m 0,31,32
 225 -11 225 -11 142 -109 c 0,33,34
 115 -140 115 -140 92 -155.5 c 128,-1,35
 69 -171 69 -171 54 -171 c 0,36,37
 47 -171 47 -171 38 -166.5 c 128,-1,38
 29 -162 29 -162 21.5 -154.5 c 128,-1,39
 14 -147 14 -147 8.5 -137.5 c 128,-1,40
 3 -128 3 -128 3 -119 c 0,41,42
 3 -114 3 -114 5.5 -111.5 c 128,-1,43
 8 -109 8 -109 12 -104 c 2,44,-1
 34 -81 l 2,45,46
 57 -57 57 -57 66.5 -35.5 c 128,-1,47
 76 -14 76 -14 76 -6 c 0,48,49
 76 5 76 5 70 9.5 c 128,-1,50
 64 14 64 14 55 20 c 0,51,52
 26 39 26 39 13 61 c 128,-1,53
 0 83 0 83 0 116 c 0,54,55
 0 139 0 139 8.5 159 c 128,-1,56
 17 179 17 179 32 194 c 128,-1,57
 47 209 47 209 68 217.5 c 128,-1,58
 89 226 89 226 113 226 c 0,59,60
 163 226 163 226 194 190.5 c 128,-1,61
 225 155 225 155 225 92 c 0,31,32
EndSplineSet
EndChar

StartChar: dagger
Encoding: 8224 8224 126
Width: 546
Flags: W
LayerCount: 2
Fore
SplineSet
585 487 m 0,0,1
 585 439 585 439 565 412.5 c 128,-1,2
 545 386 545 386 510 386 c 0,3,4
 496 386 496 386 480.5 391.5 c 128,-1,5
 465 397 465 397 447 405 c 128,-1,6
 429 413 429 413 408 421.5 c 128,-1,7
 387 430 387 430 362 435 c 1,8,9
 361 428 361 428 361 422 c 128,-1,10
 361 416 361 416 361 409 c 0,11,12
 361 334 361 334 397 243 c 1,13,14
 363 185 363 185 341.5 73 c 128,-1,15
 320 -39 320 -39 297 -207 c 1,16,-1
 215 -207 l 1,17,18
 220 -122 220 -122 223 -51.5 c 128,-1,19
 226 19 226 19 226 78 c 0,20,21
 226 124 226 124 222 165 c 128,-1,22
 218 206 218 206 207 243 c 1,23,24
 239 300 239 300 258 347 c 128,-1,25
 277 394 277 394 282 434 c 1,26,27
 256 429 256 429 234.5 421.5 c 128,-1,28
 213 414 213 414 194.5 406 c 128,-1,29
 176 398 176 398 159 392.5 c 128,-1,30
 142 387 142 387 126 387 c 0,31,32
 67 387 67 387 67 451 c 0,33,34
 67 497 67 497 86.5 522 c 128,-1,35
 106 547 106 547 141 547 c 0,36,37
 157 547 157 547 173 541 c 128,-1,38
 189 535 189 535 207.5 527.5 c 128,-1,39
 226 520 226 520 246.5 511.5 c 128,-1,40
 267 503 267 503 292 499 c 1,41,-1
 292 511 l 2,42,43
 292 535 292 535 287.5 556 c 128,-1,44
 283 577 283 577 277 595 c 128,-1,45
 271 613 271 613 266.5 629 c 128,-1,46
 262 645 262 645 262 660 c 0,47,48
 262 695 262 695 285.5 718 c 128,-1,49
 309 741 309 741 351 741 c 0,50,51
 428 741 428 741 428 677 c 0,52,53
 428 660 428 660 422.5 644 c 128,-1,54
 417 628 417 628 408 610 c 0,55,56
 397 589 397 589 382.5 563.5 c 128,-1,57
 368 538 368 538 365 500 c 1,58,59
 392 504 392 504 414.5 511.5 c 128,-1,60
 437 519 437 519 457 526.5 c 128,-1,61
 477 534 477 534 494 540 c 128,-1,62
 511 546 511 546 527 546 c 0,63,64
 555 546 555 546 570 530.5 c 128,-1,65
 585 515 585 515 585 487 c 0,0,1
EndSplineSet
EndChar

StartChar: daggerdbl
Encoding: 8225 8225 152
Width: 563
Flags: W
LayerCount: 2
Fore
SplineSet
585 487 m 0,0,1
 585 439 585 439 565 412.5 c 128,-1,2
 545 386 545 386 510 386 c 0,3,4
 496 386 496 386 480.5 391.5 c 128,-1,5
 465 397 465 397 447 405 c 128,-1,6
 429 413 429 413 408 421.5 c 128,-1,7
 387 430 387 430 362 435 c 1,8,9
 361 430 361 430 361 424 c 128,-1,10
 361 418 361 418 361 413 c 0,11,12
 361 383 361 383 369.5 347 c 128,-1,13
 378 311 378 311 395 266 c 1,14,15
 363 216 363 216 344 175.5 c 128,-1,16
 325 135 325 135 320 100 c 1,17,18
 345 104 345 104 367 112.5 c 128,-1,19
 389 121 389 121 407.5 128.5 c 128,-1,20
 426 136 426 136 443 142 c 128,-1,21
 460 148 460 148 476 148 c 0,22,23
 505 148 505 148 520 131 c 128,-1,24
 535 114 535 114 535 83 c 0,25,26
 535 37 535 37 515.5 12 c 128,-1,27
 496 -13 496 -13 461 -13 c 0,28,29
 445 -13 445 -13 429 -7 c 128,-1,30
 413 -1 413 -1 394.5 6.5 c 128,-1,31
 376 14 376 14 355.5 22 c 128,-1,32
 335 30 335 30 310 35 c 1,33,-1
 310 23 l 2,34,35
 310 -1 310 -1 314.5 -22 c 128,-1,36
 319 -43 319 -43 325 -61 c 128,-1,37
 331 -79 331 -79 335.5 -95 c 128,-1,38
 340 -111 340 -111 340 -126 c 0,39,40
 340 -161 340 -161 316 -184 c 128,-1,41
 292 -207 292 -207 250 -207 c 0,42,43
 173 -207 173 -207 173 -143 c 0,44,45
 173 -126 173 -126 179 -110 c 128,-1,46
 185 -94 185 -94 194 -76 c 0,47,48
 205 -55 205 -55 219.5 -29.5 c 128,-1,49
 234 -4 234 -4 237 34 c 1,50,51
 210 30 210 30 187.5 22.5 c 128,-1,52
 165 15 165 15 145 7.5 c 128,-1,53
 125 0 125 0 108 -6 c 128,-1,54
 91 -12 91 -12 75 -12 c 0,55,56
 47 -12 47 -12 31.5 4 c 128,-1,57
 16 20 16 20 16 48 c 0,58,59
 16 96 16 96 36.5 122 c 128,-1,60
 57 148 57 148 92 148 c 0,61,62
 106 148 106 148 121 142.5 c 128,-1,63
 136 137 136 137 154 129 c 128,-1,64
 172 121 172 121 193 112.5 c 128,-1,65
 214 104 214 104 239 99 c 1,66,67
 240 105 240 105 240 111 c 128,-1,68
 240 117 240 117 240 123 c 0,69,70
 240 190 240 190 205 266 c 1,71,72
 238 316 238 316 257.5 357 c 128,-1,73
 277 398 277 398 282 434 c 1,74,75
 256 429 256 429 234.5 421.5 c 128,-1,76
 213 414 213 414 194.5 406 c 128,-1,77
 176 398 176 398 159 392.5 c 128,-1,78
 142 387 142 387 126 387 c 0,79,80
 67 387 67 387 67 451 c 0,81,82
 67 497 67 497 86.5 522 c 128,-1,83
 106 547 106 547 141 547 c 0,84,85
 157 547 157 547 173 541 c 128,-1,86
 189 535 189 535 207.5 527.5 c 128,-1,87
 226 520 226 520 246.5 511.5 c 128,-1,88
 267 503 267 503 292 499 c 1,89,-1
 292 511 l 2,90,91
 292 535 292 535 287.5 556 c 128,-1,92
 283 577 283 577 277 595 c 128,-1,93
 271 613 271 613 266.5 629 c 128,-1,94
 262 645 262 645 262 660 c 0,95,96
 262 695 262 695 285.5 718 c 128,-1,97
 309 741 309 741 351 741 c 0,98,99
 428 741 428 741 428 677 c 0,100,101
 428 660 428 660 422.5 644 c 128,-1,102
 417 628 417 628 408 610 c 0,103,104
 397 589 397 589 382.5 563.5 c 128,-1,105
 368 538 368 538 365 500 c 1,106,107
 392 504 392 504 414.5 511.5 c 128,-1,108
 437 519 437 519 457 526.5 c 128,-1,109
 477 534 477 534 494 540 c 128,-1,110
 511 546 511 546 527 546 c 0,111,112
 555 546 555 546 570 530.5 c 128,-1,113
 585 515 585 515 585 487 c 0,0,1
EndSplineSet
EndChar

StartChar: bullet
Encoding: 8226 8226 128
Width: 453
Flags: W
LayerCount: 2
Fore
SplineSet
439 372 m 256,0,1
 439 342 439 342 427.5 316 c 128,-1,2
 416 290 416 290 396.5 270 c 128,-1,3
 377 250 377 250 350.5 238.5 c 128,-1,4
 324 227 324 227 294 227 c 256,5,6
 264 227 264 227 237.5 238.5 c 128,-1,7
 211 250 211 250 191.5 269.5 c 128,-1,8
 172 289 172 289 161 315.5 c 128,-1,9
 150 342 150 342 150 372 c 256,10,11
 150 402 150 402 161.5 428 c 128,-1,12
 173 454 173 454 192.5 473.5 c 128,-1,13
 212 493 212 493 238.5 504.5 c 128,-1,14
 265 516 265 516 295 516 c 256,15,16
 325 516 325 516 351 504.5 c 128,-1,17
 377 493 377 493 396.5 473.5 c 128,-1,18
 416 454 416 454 427.5 428 c 128,-1,19
 439 402 439 402 439 372 c 256,0,1
EndSplineSet
EndChar

StartChar: ellipsis
Encoding: 8230 8230 134
Width: 994
Flags: W
LayerCount: 2
Fore
SplineSet
937 105 m 256,0,1
 937 80 937 80 928 58 c 128,-1,2
 919 36 919 36 903 20 c 128,-1,3
 887 4 887 4 865 -5 c 128,-1,4
 843 -14 843 -14 818 -14 c 256,5,6
 793 -14 793 -14 771 -5 c 128,-1,7
 749 4 749 4 733 20 c 128,-1,8
 717 36 717 36 707.5 58 c 128,-1,9
 698 80 698 80 698 105 c 256,10,11
 698 130 698 130 707.5 152 c 128,-1,12
 717 174 717 174 733 190 c 128,-1,13
 749 206 749 206 771 215.5 c 128,-1,14
 793 225 793 225 818 225 c 256,15,16
 843 225 843 225 865 215.5 c 128,-1,17
 887 206 887 206 903 190 c 128,-1,18
 919 174 919 174 928 152 c 128,-1,19
 937 130 937 130 937 105 c 256,0,1
603 105 m 256,20,21
 603 80 603 80 594 58 c 128,-1,22
 585 36 585 36 569 20 c 128,-1,23
 553 4 553 4 531 -5 c 128,-1,24
 509 -14 509 -14 484 -14 c 256,25,26
 459 -14 459 -14 437 -5 c 128,-1,27
 415 4 415 4 399 20 c 128,-1,28
 383 36 383 36 373.5 58 c 128,-1,29
 364 80 364 80 364 105 c 256,30,31
 364 130 364 130 373.5 152 c 128,-1,32
 383 174 383 174 399 190 c 128,-1,33
 415 206 415 206 437 215.5 c 128,-1,34
 459 225 459 225 484 225 c 256,35,36
 509 225 509 225 531 215.5 c 128,-1,37
 553 206 553 206 569 190 c 128,-1,38
 585 174 585 174 594 152 c 128,-1,39
 603 130 603 130 603 105 c 256,20,21
270 105 m 256,40,41
 270 80 270 80 261 58 c 128,-1,42
 252 36 252 36 236 20 c 128,-1,43
 220 4 220 4 198 -5 c 128,-1,44
 176 -14 176 -14 151 -14 c 256,45,46
 126 -14 126 -14 104 -5 c 128,-1,47
 82 4 82 4 66 20 c 128,-1,48
 50 36 50 36 40.5 58 c 128,-1,49
 31 80 31 80 31 105 c 256,50,51
 31 130 31 130 40.5 152 c 128,-1,52
 50 174 50 174 66 190 c 128,-1,53
 82 206 82 206 104 215.5 c 128,-1,54
 126 225 126 225 151 225 c 256,55,56
 176 225 176 225 198 215.5 c 128,-1,57
 220 206 220 206 236 190 c 128,-1,58
 252 174 252 174 261 152 c 128,-1,59
 270 130 270 130 270 105 c 256,40,41
EndSplineSet
EndChar

StartChar: perthousand
Encoding: 8240 8240 156
Width: 1248
Flags: W
LayerCount: 2
Fore
SplineSet
1263 229 m 0,0,1
 1263 181 1263 181 1246.5 139 c 128,-1,2
 1230 97 1230 97 1200.5 66.5 c 128,-1,3
 1171 36 1171 36 1131 18 c 128,-1,4
 1091 0 1091 0 1044 0 c 0,5,6
 977 0 977 0 935.5 44 c 128,-1,7
 894 88 894 88 894 162 c 0,8,9
 894 212 894 212 910.5 254.5 c 128,-1,10
 927 297 927 297 955.5 328 c 128,-1,11
 984 359 984 359 1022.5 376.5 c 128,-1,12
 1061 394 1061 394 1105 394 c 0,13,14
 1178 394 1178 394 1220.5 350 c 128,-1,15
 1263 306 1263 306 1263 229 c 0,0,1
859 229 m 0,16,17
 859 181 859 181 842.5 139 c 128,-1,18
 826 97 826 97 796.5 66.5 c 128,-1,19
 767 36 767 36 726.5 18 c 128,-1,20
 686 0 686 0 639 0 c 0,21,22
 572 0 572 0 530.5 44 c 128,-1,23
 489 88 489 88 489 162 c 0,24,25
 489 212 489 212 505.5 254.5 c 128,-1,26
 522 297 522 297 550.5 328 c 128,-1,27
 579 359 579 359 617.5 376.5 c 128,-1,28
 656 394 656 394 700 394 c 0,29,30
 773 394 773 394 816 350 c 128,-1,31
 859 306 859 306 859 229 c 0,16,17
706 624 m 256,32,33
 706 614 706 614 695.5 602 c 128,-1,34
 685 590 685 590 668 570 c 0,35,36
 630 525 630 525 567 433.5 c 128,-1,37
 504 342 504 342 418 202 c 0,38,39
 362 111 362 111 339 60 c 128,-1,40
 316 9 316 9 312 1 c 0,41,42
 307 -10 307 -10 302 -14 c 128,-1,43
 297 -18 297 -18 289 -18 c 0,44,45
 273 -18 273 -18 204 27 c 0,46,47
 198 31 198 31 194.5 36.5 c 128,-1,48
 191 42 191 42 191 47 c 0,49,50
 191 53 191 53 205.5 75 c 128,-1,51
 220 97 220 97 247.5 136.5 c 128,-1,52
 275 176 275 176 314 234.5 c 128,-1,53
 353 293 353 293 402 372 c 0,54,55
 450 449 450 449 484 508.5 c 128,-1,56
 518 568 518 568 542 608.5 c 128,-1,57
 566 649 566 649 580.5 669.5 c 128,-1,58
 595 690 595 690 603 690 c 0,59,60
 614 690 614 690 636.5 677 c 128,-1,61
 659 664 659 664 696 641 c 0,62,63
 706 634 706 634 706 624 c 256,32,33
397 509 m 0,64,65
 397 461 397 461 380.5 419 c 128,-1,66
 364 377 364 377 334.5 346.5 c 128,-1,67
 305 316 305 316 264.5 298 c 128,-1,68
 224 280 224 280 177 280 c 0,69,70
 110 280 110 280 68.5 324 c 128,-1,71
 27 368 27 368 27 442 c 0,72,73
 27 492 27 492 43.5 534.5 c 128,-1,74
 60 577 60 577 88.5 608 c 128,-1,75
 117 639 117 639 155.5 656.5 c 128,-1,76
 194 674 194 674 238 674 c 0,77,78
 311 674 311 674 354 630 c 128,-1,79
 397 586 397 586 397 509 c 0,64,65
1120 287 m 0,80,81
 1120 325 1120 325 1098 325 c 0,82,83
 1084 325 1084 325 1076 309.5 c 128,-1,84
 1068 294 1068 294 1060 262 c 0,85,86
 1049 214 1049 214 1045 172.5 c 128,-1,87
 1041 131 1041 131 1041 110 c 0,88,89
 1041 71 1041 71 1062 71 c 0,90,91
 1075 71 1075 71 1082 79 c 128,-1,92
 1089 87 1089 87 1094 105 c 0,93,94
 1100 128 1100 128 1105 153 c 128,-1,95
 1110 178 1110 178 1113.5 202 c 128,-1,96
 1117 226 1117 226 1118.5 247.5 c 128,-1,97
 1120 269 1120 269 1120 287 c 0,80,81
715 287 m 0,98,99
 715 325 715 325 692 325 c 0,100,101
 678 325 678 325 670.5 309.5 c 128,-1,102
 663 294 663 294 655 262 c 0,103,104
 644 214 644 214 640 172.5 c 128,-1,105
 636 131 636 131 636 110 c 0,106,107
 636 90 636 90 640.5 80.5 c 128,-1,108
 645 71 645 71 657 71 c 0,109,110
 670 71 670 71 677 79 c 128,-1,111
 684 87 684 87 689 105 c 0,112,113
 695 128 695 128 700 153 c 128,-1,114
 705 178 705 178 708.5 202 c 128,-1,115
 712 226 712 226 713.5 247.5 c 128,-1,116
 715 269 715 269 715 287 c 0,98,99
251 567 m 0,117,118
 251 605 251 605 229 605 c 0,119,120
 215 605 215 605 207 589.5 c 128,-1,121
 199 574 199 574 191 542 c 0,122,123
 180 494 180 494 176 452.5 c 128,-1,124
 172 411 172 411 172 390 c 0,125,126
 172 351 172 351 194 351 c 0,127,128
 207 351 207 351 213.5 359 c 128,-1,129
 220 367 220 367 225 385 c 0,130,131
 231 408 231 408 236 433 c 128,-1,132
 241 458 241 458 244.5 482 c 128,-1,133
 248 506 248 506 249.5 527.5 c 128,-1,134
 251 549 251 549 251 567 c 0,117,118
EndSplineSet
EndChar

StartChar: guilsinglleft
Encoding: 8249 8249 148
Width: 276
Flags: W
LayerCount: 2
Fore
SplineSet
278 456 m 0,0,1
 278 421 278 421 205 328 c 0,2,3
 184 301 184 301 171 286 c 128,-1,4
 158 271 158 271 158 263 c 0,5,6
 158 258 158 258 166 241.5 c 128,-1,7
 174 225 174 225 188 196 c 0,8,9
 209 152 209 152 219 122.5 c 128,-1,10
 229 93 229 93 229 79 c 0,11,12
 229 59 229 59 218.5 47 c 128,-1,13
 208 35 208 35 192 35 c 0,14,15
 172 35 172 35 152.5 57.5 c 128,-1,16
 133 80 133 80 102 119 c 0,17,18
 58 176 58 176 38 212.5 c 128,-1,19
 18 249 18 249 18 263 c 0,20,21
 18 281 18 281 44 312 c 128,-1,22
 70 343 70 343 119 394 c 0,23,24
 165 442 165 442 193.5 467 c 128,-1,25
 222 492 222 492 242 492 c 0,26,27
 259 492 259 492 268.5 482.5 c 128,-1,28
 278 473 278 473 278 456 c 0,0,1
EndSplineSet
EndChar

StartChar: guilsinglright
Encoding: 8250 8250 149
Width: 295
Flags: W
LayerCount: 2
Fore
SplineSet
273 264 m 0,0,1
 273 246 273 246 247 215.5 c 128,-1,2
 221 185 221 185 172 134 c 0,3,4
 126 86 126 86 97 60.5 c 128,-1,5
 68 35 68 35 48 35 c 0,6,7
 31 35 31 35 22 44.5 c 128,-1,8
 13 54 13 54 13 71 c 0,9,10
 13 107 13 107 85 199 c 0,11,12
 106 226 106 226 119.5 241 c 128,-1,13
 133 256 133 256 133 264 c 0,14,15
 133 269 133 269 124.5 285.5 c 128,-1,16
 116 302 116 302 102 331 c 0,17,18
 81 375 81 375 71.5 405 c 128,-1,19
 62 435 62 435 62 449 c 0,20,21
 62 469 62 469 72 480.5 c 128,-1,22
 82 492 82 492 98 492 c 0,23,24
 118 492 118 492 137.5 469.5 c 128,-1,25
 157 447 157 447 188 408 c 0,26,27
 232 351 232 351 252.5 314.5 c 128,-1,28
 273 278 273 278 273 264 c 0,0,1
EndSplineSet
EndChar

StartChar: fraction
Encoding: 8260 8260 147
AltUni2: 002215.ffffffff.0 002215.ffffffff.0
Width: 319
Flags: W
LayerCount: 2
Fore
SplineSet
342 597 m 256,0,1
 342 587 342 587 332 575 c 128,-1,2
 322 563 322 563 305 543 c 0,3,4
 267 498 267 498 203.5 406.5 c 128,-1,5
 140 315 140 315 54 175 c 0,6,7
 -2 84 -2 84 -25 33 c 128,-1,8
 -48 -18 -48 -18 -52 -26 c 0,9,10
 -57 -37 -57 -37 -61.5 -41 c 128,-1,11
 -66 -45 -66 -45 -74 -45 c 0,12,13
 -90 -45 -90 -45 -159 0 c 0,14,15
 -165 4 -165 4 -168.5 9.5 c 128,-1,16
 -172 15 -172 15 -172 20 c 0,17,18
 -172 26 -172 26 -157.5 48 c 128,-1,19
 -143 70 -143 70 -116 109.5 c 128,-1,20
 -89 149 -89 149 -50 207.5 c 128,-1,21
 -11 266 -11 266 38 345 c 0,22,23
 86 422 86 422 120 481.5 c 128,-1,24
 154 541 154 541 178 581.5 c 128,-1,25
 202 622 202 622 217 642.5 c 128,-1,26
 232 663 232 663 240 663 c 0,27,28
 251 663 251 663 273 650 c 128,-1,29
 295 637 295 637 332 614 c 0,30,31
 342 607 342 607 342 597 c 256,0,1
EndSplineSet
EndChar

StartChar: trademark
Encoding: 8482 8482 129
Width: 686
Flags: W
LayerCount: 2
Fore
SplineSet
562 443 m 1,0,-1
 562 461 l 1,1,-1
 577 465 l 2,2,3
 591 469 591 469 591 488 c 2,4,-1
 591 654 l 1,5,-1
 525 443 l 1,6,-1
 499 443 l 1,7,-1
 420 661 l 1,8,-1
 420 488 l 2,9,10
 420 468 420 468 434 465 c 2,11,-1
 452 461 l 1,12,-1
 452 443 l 1,13,-1
 357 443 l 1,14,-1
 357 461 l 1,15,-1
 374 465 l 2,16,17
 389 468 389 468 389 488 c 2,18,-1
 389 672 l 2,19,20
 389 692 389 692 374 695 c 2,21,-1
 357 699 l 1,22,-1
 357 717 l 1,23,-1
 472 717 l 1,24,-1
 531 550 l 1,25,-1
 585 717 l 1,26,-1
 693 717 l 1,27,-1
 693 703 l 1,28,-1
 683 699 l 2,29,30
 674 695 674 695 671.5 691 c 128,-1,31
 669 687 669 687 669 676 c 2,32,-1
 669 488 l 2,33,34
 669 477 669 477 671.5 473 c 128,-1,35
 674 469 674 469 683 465 c 2,36,-1
 693 461 l 1,37,-1
 693 443 l 1,38,-1
 562 443 l 1,0,-1
319 616 m 1,39,40
 316 652 316 652 302.5 671 c 128,-1,41
 289 690 289 690 261 691 c 1,42,-1
 261 488 l 2,43,44
 261 468 261 468 273 465 c 2,45,-1
 288 461 l 1,46,-1
 288 443 l 1,47,-1
 151 443 l 1,48,-1
 151 461 l 1,49,-1
 167 465 l 2,50,51
 179 468 179 468 179 488 c 2,52,-1
 179 691 l 1,53,54
 126 691 126 691 120 616 c 1,55,-1
 101 616 l 1,56,-1
 107 717 l 1,57,-1
 332 717 l 1,58,-1
 338 616 l 1,59,-1
 319 616 l 1,39,40
EndSplineSet
EndChar

StartChar: minus
Encoding: 8722 8722 11
Width: 750
Flags: W
LayerCount: 2
Fore
SplineSet
124 231 m 1,0,-1
 124 366 l 1,1,-1
 709 366 l 1,2,-1
 709 231 l 1,3,-1
 124 231 l 1,0,-1
EndSplineSet
EndChar

StartChar: fi
Encoding: 64257 64257 150
Width: 772
Flags: W
LayerCount: 2
Fore
SplineSet
764 673 m 0,0,1
 764 652 764 652 748.5 630 c 128,-1,2
 733 608 733 608 706 591 c 128,-1,3
 679 574 679 574 642 563 c 128,-1,4
 605 552 605 552 562 552 c 0,5,6
 520 552 520 552 496 569 c 128,-1,7
 472 586 472 586 472 612 c 0,8,9
 472 658 472 658 538 696 c 0,10,11
 568 713 568 713 603 722.5 c 128,-1,12
 638 732 638 732 668 732 c 0,13,14
 713 732 713 732 738.5 715 c 128,-1,15
 764 698 764 698 764 673 c 0,0,1
749 125 m 0,16,17
 749 87 749 87 698 50 c 0,18,19
 658 21 658 21 616 6.5 c 128,-1,20
 574 -8 574 -8 537 -8 c 0,21,22
 446 -8 446 -8 446 63 c 0,23,24
 446 80 446 80 448.5 101.5 c 128,-1,25
 451 123 451 123 457 151 c 2,26,-1
 487 289 l 2,27,28
 494 318 494 318 494 337 c 0,29,30
 494 346 494 346 492 349.5 c 128,-1,31
 490 353 490 353 486.5 354.5 c 128,-1,32
 483 356 483 356 476.5 356.5 c 128,-1,33
 470 357 470 357 461 359 c 0,34,35
 449 362 449 362 441.5 371 c 128,-1,36
 434 380 434 380 434 391 c 0,37,38
 434 431 434 431 502 464 c 0,39,40
 548 487 548 487 595 498 c 128,-1,41
 642 509 642 509 676 509 c 0,42,43
 739 509 739 509 739 455 c 0,44,45
 739 442 739 442 734.5 414 c 128,-1,46
 730 386 730 386 722 344 c 2,47,-1
 706 258 l 2,48,49
 700 226 700 226 695.5 204.5 c 128,-1,50
 691 183 691 183 691 171 c 0,51,52
 691 155 691 155 699 155 c 256,53,54
 707 155 707 155 713 156 c 128,-1,55
 719 157 719 157 724 157 c 0,56,57
 749 157 749 157 749 125 c 0,16,17
418 634 m 0,58,59
 418 592 418 592 392.5 566.5 c 128,-1,60
 367 541 367 541 331 541 c 0,61,62
 291 541 291 541 254 577 c 0,63,64
 243 588 243 588 234.5 598.5 c 128,-1,65
 226 609 226 609 212 609 c 0,66,67
 201 609 201 609 194 601 c 128,-1,68
 187 593 187 593 187 581 c 0,69,70
 187 559 187 559 211 543 c 0,71,72
 227 532 227 532 251 528.5 c 128,-1,73
 275 525 275 525 297 512 c 0,74,75
 314 502 314 502 322 490.5 c 128,-1,76
 330 479 330 479 335.5 469 c 128,-1,77
 341 459 341 459 345.5 452.5 c 128,-1,78
 350 446 350 446 361 446 c 2,79,-1
 372 446 l 2,80,81
 382 446 382 446 388 446.5 c 128,-1,82
 394 447 394 447 396 447 c 0,83,84
 410 447 410 447 410 433 c 0,85,86
 410 431 410 431 409.5 428 c 128,-1,87
 409 425 409 425 409 422 c 2,88,-1
 402 342 l 2,89,90
 402 338 402 338 401.5 336 c 128,-1,91
 401 334 401 334 401 333 c 0,92,93
 401 324 401 324 392.5 321 c 128,-1,94
 384 318 384 318 369 318 c 2,95,-1
 355 318 l 2,96,97
 345 318 345 318 342 310.5 c 128,-1,98
 339 303 339 303 337 289 c 0,99,100
 322 201 322 201 311.5 124 c 128,-1,101
 301 47 301 47 296 -19 c 0,102,103
 294 -40 294 -40 293.5 -58 c 128,-1,104
 293 -76 293 -76 291 -91 c 128,-1,105
 289 -106 289 -106 284 -118 c 128,-1,106
 279 -130 279 -130 269 -139 c 0,107,108
 257 -150 257 -150 239.5 -159.5 c 128,-1,109
 222 -169 222 -169 201.5 -176.5 c 128,-1,110
 181 -184 181 -184 159 -188.5 c 128,-1,111
 137 -193 137 -193 116 -193 c 0,112,113
 63 -193 63 -193 34 -174 c 128,-1,114
 5 -155 5 -155 5 -126 c 0,115,116
 5 -108 5 -108 14 -98 c 128,-1,117
 23 -88 23 -88 31 -78 c 0,118,119
 41 -64 41 -64 48 -44 c 128,-1,120
 55 -24 55 -24 62 3 c 0,121,122
 78 71 78 71 88 125.5 c 128,-1,123
 98 180 98 180 103 220 c 128,-1,124
 108 260 108 260 110 283.5 c 128,-1,125
 112 307 112 307 112 313 c 0,126,127
 112 321 112 321 110.5 322.5 c 128,-1,128
 109 324 109 324 101 324 c 2,129,-1
 60 324 l 1,130,-1
 46 324 l 2,131,132
 33 324 33 324 28.5 326 c 128,-1,133
 24 328 24 328 24 340 c 2,134,-1
 24 346 l 1,135,-1
 29 418 l 2,136,137
 31 438 31 438 36 442 c 128,-1,138
 41 446 41 446 61 446 c 2,139,-1
 103 446 l 2,140,141
 110 446 110 446 110 451 c 0,142,143
 110 460 110 460 101.5 466.5 c 128,-1,144
 93 473 93 473 84 484 c 0,145,146
 56 516 56 516 56 568 c 0,147,148
 56 605 56 605 72.5 638.5 c 128,-1,149
 89 672 89 672 118.5 697 c 128,-1,150
 148 722 148 722 188 737 c 128,-1,151
 228 752 228 752 276 752 c 0,152,153
 344 752 344 752 381 719 c 128,-1,154
 418 686 418 686 418 634 c 0,58,59
EndSplineSet
EndChar

StartChar: fl
Encoding: 64258 64258 151
Width: 795
Flags: W
LayerCount: 2
Fore
SplineSet
749 131 m 0,0,1
 749 83 749 83 692 44 c 0,2,3
 654 18 654 18 613.5 4 c 128,-1,4
 573 -10 573 -10 534 -10 c 0,5,6
 440 -10 440 -10 440 70 c 0,7,8
 440 75 440 75 440.5 81 c 128,-1,9
 441 87 441 87 442 93 c 2,10,-1
 453 171 l 2,11,12
 457 197 457 197 467 255.5 c 128,-1,13
 477 314 477 314 491 408 c 2,14,-1
 511 541 l 2,15,16
 514 561 514 561 516 573 c 128,-1,17
 518 585 518 585 518 589 c 0,18,19
 518 608 518 608 501 608 c 0,20,21
 495 608 495 608 489.5 606 c 128,-1,22
 484 604 484 604 478 604 c 0,23,24
 449 604 449 604 449 635 c 0,25,26
 449 662 449 662 463.5 678 c 128,-1,27
 478 694 478 694 510 708 c 0,28,29
 553 728 553 728 601.5 738 c 128,-1,30
 650 748 650 748 695 748 c 0,31,32
 723 748 723 748 736 738.5 c 128,-1,33
 749 729 749 729 749 706 c 0,34,35
 749 697 749 697 746 669 c 2,36,-1
 735 567 l 2,37,38
 729 513 729 513 720.5 449.5 c 128,-1,39
 712 386 712 386 700 313 c 2,40,-1
 684 214 l 2,41,42
 681 194 681 194 681 184 c 0,43,44
 681 170 681 170 685 164 c 128,-1,45
 689 158 689 158 700 158 c 0,46,47
 706 158 706 158 712 160 c 128,-1,48
 718 162 718 162 723 162 c 0,49,50
 749 162 749 162 749 131 c 0,0,1
418 634 m 0,51,52
 418 592 418 592 392.5 566.5 c 128,-1,53
 367 541 367 541 331 541 c 0,54,55
 291 541 291 541 254 577 c 0,56,57
 243 588 243 588 234.5 598.5 c 128,-1,58
 226 609 226 609 212 609 c 0,59,60
 201 609 201 609 194 601 c 128,-1,61
 187 593 187 593 187 581 c 0,62,63
 187 559 187 559 211 543 c 0,64,65
 227 532 227 532 251 528.5 c 128,-1,66
 275 525 275 525 297 512 c 0,67,68
 314 502 314 502 322 490.5 c 128,-1,69
 330 479 330 479 335.5 469 c 128,-1,70
 341 459 341 459 345.5 452.5 c 128,-1,71
 350 446 350 446 361 446 c 2,72,-1
 372 446 l 2,73,74
 382 446 382 446 388 446.5 c 128,-1,75
 394 447 394 447 396 447 c 0,76,77
 410 447 410 447 410 433 c 0,78,79
 410 431 410 431 409.5 428 c 128,-1,80
 409 425 409 425 409 422 c 2,81,-1
 402 342 l 2,82,83
 402 338 402 338 401.5 336 c 128,-1,84
 401 334 401 334 401 333 c 0,85,86
 401 324 401 324 392.5 321 c 128,-1,87
 384 318 384 318 369 318 c 2,88,-1
 355 318 l 2,89,90
 345 318 345 318 342 310.5 c 128,-1,91
 339 303 339 303 337 289 c 0,92,93
 322 201 322 201 311.5 124 c 128,-1,94
 301 47 301 47 296 -19 c 0,95,96
 294 -40 294 -40 293.5 -58 c 128,-1,97
 293 -76 293 -76 291 -91 c 128,-1,98
 289 -106 289 -106 284 -118 c 128,-1,99
 279 -130 279 -130 269 -139 c 0,100,101
 257 -150 257 -150 239.5 -159.5 c 128,-1,102
 222 -169 222 -169 201.5 -176.5 c 128,-1,103
 181 -184 181 -184 159 -188.5 c 128,-1,104
 137 -193 137 -193 116 -193 c 0,105,106
 63 -193 63 -193 34 -174 c 128,-1,107
 5 -155 5 -155 5 -126 c 0,108,109
 5 -108 5 -108 14 -98 c 128,-1,110
 23 -88 23 -88 31 -78 c 0,111,112
 41 -64 41 -64 48 -44 c 128,-1,113
 55 -24 55 -24 62 3 c 0,114,115
 78 71 78 71 88 125.5 c 128,-1,116
 98 180 98 180 103 220 c 128,-1,117
 108 260 108 260 110 283.5 c 128,-1,118
 112 307 112 307 112 313 c 0,119,120
 112 321 112 321 110.5 322.5 c 128,-1,121
 109 324 109 324 101 324 c 2,122,-1
 60 324 l 1,123,-1
 46 324 l 2,124,125
 33 324 33 324 28.5 326 c 128,-1,126
 24 328 24 328 24 340 c 2,127,-1
 24 346 l 1,128,-1
 29 418 l 2,129,130
 31 438 31 438 36 442 c 128,-1,131
 41 446 41 446 61 446 c 2,132,-1
 103 446 l 2,133,134
 110 446 110 446 110 451 c 0,135,136
 110 460 110 460 101.5 466.5 c 128,-1,137
 93 473 93 473 84 484 c 0,138,139
 56 516 56 516 56 568 c 0,140,141
 56 605 56 605 72.5 638.5 c 128,-1,142
 89 672 89 672 118.5 697 c 128,-1,143
 148 722 148 722 188 737 c 128,-1,144
 228 752 228 752 276 752 c 0,145,146
 344 752 344 752 381 719 c 128,-1,147
 418 686 418 686 418 634 c 0,51,52
EndSplineSet
EndChar
